999
dxfrw 0.6.3
  0
SECTION
  2
HEADER
  9
$ACADVER
  1
AC1021
  9
$DWGCODEPAGE
  3
ANSI_1252
  9
$INSBASE
 10
0
 20
0
 30
0
  9
$EXTMIN
 10
10000000000
 20
10000000000
 30
0
  9
$EXTMAX
 10
-10000000000
 20
-10000000000
 30
0
  9
$LIMMIN
 10
0
 20
0
  9
$LIMMAX
 10
420
 20
297
  9
$ORTHOMODE
 70
    0
  9
$REGENMODE
 70
    1
  9
$FILLMODE
 70
    0
  9
$QTEXTMODE
 70
    0
  9
$MIRRTEXT
 70
    0
  9
$LTSCALE
 40
1
  9
$ATTMODE
 70
    0
  9
$TEXTSIZE
 40
2.5
  9
$TRACEWID
 40
15.68
  9
$TEXTSTYLE
  7
STANDARD
  9
$CLAYER
  8
0
  9
$CELTYPE
  6
BYLAYER
  9
$CECOLOR
 62
  256
  9
$CELTSCALE
 40
1
  9
$DISPSILH
 70
    0
  9
$DIMSCALE
 40
2.5
  9
$DIMASZ
 40
2.5
  9
$DIMEXO
 40
0.625
  9
$DIMDLI
 40
3.75
  9
$DIMRND
 40
0
  9
$DIMDLE
 40
0
  9
$DIMEXE
 40
1.25
  9
$DIMTP
 40
0
  9
$DIMTM
 40
0
  9
$DIMTXT
 40
2.5
  9
$DIMCEN
 40
2.5
  9
$DIMTSZ
 40
0
  9
$DIMTOL
 70
    0
  9
$DIMLIM
 70
    0
  9
$DIMTIH
 70
    0
  9
$DIMTOH
 70
    0
  9
$DIMSE1
 70
    0
  9
$DIMSE2
 70
    0
  9
$DIMTAD
 70
    1
  9
$DIMZIN
 70
    8
  9
$DIMBLK
  1

  9
$DIMASO
 70
    1
  9
$DIMSHO
 70
    1
  9
$DIMPOST
  1

  9
$DIMAPOST
  1

  9
$DIMALT
 70
    0
  9
$DIMALTD
 70
    3
  9
$DIMALTF
 40
0.03937
  9
$DIMLFAC
 40
1
  9
$DIMTOFL
 70
    1
  9
$DIMTVP
 40
0
  9
$DIMTIX
 70
    0
  9
$DIMSOXD
 70
    0
  9
$DIMSAH
 70
    0
  9
$DIMBLK1
  1

  9
$DIMBLK2
  1

  9
$DIMSTYLE
  2
Standard
  9
$DIMCLRD
 70
    0
  9
$DIMCLRE
 70
    0
  9
$DIMCLRT
 70
    0
  9
$DIMTFAC
 40
1
  9
$DIMGAP
 40
0.625
  9
$DIMJUST
 70
    0
  9
$DIMSD1
 70
    0
  9
$DIMSD2
 70
    0
  9
$DIMTOLJ
 70
    0
  9
$DIMTZIN
 70
    8
  9
$DIMALTZ
 70
    0
  9
$DIMALTTZ
 70
    0
  9
$DIMUPT
 70
    0
  9
$DIMDEC
 70
    2
  9
$DIMTDEC
 70
    2
  9
$DIMALTU
 70
    2
  9
$DIMALTTD
 70
    3
  9
$DIMTXSTY
  7
STANDARD
  9
$DIMAUNIT
 70
    0
  9
$DIMADEC
 70
    0
  9
$DIMALTRND
 40
0
  9
$DIMAZIN
 70
    0
  9
$DIMDSEP
 70
   44
  9
$DIMATFIT
 70
    3
  9
$DIMFRAC
 70
    0
  9
$DIMLDRBLK
  1
STANDARD
  9
$DIMLUNIT
 70
    2
  9
$DIMLWD
 70
   -2
  9
$DIMLWE
 70
   -2
  9
$DIMTMOVE
 70
    0
  9
$DIMFXL
 40
1
  9
$DIMFXLON
 70
    0
  9
$DIMJOGANG
 40
0.7854
  9
$DIMTFILL
 70
    0
  9
$DIMTFILLCLR
 70
    0
  9
$DIMARCSYM
 70
    0
  9
$DIMLTYPE
  6

  9
$DIMLTEX1
  6

  9
$DIMLTEX2
  6

  9
$LUNITS
 70
    2
  9
$LUPREC
 70
    4
  9
$SKETCHINC
 40
1
  9
$FILLETRAD
 40
0
  9
$AUNITS
 70
    0
  9
$AUPREC
 70
    2
  9
$MENU
  1
.
  9
$ELEVATION
 40
0
  9
$PELEVATION
 40
0
  9
$THICKNESS
 40
0
  9
$LIMCHECK
 70
    0
  9
$CHAMFERA
 40
0
  9
$CHAMFERB
 40
0
  9
$CHAMFERC
 40
0
  9
$CHAMFERD
 40
0
  9
$SKPOLY
 70
    0
  9
$USRTIMER
 70
    1
  9
$ANGBASE
 50
0
  9
$ANGDIR
 70
    0
  9
$PDMODE
 70
   34
  9
$PDSIZE
 40
0
  9
$PLINEWID
 40
0
  9
$SPLFRAME
 70
    1
  9
$SPLINETYPE
 70
    2
  9
$SPLINESEGS
 70
    8
  9
$HANDSEED
  5
20000
  9
$SURFTAB1
 70
    6
  9
$SURFTAB2
 70
    6
  9
$SURFTYPE
 70
    6
  9
$SURFU
 70
    6
  9
$SURFV
 70
    6
  9
$UCSBASE
  2

  9
$UCSNAME
  2

  9
$UCSORG
 10
0
 20
0
 30
0
  9
$UCSXDIR
 10
1
 20
0
 30
0
  9
$UCSYDIR
 10
0
 20
1
 30
0
  9
$UCSORTHOREF
  2

  9
$UCSORTHOVIEW
 70
    0
  9
$UCSORGTOP
 10
0
 20
0
 30
0
  9
$UCSORGBOTTOM
 10
0
 20
0
 30
0
  9
$UCSORGLEFT
 10
0
 20
0
 30
0
  9
$UCSORGRIGHT
 10
0
 20
0
 30
0
  9
$UCSORGFRONT
 10
0
 20
0
 30
0
  9
$UCSORGBACK
 10
0
 20
0
 30
0
  9
$PUCSBASE
  2

  9
$PUCSNAME
  2

  9
$PUCSORG
 10
0
 20
0
 30
0
  9
$PUCSXDIR
 10
1
 20
0
 30
0
  9
$PUCSYDIR
 10
0
 20
1
 30
0
  9
$PUCSORTHOREF
  2

  9
$PUCSORTHOVIEW
 70
    0
  9
$PUCSORGTOP
 10
0
 20
0
 30
0
  9
$PUCSORGBOTTOM
 10
0
 20
0
 30
0
  9
$PUCSORGLEFT
 10
0
 20
0
 30
0
  9
$PUCSORGRIGHT
 10
0
 20
0
 30
0
  9
$PUCSORGFRONT
 10
0
 20
0
 30
0
  9
$PUCSORGBACK
 10
0
 20
0
 30
0
  9
$USERI1
 70
    0
  9
$USERI2
 70
    0
  9
$USERI3
 70
    0
  9
$USERI4
 70
    0
  9
$USERI5
 70
    0
  9
$USERR1
 40
0
  9
$USERR2
 40
0
  9
$USERR3
 40
0
  9
$USERR4
 40
0
  9
$USERR5
 40
0
  9
$WORLDVIEW
 70
    1
  9
$SHADEDGE
 70
    3
  9
$SHADEDIF
 70
   70
  9
$TILEMODE
 70
    1
  9
$MAXACTVP
 70
   64
  9
$PINSBASE
 10
0
 20
0
 30
0
  9
$PLIMCHECK
 70
    0
  9
$PEXTMIN
 10
0
 20
0
 30
0
  9
$PEXTMAX
 10
0
 20
0
 30
0
  9
$GRIDMODE
 70
    1
  9
$SNAPSTYLE
 70
    0
  9
$PLIMMIN
 10
0
 20
0
  9
$PLIMMAX
 10
210
 20
297
  9
$UNITMODE
 70
    0
  9
$VISRETAIN
 70
    1
  9
$PLINEGEN
 70
    0
  9
$PSLTSCALE
 70
    1
  9
$TREEDEPTH
 70
 3020
  9
$CMLSTYLE
  2
Standard
  9
$CMLJUST
 70
    0
  9
$CMLSCALE
 40
20
  9
$PROXYGRAPHICS
 70
    1
  9
$MEASUREMENT
 70
    1
  9
$CELWEIGHT
370
   -1
  9
$ENDCAPS
280
    0
  9
$JOINSTYLE
280
    0
  9
$LWDISPLAY
290
    0
  9
$INSUNITS
 70
    4
  9
$HYPERLINKBASE
  1

  9
$STYLESHEET
  1

  9
$XEDIT
290
    1
  9
$CEPSNTYPE
380
    0
  9
$PSTYLEMODE
290
    1
  9
$EXTNAMES
290
    1
  9
$PSVPSCALE
 40
1
  9
$OLESTARTUP
290
    0
  9
$SORTENTS
280
  127
  9
$INDEXCTL
280
    0
  9
$HIDETEXT
280
    1
  9
$XCLIPFRAME
290
    0
  9
$HALOGAP
280
    0
  9
$OBSCOLOR
 70
  257
  9
$OBSLTYPE
280
    0
  9
$INTERSECTIONDISPLAY
280
    0
  9
$INTERSECTIONCOLOR
 70
  257
  9
$DIMASSOC
280
    1
  9
$PROJECTNAME
  1

  9
$CAMERADISPLAY
290
    0
  9
$LENSLENGTH
 40
50
  9
$CAMERAHEIGHT
 40
0
  9
$STEPSPERSEC
 40
2
  9
$STEPSIZE
 40
50
  9
$3DDWFPREC
 40
2
  9
$PSOLWIDTH
 40
5
  9
$PSOLHEIGHT
 40
80
  9
$LOFTANG1
 40
1.570796326794897
  9
$LOFTANG2
 40
1.570796326794897
  9
$LOFTMAG1
 40
0
  9
$LOFTMAG2
 40
0
  9
$LOFTPARAM
 70
    7
  9
$LOFTNORMALS
280
    1
  9
$LATITUDE
 40
1
  9
$LONGITUDE
 40
1
  9
$NORTHDIRECTION
 40
0
  9
$TIMEZONE
 70
-8000
  9
$LIGHTGLYPHDISPLAY
280
    1
  9
$TILEMODELIGHTSYNCH
280
    1
  9
$SOLIDHIST
280
    1
  9
$SHOWHIST
280
    1
  9
$DWFFRAME
280
    2
  9
$DGNFRAME
280
    0
  9
$REALWORLDSCALE
290
    1
  9
$INTERFERECOLOR
 62
    1
  9
$CSHADOW
280
    0
  9
$SHADOWPLANELOCATION
 40
0
  0
ENDSEC
  0
SECTION
  2
CLASSES
  0
ENDSEC
  0
SECTION
  2
TABLES
  0
TABLE
  2
VPORT
  5
8
330
0
100
AcDbSymbolTable
 70
    1
  0
VPORT
  5
31
330
2
100
AcDbSymbolTableRecord
100
AcDbViewportTableRecord
  2
*ACTIVE
 70
    0
 10
0
 20
0
 11
1
 21
1
 12
15.7768731862669
 22
4.317689313100757
 13
0
 23
0
 14
10
 24
10
 15
10
 25
10
 16
0
 26
0
 36
1
 17
0
 27
0
 37
0
 40
28.6388506337316
 41
1.608142493638677
 42
50
 43
0
 44
0
 50
0
 51
0
 71
    0
 72
  100
 73
    1
 74
    3
 75
    0
 76
    1
 77
    0
 78
    0
281
    0
 65
    1
110
0
120
0
130
0
111
1
121
0
131
0
112
0
122
1
132
0
 79
    0
146
0
348
10020
 60
    7
 61
    5
292
1
282
    1
141
0
142
0
 63
  250
421
3358443
  0
ENDTAB
  0
TABLE
  2
LTYPE
  5
5
330
0
100
AcDbSymbolTable
 70
    4
  0
LTYPE
  5
14
330
5
100
AcDbSymbolTableRecord
100
AcDbLinetypeTableRecord
  2
ByBlock
 70
    0
  3

 72
   65
 73
    0
 40
0
  0
LTYPE
  5
15
330
5
100
AcDbSymbolTableRecord
100
AcDbLinetypeTableRecord
  2
ByLayer
 70
    0
  3

 72
   65
 73
    0
 40
0
  0
LTYPE
  5
16
330
5
100
AcDbSymbolTableRecord
100
AcDbLinetypeTableRecord
  2
Continuous
 70
    0
  3
Solid line
 72
   65
 73
    0
 40
0
  0
LTYPE
  5
32
330
5
100
AcDbSymbolTableRecord
100
AcDbLinetypeTableRecord
  2
DOT
 70
    0
  3
Dot . . . . . . . . . . . . . . . . . . . . . .
 72
   65
 73
    2
 40
6.35
 49
0
 74
    0
 49
-6.35
 74
    0
  0
LTYPE
  5
33
330
5
100
AcDbSymbolTableRecord
100
AcDbLinetypeTableRecord
  2
DOTTINY
 70
    0
  3
Dot (.15x) .....................................
 72
   65
 73
    2
 40
0.9525
 49
0
 74
    0
 49
-0.9525
 74
    0
  0
LTYPE
  5
34
330
5
100
AcDbSymbolTableRecord
100
AcDbLinetypeTableRecord
  2
DOT2
 70
    0
  3
Dot (.5x) .....................................
 72
   65
 73
    2
 40
3.175
 49
0
 74
    0
 49
-3.175
 74
    0
  0
LTYPE
  5
35
330
5
100
AcDbSymbolTableRecord
100
AcDbLinetypeTableRecord
  2
DOTX2
 70
    0
  3
Dot (2x) .  .  .  .  .  .  .  .  .  .  .  .  .
 72
   65
 73
    2
 40
12.7
 49
0
 74
    0
 49
-12.7
 74
    0
  0
LTYPE
  5
36
330
5
100
AcDbSymbolTableRecord
100
AcDbLinetypeTableRecord
  2
DASHED
 70
    0
  3
Dashed _ _ _ _ _ _ _ _ _ _ _ _ _ _ _ _ _
 72
   65
 73
    2
 40
19.05
 49
12.7
 74
    0
 49
-6.35
 74
    0
  0
LTYPE
  5
37
330
5
100
AcDbSymbolTableRecord
100
AcDbLinetypeTableRecord
  2
DASHEDTINY
 70
    0
  3
Dashed (.15x) _ _ _ _ _ _ _ _ _ _ _ _ _ _ _ _ _
 72
   65
 73
    2
 40
2.8575
 49
1.905
 74
    0
 49
-0.9525
 74
    0
  0
LTYPE
  5
38
330
5
100
AcDbSymbolTableRecord
100
AcDbLinetypeTableRecord
  2
DASHED2
 70
    0
  3
Dashed (.5x) _ _ _ _ _ _ _ _ _ _ _ _ _ _ _ _ _
 72
   65
 73
    2
 40
9.524999999999999
 49
6.35
 74
    0
 49
-3.175
 74
    0
  0
LTYPE
  5
39
330
5
100
AcDbSymbolTableRecord
100
AcDbLinetypeTableRecord
  2
DASHEDX2
 70
    0
  3
Dashed (2x) ____  ____  ____  ____  ____  ___
 72
   65
 73
    2
 40
38.09999999999999
 49
25.4
 74
    0
 49
-12.7
 74
    0
  0
LTYPE
  5
3A
330
5
100
AcDbSymbolTableRecord
100
AcDbLinetypeTableRecord
  2
DASHDOT
 70
    0
  3
Dash dot __ . __ . __ . __ . __ . __ . __ . __
 72
   65
 73
    4
 40
25.4
 49
12.7
 74
    0
 49
-6.35
 74
    0
 49
0
 74
    0
 49
-6.35
 74
    0
  0
LTYPE
  5
3B
330
5
100
AcDbSymbolTableRecord
100
AcDbLinetypeTableRecord
  2
DASHDOTTINY
 70
    0
  3
Dash dot (.15x) _._._._._._._._._._._._._._._.
 72
   65
 73
    4
 40
3.81
 49
1.905
 74
    0
 49
-0.9525
 74
    0
 49
0
 74
    0
 49
-0.9525
 74
    0
  0
LTYPE
  5
3C
330
5
100
AcDbSymbolTableRecord
100
AcDbLinetypeTableRecord
  2
DASHDOT2
 70
    0
  3
Dash dot (.5x) _._._._._._._._._._._._._._._.
 72
   65
 73
    4
 40
12.7
 49
6.35
 74
    0
 49
-3.175
 74
    0
 49
0
 74
    0
 49
-3.175
 74
    0
  0
LTYPE
  5
3D
330
5
100
AcDbSymbolTableRecord
100
AcDbLinetypeTableRecord
  2
DASHDOTX2
 70
    0
  3
Dash dot (2x) ____  .  ____  .  ____  .  ___
 72
   65
 73
    4
 40
50.8
 49
25.4
 74
    0
 49
-12.7
 74
    0
 49
0
 74
    0
 49
-12.7
 74
    0
  0
LTYPE
  5
3E
330
5
100
AcDbSymbolTableRecord
100
AcDbLinetypeTableRecord
  2
DIVIDE
 70
    0
  3
Divide ____ . . ____ . . ____ . . ____ . . ____
 72
   65
 73
    6
 40
31.75
 49
12.7
 74
    0
 49
-6.35
 74
    0
 49
0
 74
    0
 49
-6.35
 74
    0
 49
0
 74
    0
 49
-6.35
 74
    0
  0
LTYPE
  5
3F
330
5
100
AcDbSymbolTableRecord
100
AcDbLinetypeTableRecord
  2
DIVIDETINY
 70
    0
  3
Divide (.15x) __..__..__..__..__..__..__..__.._
 72
   65
 73
    6
 40
4.7625
 49
1.905
 74
    0
 49
-0.9525
 74
    0
 49
0
 74
    0
 49
-0.9525
 74
    0
 49
0
 74
    0
 49
-0.9525
 74
    0
  0
LTYPE
  5
40
330
5
100
AcDbSymbolTableRecord
100
AcDbLinetypeTableRecord
  2
DIVIDE2
 70
    0
  3
Divide (.5x) __..__..__..__..__..__..__..__.._
 72
   65
 73
    6
 40
15.875
 49
6.35
 74
    0
 49
-3.175
 74
    0
 49
0
 74
    0
 49
-3.175
 74
    0
 49
0
 74
    0
 49
-3.175
 74
    0
  0
LTYPE
  5
41
330
5
100
AcDbSymbolTableRecord
100
AcDbLinetypeTableRecord
  2
DIVIDEX2
 70
    0
  3
Divide (2x) ________  .  .  ________  .  .  _
 72
   65
 73
    6
 40
63.5
 49
25.4
 74
    0
 49
-12.7
 74
    0
 49
0
 74
    0
 49
-12.7
 74
    0
 49
0
 74
    0
 49
-12.7
 74
    0
  0
LTYPE
  5
42
330
5
100
AcDbSymbolTableRecord
100
AcDbLinetypeTableRecord
  2
BORDER
 70
    0
  3
Border __ __ . __ __ . __ __ . __ __ . __ __ .
 72
   65
 73
    6
 40
44.45
 49
12.7
 74
    0
 49
-6.35
 74
    0
 49
12.7
 74
    0
 49
-6.35
 74
    0
 49
0
 74
    0
 49
-6.35
 74
    0
  0
LTYPE
  5
43
330
5
100
AcDbSymbolTableRecord
100
AcDbLinetypeTableRecord
  2
BORDERTINY
 70
    0
  3
Border (.15x) __.__.__.__.__.__.__.__.__.__.__.
 72
   65
 73
    6
 40
6.6675
 49
1.905
 74
    0
 49
-0.9525
 74
    0
 49
1.905
 74
    0
 49
-0.9525
 74
    0
 49
0
 74
    0
 49
-0.9525
 74
    0
  0
LTYPE
  5
44
330
5
100
AcDbSymbolTableRecord
100
AcDbLinetypeTableRecord
  2
BORDER2
 70
    0
  3
Border (.5x) __.__.__.__.__.__.__.__.__.__.__.
 72
   65
 73
    6
 40
22.225
 49
6.35
 74
    0
 49
-3.175
 74
    0
 49
6.35
 74
    0
 49
-3.175
 74
    0
 49
0
 74
    0
 49
-3.175
 74
    0
  0
LTYPE
  5
45
330
5
100
AcDbSymbolTableRecord
100
AcDbLinetypeTableRecord
  2
BORDERX2
 70
    0
  3
Border (2x) ____  ____  .  ____  ____  .  ___
 72
   65
 73
    6
 40
88.89999999999999
 49
25.4
 74
    0
 49
-12.7
 74
    0
 49
25.4
 74
    0
 49
-12.7
 74
    0
 49
0
 74
    0
 49
-12.7
 74
    0
  0
LTYPE
  5
46
330
5
100
AcDbSymbolTableRecord
100
AcDbLinetypeTableRecord
  2
CENTER
 70
    0
  3
Center ____ _ ____ _ ____ _ ____ _ ____ _ ____
 72
   65
 73
    4
 40
50.8
 49
31.75
 74
    0
 49
-6.35
 74
    0
 49
6.35
 74
    0
 49
-6.35
 74
    0
  0
LTYPE
  5
47
330
5
100
AcDbSymbolTableRecord
100
AcDbLinetypeTableRecord
  2
CENTERTINY
 70
    0
  3
Center (.15x) ___ _ ___ _ ___ _ ___ _ ___ _ ___
 72
   65
 73
    4
 40
7.619999999999999
 49
4.7625
 74
    0
 49
-0.9525
 74
    0
 49
0.9525
 74
    0
 49
-0.9525
 74
    0
  0
LTYPE
  5
48
330
5
100
AcDbSymbolTableRecord
100
AcDbLinetypeTableRecord
  2
CENTER2
 70
    0
  3
Center (.5x) ___ _ ___ _ ___ _ ___ _ ___ _ ___
 72
   65
 73
    4
 40
28.575
 49
19.05
 74
    0
 49
-3.175
 74
    0
 49
3.175
 74
    0
 49
-3.175
 74
    0
  0
LTYPE
  5
49
330
5
100
AcDbSymbolTableRecord
100
AcDbLinetypeTableRecord
  2
CENTERX2
 70
    0
  3
Center (2x) ________  __  ________  __  _____
 72
   65
 73
    4
 40
101.6
 49
63.5
 74
    0
 49
-12.7
 74
    0
 49
12.7
 74
    0
 49
-12.7
 74
    0
  0
ENDTAB
  0
TABLE
  2
LAYER
  5
2
330
0
100
AcDbSymbolTable
 70
    1
  0
LAYER
  5
10
330
2
100
AcDbSymbolTableRecord
100
AcDbLayerTableRecord
  2
0
 70
    0
 62
    7
  6
CONTINUOUS
370
   -3
390
F
  0
ENDTAB
  0
TABLE
  2
STYLE
  5
3
330
0
100
AcDbSymbolTable
 70
    3
  0
STYLE
  5
4A
330
2
100
AcDbSymbolTableRecord
100
AcDbTextStyleTableRecord
  2
Standard
 70
    0
 40
0
 41
1
 50
0
 71
    0
 42
1
  3
txt
  4

  0
ENDTAB
  0
TABLE
  2
VIEW
  5
6
330
0
100
AcDbSymbolTable
 70
    0
  0
ENDTAB
  0
TABLE
  2
UCS
  5
7
330
0
100
AcDbSymbolTable
 70
    0
  0
ENDTAB
  0
TABLE
  2
APPID
  5
9
330
0
100
AcDbSymbolTable
 70
    1
  0
APPID
  5
12
330
9
100
AcDbSymbolTableRecord
100
AcDbRegAppTableRecord
  2
ACAD
 70
    0
  0
APPID
  5
4B
330
9
100
AcDbSymbolTableRecord
100
AcDbRegAppTableRecord
  2
LibreCad
 70
    0
  0
ENDTAB
  0
TABLE
  2
DIMSTYLE
  5
A
330
0
100
AcDbSymbolTable
 70
    1
100
AcDbDimStyleTable
 71
    1
  0
DIMSTYLE
105
4C
330
A
100
AcDbSymbolTableRecord
100
AcDbDimStyleTableRecord
  2
Standard
 70
    0
 40
2.5
 41
2.5
 42
0.625
 43
0.38
 44
1.25
 45
0
 46
0
 47
0
 48
0
 49
1
140
2.5
141
0.09
142
0
143
25.4
144
1
145
0
146
1
147
0.625
148
0
 71
    0
 72
    0
 73
    0
 74
    1
 75
    0
 76
    0
 77
    0
 78
    8
 79
    0
170
    0
171
    2
172
    0
173
    0
174
    0
175
    0
176
    0
177
    0
178
    0
179
    0
271
    2
272
    4
273
    2
274
    2
275
    0
276
    0
277
    2
278
   44
279
    0
280
    0
281
    0
282
    0
283
    1
284
    0
285
    0
286
    0
288
    0
289
    3
340
STANDARD
341

371
   -2
372
   -2
  0
ENDTAB
  0
TABLE
  2
BLOCK_RECORD
  5
1
330
0
100
AcDbSymbolTable
 70
    2
  0
BLOCK_RECORD
  5
1F
330
1
100
AcDbSymbolTableRecord
100
AcDbBlockTableRecord
  2
*Model_Space
 70
    0
280
    1
281
    0
  0
BLOCK_RECORD
  5
1E
330
1
100
AcDbSymbolTableRecord
100
AcDbBlockTableRecord
  2
*Paper_Space
 70
    0
280
    1
281
    0
  0
BLOCK_RECORD
  5
4D
330
1
100
AcDbSymbolTableRecord
100
AcDbBlockTableRecord
  2
enerlink
 70
    0
280
    1
281
    0
  0
ENDTAB
  0
ENDSEC
  0
SECTION
  2
BLOCKS
  0
BLOCK
  5
20
330
1F
100
AcDbEntity
  8
0
100
AcDbBlockBegin
  2
*Model_Space
 70
    0
 10
0
 20
0
 30
0
  3
*Model_Space
  1

  0
ENDBLK
  5
21
330
1F
100
AcDbEntity
  8
0
100
AcDbBlockEnd
  0
BLOCK
  5
1C
330
1B
100
AcDbEntity
  8
0
100
AcDbBlockBegin
  2
*Paper_Space
 70
    0
 10
0
 20
0
 30
0
  3
*Paper_Space
  1

  0
ENDBLK
  5
1D
330
1F
100
AcDbEntity
  8
0
100
AcDbBlockEnd
  0
BLOCK
  5
4E
330
4D
100
AcDbEntity
  8
0
100
AcDbBlockBegin
  2
enerlink
 70
    0
 10
0
 20
0
  3
enerlink
  1

  0
HATCH
  5
50
100
AcDbEntity
  8
0
  6
ByLayer
 62
    3
370
   -1
100
AcDbHatch
 10
0
 20
0
 30
0
210
0
220
0
230
1
  2
SOLID
 70
    1
 71
    0
 91
    1
 92
    0
 93
   25
 72
    1
 10
9.088699999999999
 20
-1.4661
 11
9.088699999999999
 21
-3.999294704
 72
    1
 10
9.088699999999999
 20
-3.999294704
 11
9.2502
 21
-3.999294704
 72
    1
 10
9.2502
 20
-3.999294704
 11
9.2502
 21
-3.165636
 72
    1
 10
9.2502
 20
-3.165636
 11
9.418200000000001
 21
-3.013781
 72
    1
 10
9.418200000000001
 20
-3.013781
 11
9.424099999999999
 21
-3.008356
 72
    1
 10
9.424099999999999
 20
-3.008356
 11
9.4499
 21
-3.001031
 72
    1
 10
9.4499
 20
-3.001031
 11
9.490500000000001
 21
-3.011339
 72
    1
 10
9.490500000000001
 20
-3.011339
 11
9.537699999999999
 21
-3.04465
 72
    1
 10
9.537699999999999
 20
-3.04465
 11
9.5776
 21
-3.085992
 72
    1
 10
9.5776
 20
-3.085992
 11
9.589499999999999
 21
-3.101019
 72
    1
 10
9.589499999999999
 20
-3.101019
 11
10.2744
 21
-3.999294704
 72
    1
 10
10.2744
 20
-3.999294704
 11
10.4941
 21
-3.999294704
 72
    1
 10
10.4941
 20
-3.999294704
 11
9.709
 21
-2.96213
 72
    1
 10
9.709
 20
-2.96213
 11
9.699299999999999
 21
-2.94971
 72
    1
 10
9.699299999999999
 20
-2.94971
 11
9.667999999999999
 21
-2.91417
 72
    1
 10
9.667999999999999
 20
-2.91417
 11
9.6327
 21
-2.88173
 72
    1
 10
9.6327
 20
-2.88173
 11
9.604100000000001
 21
-2.86437
 72
    1
 10
9.604100000000001
 20
-2.86437
 11
9.5877
 21
-2.86057
 72
    1
 10
9.5877
 20
-2.86057
 11
9.583
 21
-2.86193
 72
    1
 10
9.583
 20
-2.86193
 11
10.3843
 21
-2.13172
 72
    1
 10
10.3843
 20
-2.13172
 11
10.1388
 21
-2.13172
 72
    1
 10
10.1388
 20
-2.13172
 11
9.2502
 21
-2.95888
 72
    1
 10
9.2502
 20
-2.95888
 11
9.2502
 21
-1.4661
 72
    1
 10
9.2502
 20
-1.4661
 11
9.088699999999999
 21
-1.4661
 72
    1
 10
9.088699999999999
 20
-1.4661
 11
9.088699999999999
 21
-1.4661
 97
    0
 75
    0
 76
    1
 98
    0
  0
HATCH
  5
51
100
AcDbEntity
  8
0
  6
ByLayer
 62
    3
370
   -1
100
AcDbHatch
 10
0
 20
0
 30
0
210
0
220
0
230
1
  2
SOLID
 70
    1
 71
    0
 91
    1
 92
    0
 93
   47
 72
    1
 10
7.95215
 20
-2.13172
 11
7.91878
 21
-2.13172
 72
    1
 10
7.91878
 20
-2.13172
 11
7.818849999999999
 21
-2.14632
 72
    1
 10
7.818849999999999
 20
-2.14632
 11
7.694559999999999
 21
-2.18832
 72
    1
 10
7.694559999999999
 20
-2.18832
 11
7.582079999999999
 21
-2.25456
 72
    1
 10
7.582079999999999
 20
-2.25456
 11
7.484
 21
-2.34213
 72
    1
 10
7.484
 20
-2.34213
 11
7.403
 21
-2.44803
 72
    1
 10
7.403
 20
-2.44803
 11
7.341850000000001
 21
-2.56922
 72
    1
 10
7.341850000000001
 20
-2.56922
 11
7.30317
 21
-2.70285
 72
    1
 10
7.30317
 20
-2.70285
 11
7.289709999999999
 21
-2.81006
 72
    1
 10
7.289709999999999
 20
-2.81006
 11
7.289709999999999
 21
-2.84581
 72
    1
 10
7.289709999999999
 20
-2.84581
 11
7.289709999999999
 21
-3.999294704
 72
    1
 10
7.289709999999999
 20
-3.999294704
 11
7.451280000000001
 21
-3.999294704
 72
    1
 10
7.451280000000001
 20
-3.999294704
 11
7.451280000000001
 21
-2.84581
 72
    1
 10
7.451280000000001
 20
-2.84581
 11
7.451280000000001
 21
-2.81809
 72
    1
 10
7.451280000000001
 20
-2.81809
 11
7.46153
 21
-2.73497
 72
    1
 10
7.46153
 20
-2.73497
 11
7.49094
 21
-2.63178
 72
    1
 10
7.49094
 20
-2.63178
 11
7.53749
 21
-2.53847
 72
    1
 10
7.53749
 20
-2.53847
 11
7.599069999999999
 21
-2.45719
 72
    1
 10
7.599069999999999
 20
-2.45719
 11
7.673719999999999
 21
-2.39019
 72
    1
 10
7.673719999999999
 20
-2.39019
 11
7.75933
 21
-2.33957
 72
    1
 10
7.75933
 20
-2.33957
 11
7.85389
 21
-2.30761
 72
    1
 10
7.85389
 20
-2.30761
 11
7.929959999999999
 21
-2.2965
 72
    1
 10
7.929959999999999
 20
-2.2965
 11
7.955349999999999
 21
-2.2965
 72
    1
 10
7.955349999999999
 20
-2.2965
 11
7.98068
 21
-2.2965
 72
    1
 10
7.98068
 20
-2.2965
 11
8.056749999999999
 21
-2.30761
 72
    1
 10
8.056749999999999
 20
-2.30761
 11
8.15132
 21
-2.33957
 72
    1
 10
8.15132
 20
-2.33957
 11
8.236929999999999
 21
-2.39019
 72
    1
 10
8.236929999999999
 20
-2.39019
 11
8.311579999999999
 21
-2.45719
 72
    1
 10
8.311579999999999
 20
-2.45719
 11
8.373150000000001
 21
-2.53847
 72
    1
 10
8.373150000000001
 20
-2.53847
 11
8.41971
 21
-2.63178
 72
    1
 10
8.41971
 20
-2.63178
 11
8.449109999999999
 21
-2.73497
 72
    1
 10
8.449109999999999
 20
-2.73497
 11
8.45942
 21
-2.81809
 72
    1
 10
8.45942
 20
-2.81809
 11
8.45942
 21
-2.84581
 72
    1
 10
8.45942
 20
-2.84581
 11
8.45942
 21
-3.999294704
 72
    1
 10
8.45942
 20
-3.999294704
 11
8.61453
 21
-3.999294704
 72
    1
 10
8.61453
 20
-3.999294704
 11
8.61453
 21
-2.84581
 72
    1
 10
8.61453
 20
-2.84581
 11
8.61453
 21
-2.81006
 72
    1
 10
8.61453
 20
-2.81006
 11
8.60101
 21
-2.70285
 72
    1
 10
8.60101
 20
-2.70285
 11
8.562329999999999
 21
-2.56922
 72
    1
 10
8.562329999999999
 20
-2.56922
 11
8.501189999999999
 21
-2.44803
 72
    1
 10
8.501189999999999
 20
-2.44803
 11
8.42019
 21
-2.34213
 72
    1
 10
8.42019
 20
-2.34213
 11
8.322150000000001
 21
-2.25456
 72
    1
 10
8.322150000000001
 20
-2.25456
 11
8.20964
 21
-2.18832
 72
    1
 10
8.20964
 20
-2.18832
 11
8.08539
 21
-2.14632
 72
    1
 10
8.08539
 20
-2.14632
 11
7.98546
 21
-2.13172
 72
    1
 10
7.98546
 20
-2.13172
 11
7.95215
 21
-2.13172
 72
    1
 10
7.95215
 20
-2.13172
 11
7.95215
 21
-2.13172
 97
    0
 75
    0
 76
    1
 98
    0
  0
HATCH
  5
52
100
AcDbEntity
  8
0
  6
ByLayer
 62
    3
370
   -1
100
AcDbHatch
 10
0
 20
0
 30
0
210
0
220
0
230
1
  2
SOLID
 70
    1
 71
    0
 91
    1
 92
    0
 93
  111
 72
    1
 10
3.39681
 20
-2.91043
 11
3.37061
 21
-2.91043
 72
    1
 10
3.37061
 20
-2.91043
 11
3.36735
 21
-3.068739
 72
    1
 10
3.36735
 20
-3.068739
 11
3.40229
 21
-3.068739
 72
    1
 10
3.40229
 20
-3.068739
 11
3.50711
 21
-3.059571
 72
    1
 10
3.50711
 20
-3.059571
 11
3.63439
 21
-3.03304
 72
    1
 10
3.63439
 20
-3.03304
 11
3.74735
 21
-2.99051
 72
    1
 10
3.74735
 20
-2.99051
 11
3.84397
 21
-2.93338
 72
    1
 10
3.84397
 20
-2.93338
 11
3.92242
 21
-2.86312
 72
    1
 10
3.92242
 20
-2.86312
 11
3.98079
 21
-2.78109
 72
    1
 10
3.98079
 20
-2.78109
 11
4.01719
 21
-2.68864
 72
    1
 10
4.01719
 20
-2.68864
 11
4.02979
 21
-2.61263
 72
    1
 10
4.02979
 20
-2.61263
 11
4.02979
 21
-2.58729
 72
    1
 10
4.02979
 20
-2.58729
 11
4.02979
 21
-2.56407
 72
    1
 10
4.02979
 20
-2.56407
 11
4.01921
 21
-2.49442
 72
    1
 10
4.01921
 20
-2.49442
 11
3.98833
 21
-2.40842
 72
    1
 10
3.98833
 20
-2.40842
 11
3.93842
 21
-2.33094
 72
    1
 10
3.93842
 20
-2.33094
 11
3.87061
 21
-2.26378
 72
    1
 10
3.87061
 20
-2.26378
 11
3.78614
 21
-2.20856
 72
    1
 10
3.78614
 20
-2.20856
 11
3.68625
 21
-2.16699
 72
    1
 10
3.68625
 20
-2.16699
 11
3.5721
 21
-2.14079
 72
    1
 10
3.5721
 20
-2.14079
 11
3.47672
 21
-2.13172
 72
    1
 10
3.47672
 20
-2.13172
 11
3.44493
 21
-2.13172
 72
    1
 10
3.44493
 20
-2.13172
 11
3.44493
 21
-2.13172
 72
    1
 10
3.44493
 20
-2.13172
 11
3.40522
 21
-2.13172
 72
    1
 10
3.40522
 20
-2.13172
 11
3.28608
 21
-2.15142
 72
    1
 10
3.28608
 20
-2.15142
 11
3.13872
 21
-2.20763
 72
    1
 10
3.13872
 20
-2.20763
 11
3.00581
 21
-2.29596
 72
    1
 10
3.00581
 20
-2.29596
 11
2.89035
 21
-2.412
 72
    1
 10
2.89035
 20
-2.412
 11
2.79536
 21
-2.55137
 72
    1
 10
2.79536
 20
-2.55137
 11
2.72379
 21
-2.70963
 72
    1
 10
2.72379
 20
-2.70963
 11
2.67865
 21
-2.88249
 72
    1
 10
2.67865
 20
-2.88249
 11
2.66297
 21
-3.019694
 72
    1
 10
2.66297
 20
-3.019694
 11
2.66297
 21
-3.065483
 72
    1
 10
2.66297
 20
-3.065483
 11
2.66297
 21
-3.115126
 72
    1
 10
2.66297
 20
-3.115126
 11
2.67947
 21
-3.264214
 72
    1
 10
2.67947
 20
-3.264214
 11
2.72651
 21
-3.444499
 72
    1
 10
2.72651
 20
-3.444499
 11
2.80046
 21
-3.603732
 72
    1
 10
2.80046
 20
-3.603732
 11
2.89762
 21
-3.739583
 72
    1
 10
2.89762
 20
-3.739583
 11
3.01432
 21
-3.849501
 72
    1
 10
3.01432
 20
-3.849501
 11
3.14686
 21
-3.9310439
 72
    1
 10
3.14686
 20
-3.9310439
 11
3.29161
 21
-3.9818251
 72
    1
 10
3.29161
 20
-3.9818251
 11
3.40657
 21
-3.999294704
 72
    1
 10
3.40657
 20
-3.999294704
 11
3.44493
 21
-3.999294704
 72
    1
 10
3.44493
 20
-3.999294704
 11
3.49729
 21
-3.999294704
 72
    1
 10
3.49729
 20
-3.999294704
 11
3.65446
 21
-3.9752604
 72
    1
 10
3.65446
 20
-3.9752604
 11
3.82015
 21
-3.9087999
 72
    1
 10
3.82015
 20
-3.9087999
 11
3.95242
 21
-3.808431
 72
    1
 10
3.95242
 20
-3.808431
 11
4.03711
 21
-3.715929
 72
    1
 10
4.03711
 20
-3.715929
 11
4.06207
 21
-3.682671
 72
    1
 10
4.06207
 20
-3.682671
 11
3.93283
 21
-3.585721
 72
    1
 10
3.93283
 20
-3.585721
 11
3.90918
 21
-3.617621
 72
    1
 10
3.90918
 20
-3.617621
 11
3.82568
 21
-3.704101
 72
    1
 10
3.82568
 20
-3.704101
 11
3.71067
 21
-3.781956
 72
    1
 10
3.71067
 20
-3.781956
 11
3.58475
 21
-3.824653
 72
    1
 10
3.58475
 20
-3.824653
 11
3.47987
 21
-3.837728
 72
    1
 10
3.47987
 20
-3.837728
 11
3.44493
 21
-3.837728
 72
    1
 10
3.44493
 20
-3.837728
 11
3.41374
 21
-3.837728
 72
    1
 10
3.41374
 20
-3.837728
 11
3.32021
 21
-3.821724
 72
    1
 10
3.32021
 20
-3.821724
 11
3.20449
 21
-3.77691
 72
    1
 10
3.20449
 20
-3.77691
 11
3.10015
 21
-3.708225
 72
    1
 10
3.10015
 20
-3.708225
 11
3.0095
 21
-3.620443
 72
    1
 10
3.0095
 20
-3.620443
 11
2.9349
 21
-3.518392
 72
    1
 10
2.9349
 20
-3.518392
 11
2.87875
 21
-3.406956
 72
    1
 10
2.87875
 20
-3.406956
 11
2.84332
 21
-3.291015
 72
    1
 10
2.84332
 20
-3.291015
 11
2.831
 21
-3.204264
 72
    1
 10
2.831
 20
-3.204264
 11
2.831
 21
-3.175347
 72
    1
 10
2.831
 20
-3.175347
 11
2.831
 21
-3.163683
 72
    1
 10
2.831
 20
-3.163683
 11
2.83789
 21
-3.128689
 72
    1
 10
2.83789
 20
-3.128689
 11
2.85726
 21
-3.095378
 72
    1
 10
2.85726
 20
-3.095378
 11
2.88688
 21
-3.075358
 72
    1
 10
2.88688
 20
-3.075358
 11
2.91521
 21
-3.068739
 72
    1
 10
2.91521
 20
-3.068739
 11
2.92469
 21
-3.068739
 72
    1
 10
2.92469
 20
-3.068739
 11
3.36735
 21
-3.068739
 72
    1
 10
3.36735
 20
-3.068739
 11
3.37061
 21
-2.91043
 72
    1
 10
3.37061
 20
-2.91043
 11
2.93115
 21
-2.91043
 72
    1
 10
2.93115
 20
-2.91043
 11
2.93115
 21
-2.91043
 72
    1
 10
2.93115
 20
-2.91043
 11
2.92242
 21
-2.91064
 72
    1
 10
2.92242
 20
-2.91064
 11
2.90001
 21
-2.91243
 72
    1
 10
2.90001
 20
-2.91243
 11
2.86979
 21
-2.91721
 72
    1
 10
2.86979
 20
-2.91721
 11
2.84526
 21
-2.9235
 72
    1
 10
2.84526
 20
-2.9235
 11
2.83746
 21
-2.92654
 72
    1
 10
2.83746
 20
-2.92654
 11
2.84244
 21
-2.89361
 72
    1
 10
2.84244
 20
-2.89361
 11
2.86697
 21
-2.79633
 72
    1
 10
2.86697
 20
-2.79633
 11
2.91325
 21
-2.67627
 72
    1
 10
2.91325
 20
-2.67627
 11
2.97456
 21
-2.56853
 72
    1
 10
2.97456
 20
-2.56853
 11
3.0491
 21
-2.47537
 72
    1
 10
3.0491
 20
-2.47537
 11
3.13514
 21
-2.39903
 72
    1
 10
3.13514
 20
-2.39903
 11
3.23096
 21
-2.34174
 72
    1
 10
3.23096
 20
-2.34174
 11
3.33479
 21
-2.30572
 72
    1
 10
3.33479
 20
-2.30572
 11
3.41737
 21
-2.29324
 72
    1
 10
3.41737
 20
-2.29324
 11
3.44493
 21
-2.29324
 72
    1
 10
3.44493
 20
-2.29324
 11
3.44493
 21
-2.29324
 72
    1
 10
3.44493
 20
-2.29324
 11
3.47032
 21
-2.29324
 72
    1
 10
3.47032
 20
-2.29324
 11
3.5466
 21
-2.30013
 72
    1
 10
3.5466
 20
-2.30013
 11
3.63374
 21
-2.31961
 72
    1
 10
3.63374
 20
-2.31961
 11
3.70665
 21
-2.34961
 72
    1
 10
3.70665
 20
-2.34961
 11
3.76563
 21
-2.38812
 72
    1
 10
3.76563
 20
-2.38812
 11
3.81093
 21
-2.43315
 72
    1
 10
3.81093
 20
-2.43315
 11
3.84293
 21
-2.48269
 72
    1
 10
3.84293
 20
-2.48269
 11
3.86193
 21
-2.53472
 72
    1
 10
3.86193
 20
-2.53472
 11
3.86822
 21
-2.57411
 72
    1
 10
3.86822
 20
-2.57411
 11
3.86822
 21
-2.58729
 72
    1
 10
3.86822
 20
-2.58729
 11
3.86822
 21
-2.60417
 72
    1
 10
3.86822
 20
-2.60417
 11
3.85872
 21
-2.65495
 72
    1
 10
3.85872
 20
-2.65495
 11
3.83132
 21
-2.7168
 72
    1
 10
3.83132
 20
-2.7168
 11
3.78743
 21
-2.77186
 72
    1
 10
3.78743
 20
-2.77186
 11
3.72846
 21
-2.81912
 72
    1
 10
3.72846
 20
-2.81912
 11
3.65582
 21
-2.85758
 72
    1
 10
3.65582
 20
-2.85758
 11
3.57101
 21
-2.88628
 72
    1
 10
3.57101
 20
-2.88628
 11
3.47547
 21
-2.90419
 72
    1
 10
3.47547
 20
-2.90419
 11
3.39681
 21
-2.91043
 97
    0
 75
    0
 76
    1
 98
    0
  0
HATCH
  5
53
100
AcDbEntity
  8
0
  6
ByLayer
 62
    3
370
   -1
100
AcDbHatch
 10
0
 20
0
 30
0
210
0
220
0
230
1
  2
SOLID
 70
    1
 71
    0
 91
    1
 92
    0
 93
   25
 72
    1
 10
6.64492
 20
-1.48546
 11
6.63232
 21
-1.48546
 72
    1
 10
6.63232
 20
-1.48546
 11
6.59472
 21
-1.49561
 72
    1
 10
6.59472
 20
-1.49561
 11
6.5536
 21
-1.52339
 72
    1
 10
6.5536
 20
-1.52339
 11
6.52582
 21
-1.56451
 72
    1
 10
6.52582
 20
-1.56451
 11
6.51568
 21
-1.60211
 72
    1
 10
6.51568
 20
-1.60211
 11
6.51568
 21
-1.61469
 72
    1
 10
6.51568
 20
-1.61469
 11
6.51568
 21
-1.62722
 72
    1
 10
6.51568
 20
-1.62722
 11
6.52582
 21
-1.66488
 72
    1
 10
6.52582
 20
-1.66488
 11
6.5536
 21
-1.70594
 72
    1
 10
6.5536
 20
-1.70594
 11
6.59472
 21
-1.73372
 72
    1
 10
6.59472
 20
-1.73372
 11
6.63232
 21
-1.74392
 72
    1
 10
6.63232
 20
-1.74392
 11
6.64492
 21
-1.74392
 72
    1
 10
6.64492
 20
-1.74392
 11
6.65744
 21
-1.74392
 72
    1
 10
6.65744
 20
-1.74392
 11
6.6951
 21
-1.73372
 72
    1
 10
6.6951
 20
-1.73372
 11
6.73617
 21
-1.70594
 72
    1
 10
6.73617
 20
-1.70594
 11
6.76394
 21
-1.66488
 72
    1
 10
6.76394
 20
-1.66488
 11
6.77419
 21
-1.62722
 72
    1
 10
6.77419
 20
-1.62722
 11
6.77419
 21
-1.61469
 72
    1
 10
6.77419
 20
-1.61469
 11
6.77419
 21
-1.60211
 72
    1
 10
6.77419
 20
-1.60211
 11
6.76394
 21
-1.56451
 72
    1
 10
6.76394
 20
-1.56451
 11
6.73617
 21
-1.52339
 72
    1
 10
6.73617
 20
-1.52339
 11
6.6951
 21
-1.49561
 72
    1
 10
6.6951
 20
-1.49561
 11
6.65744
 21
-1.48546
 72
    1
 10
6.65744
 20
-1.48546
 11
6.64492
 21
-1.48546
 72
    1
 10
6.64492
 20
-1.48546
 11
6.64492
 21
-1.48546
 97
    0
 75
    0
 76
    1
 98
    0
  0
HATCH
  5
54
100
AcDbEntity
  8
0
  6
ByLayer
 62
    3
370
   -1
100
AcDbHatch
 10
0
 20
0
 30
0
210
0
220
0
230
1
  2
SOLID
 70
    1
 71
    0
 91
    1
 92
    0
 93
    5
 72
    1
 10
6.56413
 20
-2.13172
 11
6.72569
 21
-2.13172
 72
    1
 10
6.72569
 20
-2.13172
 11
6.72569
 21
-3.999294704
 72
    1
 10
6.72569
 20
-3.999294704
 11
6.56413
 21
-3.999294704
 72
    1
 10
6.56413
 20
-3.999294704
 11
6.56413
 21
-2.13172
 72
    1
 10
6.56413
 20
-2.13172
 11
6.56413
 21
-2.13172
 97
    0
 75
    0
 76
    1
 98
    0
  0
HATCH
  5
55
100
AcDbEntity
  8
0
  6
ByLayer
 62
    3
370
   -1
100
AcDbHatch
 10
0
 20
0
 30
0
210
0
220
0
230
1
  2
SOLID
 70
    1
 71
    0
 91
    1
 92
    0
 93
    5
 72
    1
 10
5.67449
 20
-1.4661
 11
5.83604
 21
-1.4661
 72
    1
 10
5.83604
 20
-1.4661
 11
5.83604
 21
-3.999294704
 72
    1
 10
5.83604
 20
-3.999294704
 11
5.67449
 21
-3.999294704
 72
    1
 10
5.67449
 20
-3.999294704
 11
5.67449
 21
-1.4661
 72
    1
 10
5.67449
 20
-1.4661
 11
5.67449
 21
-1.4661
 97
    0
 75
    0
 76
    1
 98
    0
  0
HATCH
  5
56
100
AcDbEntity
  8
0
  6
ByLayer
 62
    3
370
   -1
100
AcDbHatch
 10
0
 20
0
 30
0
210
0
220
0
230
1
  2
SOLID
 70
    1
 71
    0
 91
    1
 92
    0
 93
   25
 72
    1
 10
5.12164
 20
-2.13172
 11
5.08826
 21
-2.13172
 72
    1
 10
5.08826
 20
-2.13172
 11
4.98817
 21
-2.14632
 72
    1
 10
4.98817
 20
-2.14632
 11
4.86356
 21
-2.18826
 72
    1
 10
4.86356
 20
-2.18826
 11
4.75054
 21
-2.25439
 72
    1
 10
4.75054
 20
-2.25439
 11
4.65192
 21
-2.34169
 72
    1
 10
4.65192
 20
-2.34169
 11
4.57036
 21
-2.44721
 72
    1
 10
4.57036
 20
-2.44721
 11
4.50868
 21
-2.56788
 72
    1
 10
4.50868
 20
-2.56788
 11
4.46967
 21
-2.70068
 72
    1
 10
4.46967
 20
-2.70068
 11
4.45606
 21
-2.80707
 72
    1
 10
4.45606
 20
-2.80707
 11
4.45606
 21
-2.84256
 72
    1
 10
4.45606
 20
-2.84256
 11
4.45606
 21
-3.999294704
 72
    1
 10
4.45606
 20
-3.999294704
 11
4.61757
 21
-3.999294704
 72
    1
 10
4.61757
 20
-3.999294704
 11
4.61757
 21
-2.84256
 72
    1
 10
4.61757
 20
-2.84256
 11
4.61757
 21
-2.81483
 72
    1
 10
4.61757
 20
-2.81483
 11
4.62782
 21
-2.73172
 72
    1
 10
4.62782
 20
-2.73172
 11
4.65722
 21
-2.62858
 72
    1
 10
4.65722
 20
-2.62858
 11
4.70378
 21
-2.53526
 72
    1
 10
4.70378
 20
-2.53526
 11
4.76535
 21
-2.45399
 72
    1
 10
4.76535
 20
-2.45399
 11
4.84
 21
-2.38693
 72
    1
 10
4.84
 20
-2.38693
 11
4.92562
 21
-2.33632
 72
    1
 10
4.92562
 20
-2.33632
 11
5.02018
 21
-2.30436
 72
    1
 10
5.02018
 20
-2.30436
 11
5.09625
 21
-2.29324
 72
    1
 10
5.09625
 20
-2.29324
 11
5.12164
 21
-2.29324
 72
    1
 10
5.12164
 20
-2.29324
 11
5.12164
 21
-2.13172
 72
    1
 10
5.12164
 20
-2.13172
 11
5.12164
 21
-2.13172
 97
    0
 75
    0
 76
    1
 98
    0
  0
HATCH
  5
57
100
AcDbEntity
  8
0
  6
ByLayer
 62
    3
370
   -1
100
AcDbHatch
 10
0
 20
0
 30
0
210
0
220
0
230
1
  2
SOLID
 70
    1
 71
    0
 91
    1
 92
    0
 93
   47
 72
    1
 10
1.60975
 20
-2.13172
 11
1.57639
 21
-2.13172
 72
    1
 10
1.57639
 20
-2.13172
 11
1.47646
 21
-2.14632
 72
    1
 10
1.47646
 20
-2.14632
 11
1.35221
 21
-2.18832
 72
    1
 10
1.35221
 20
-2.18832
 11
1.23969
 21
-2.25456
 72
    1
 10
1.23969
 20
-2.25456
 11
1.1416
 21
-2.34213
 72
    1
 10
1.1416
 20
-2.34213
 11
1.06065
 21
-2.44803
 72
    1
 10
1.06065
 20
-2.44803
 11
0.9995099999999999
 21
-2.56922
 72
    1
 10
0.9995099999999999
 20
-2.56922
 11
0.9608300000000001
 21
-2.70285
 72
    1
 10
0.9608300000000001
 20
-2.70285
 11
0.94737
 21
-2.81006
 72
    1
 10
0.94737
 20
-2.81006
 11
0.94737
 21
-2.84581
 72
    1
 10
0.94737
 20
-2.84581
 11
0.94737
 21
-3.999294704
 72
    1
 10
0.94737
 20
-3.999294704
 11
1.10889
 21
-3.999294704
 72
    1
 10
1.10889
 20
-3.999294704
 11
1.10889
 21
-2.84581
 72
    1
 10
1.10889
 20
-2.84581
 11
1.10889
 21
-2.81809
 72
    1
 10
1.10889
 20
-2.81809
 11
1.11914
 21
-2.73497
 72
    1
 10
1.11914
 20
-2.73497
 11
1.14854
 21
-2.63178
 72
    1
 10
1.14854
 20
-2.63178
 11
1.1951
 21
-2.53847
 72
    1
 10
1.1951
 20
-2.53847
 11
1.25672
 21
-2.45719
 72
    1
 10
1.25672
 20
-2.45719
 11
1.33132
 21
-2.39019
 72
    1
 10
1.33132
 20
-2.39019
 11
1.41694
 21
-2.33957
 72
    1
 10
1.41694
 20
-2.33957
 11
1.5115
 21
-2.30761
 72
    1
 10
1.5115
 20
-2.30761
 11
1.58757
 21
-2.2965
 72
    1
 10
1.58757
 20
-2.2965
 11
1.61296
 21
-2.2965
 72
    1
 10
1.61296
 20
-2.2965
 11
1.63829
 21
-2.2965
 72
    1
 10
1.63829
 20
-2.2965
 11
1.71436
 21
-2.30761
 72
    1
 10
1.71436
 20
-2.30761
 11
1.80892
 21
-2.33957
 72
    1
 10
1.80892
 20
-2.33957
 11
1.89453
 21
-2.39019
 72
    1
 10
1.89453
 20
-2.39019
 11
1.96918
 21
-2.45719
 72
    1
 10
1.96918
 20
-2.45719
 11
2.03076
 21
-2.53847
 72
    1
 10
2.03076
 20
-2.53847
 11
2.07731
 21
-2.63178
 72
    1
 10
2.07731
 20
-2.63178
 11
2.10672
 21
-2.73497
 72
    1
 10
2.10672
 20
-2.73497
 11
2.11703
 21
-2.81809
 72
    1
 10
2.11703
 20
-2.81809
 11
2.11703
 21
-2.84581
 72
    1
 10
2.11703
 20
-2.84581
 11
2.11703
 21
-3.999294704
 72
    1
 10
2.11703
 20
-3.999294704
 11
2.27214
 21
-3.999294704
 72
    1
 10
2.27214
 20
-3.999294704
 11
2.27214
 21
-2.84581
 72
    1
 10
2.27214
 20
-2.84581
 11
2.27214
 21
-2.81006
 72
    1
 10
2.27214
 20
-2.81006
 11
2.25863
 21
-2.70285
 72
    1
 10
2.25863
 20
-2.70285
 11
2.21994
 21
-2.56922
 72
    1
 10
2.21994
 20
-2.56922
 11
2.15881
 21
-2.44803
 72
    1
 10
2.15881
 20
-2.44803
 11
2.07785
 21
-2.34213
 72
    1
 10
2.07785
 20
-2.34213
 11
1.97976
 21
-2.25456
 72
    1
 10
1.97976
 20
-2.25456
 11
1.86724
 21
-2.18832
 72
    1
 10
1.86724
 20
-2.18832
 11
1.743
 21
-2.14632
 72
    1
 10
1.743
 20
-2.14632
 11
1.64307
 21
-2.13172
 72
    1
 10
1.64307
 20
-2.13172
 11
1.60975
 21
-2.13172
 72
    1
 10
1.60975
 20
-2.13172
 11
1.60975
 21
-2.13172
 97
    0
 75
    0
 76
    1
 98
    0
  0
HATCH
  5
58
100
AcDbEntity
  8
0
  6
ByLayer
 62
    3
370
   -1
100
AcDbHatch
 10
0
 20
0
 30
0
210
0
220
0
230
1
  2
SOLID
 70
    1
 71
    0
 91
    1
 92
    0
 93
   29
 72
    1
 10
-0.999294704
 20
-1.4661
 11
-0.999294704
 21
-3.999294704
 72
    1
 10
-0.999294704
 20
-3.999294704
 11
0.5128600000000001
 21
-3.999294704
 72
    1
 10
0.5128600000000001
 20
-3.999294704
 11
0.5128600000000001
 21
-3.837728
 72
    1
 10
0.5128600000000001
 20
-3.837728
 11
-0.834526
 21
-3.837728
 72
    1
 10
-0.834526
 20
-3.837728
 11
-0.834526
 21
-2.84581
 72
    1
 10
-0.834526
 20
-2.84581
 11
-0.834526
 21
-2.84234
 72
    1
 10
-0.834526
 20
-2.84234
 11
-0.833658
 21
-2.83203
 72
    1
 10
-0.833658
 20
-2.83203
 11
-0.830186
 21
-2.81597
 72
    1
 10
-0.830186
 20
-2.81597
 11
-0.823296
 21
-2.79888
 72
    1
 10
-0.823296
 20
-2.79888
 11
-0.811903
 21
-2.78196
 72
    1
 10
-0.811903
 20
-2.78196
 11
-0.795085
 21
-2.76655
 72
    1
 10
-0.795085
 20
-2.76655
 11
-0.771864
 21
-2.75402
 72
    1
 10
-0.771864
 20
-2.75402
 11
-0.7411570000000001
 21
-2.7455
 72
    1
 10
-0.7411570000000001
 20
-2.7455
 11
-0.7118599999999999
 21
-2.7424
 72
    1
 10
-0.7118599999999999
 20
-2.7424
 11
-0.70204
 21
-2.7424
 72
    1
 10
-0.70204
 20
-2.7424
 11
0.5096499999999999
 21
-2.7424
 72
    1
 10
0.5096499999999999
 20
-2.7424
 11
0.5096499999999999
 21
-2.58083
 72
    1
 10
0.5096499999999999
 20
-2.58083
 11
-0.70204
 21
-2.58083
 72
    1
 10
-0.70204
 20
-2.58083
 11
-0.713867
 21
-2.58083
 72
    1
 10
-0.713867
 20
-2.58083
 11
-0.749186
 21
-2.58208
 72
    1
 10
-0.749186
 20
-2.58208
 11
-0.783257
 21
-2.58604
 72
    1
 10
-0.783257
 20
-2.58604
 11
-0.810656
 21
-2.5931
 72
    1
 10
-0.810656
 20
-2.5931
 11
-0.831054
 21
-2.60064
 72
    1
 10
-0.831054
 20
-2.60064
 11
-0.837728
 21
-2.60346
 72
    1
 10
-0.837728
 20
-2.60346
 11
-0.837728
 21
-1.62765
 72
    1
 10
-0.837728
 20
-1.62765
 11
0.5096499999999999
 21
-1.62765
 72
    1
 10
0.5096499999999999
 20
-1.62765
 11
0.5096499999999999
 21
-1.4661
 72
    1
 10
0.5096499999999999
 20
-1.4661
 11
-0.999294704
 21
-1.4661
 72
    1
 10
-0.999294704
 20
-1.4661
 11
-0.999294704
 21
-1.4661
 97
    0
 75
    0
 76
    1
 98
    0
  0
HATCH
  5
59
100
AcDbEntity
  8
0
  6
ByLayer
 62
    3
370
   -1
100
AcDbHatch
 10
0
 20
0
 30
0
210
0
220
0
230
1
  2
SOLID
 70
    1
 71
    0
 91
    1
 92
    0
 93
   49
 72
    1
 10
9.811199999999999
 20
1.32671
 11
9.7775
 21
1.32676
 72
    1
 10
9.7775
 20
1.32676
 11
9.6107
 21
1.30306
 72
    1
 10
9.6107
 20
1.30306
 11
9.4514
 21
1.24849
 72
    1
 10
9.4514
 20
1.24849
 11
9.4214
 21
1.23301
 72
    1
 10
9.4214
 20
1.23301
 11
9.395200000000001
 21
1.21994
 72
    1
 10
9.395200000000001
 20
1.21994
 11
9.320399999999999
 21
1.17279
 72
    1
 10
9.320399999999999
 20
1.17279
 11
9.229200000000001
 21
1.09885
 72
    1
 10
9.229200000000001
 20
1.09885
 11
9.149100000000001
 21
1.01303
 72
    1
 10
9.149100000000001
 20
1.01303
 11
9.081200000000001
 21
0.9172099999999999
 72
    1
 10
9.081200000000001
 20
0.9172099999999999
 11
9.0267
 21
0.8132099999999998
 72
    1
 10
9.0267
 20
0.8132099999999998
 11
8.98671
 21
0.7028999999999996
 72
    1
 10
8.98671
 20
0.7028999999999996
 11
8.96246
 21
0.5880599999999996
 72
    1
 10
8.96246
 20
0.5880599999999996
 11
8.954689999999999
 21
0.4998899999999997
 72
    1
 10
8.954689999999999
 20
0.4998899999999997
 11
8.955080000000001
 21
0.4705399999999997
 72
    1
 10
8.955080000000001
 20
0.4705399999999997
 11
8.955030000000001
 21
0.4378799999999998
 72
    1
 10
8.955030000000001
 20
0.4378799999999998
 11
8.977259999999999
 21
0.2760999999999996
 72
    1
 10
8.977259999999999
 20
0.2760999999999996
 11
9.028700000000001
 21
0.1211500000000001
 72
    1
 10
9.028700000000001
 20
0.1211500000000001
 11
9.043200000000001
 21
0.09184999999999999
 72
    1
 10
9.043200000000001
 20
0.09184999999999999
 11
7.90321
 21
-1.07036
 72
    1
 10
7.90321
 20
-1.07036
 11
8.66629
 21
-1.07036
 72
    1
 10
8.66629
 20
-1.07036
 11
9.427099999999999
 21
-0.2947600000000001
 72
    1
 10
9.427099999999999
 20
-0.2947600000000001
 11
9.4261
 21
-0.29372
 72
    1
 10
9.4261
 20
-0.29372
 11
9.4558
 21
-0.3087499999999999
 72
    1
 10
9.4558
 20
-0.3087499999999999
 11
9.6129
 21
-0.3628499999999999
 72
    1
 10
9.6129
 20
-0.3628499999999999
 11
9.777699999999999
 21
-0.3860100000000002
 72
    1
 10
9.777699999999999
 20
-0.3860100000000002
 11
9.811199999999999
 21
-0.38564
 72
    1
 10
9.811199999999999
 20
-0.38564
 11
9.8531
 21
-0.38564
 72
    1
 10
9.8531
 20
-0.38564
 11
9.978899999999999
 21
-0.36897
 72
    1
 10
9.978899999999999
 20
-0.36897
 11
10.1388
 21
-0.3204199999999999
 72
    1
 10
10.1388
 20
-0.3204199999999999
 11
10.2861
 21
-0.2417500000000001
 72
    1
 10
10.2861
 20
-0.2417500000000001
 11
10.3869
 21
-0.1644999999999999
 72
    1
 10
10.3869
 20
-0.1644999999999999
 11
10.4166
 21
-0.1348699999999998
 72
    1
 10
10.4166
 20
-0.1348699999999998
 11
10.4462
 21
-0.1051899999999999
 72
    1
 10
10.4462
 20
-0.1051899999999999
 11
10.5235
 21
-0.004440000000000222
 72
    1
 10
10.5235
 20
-0.004440000000000222
 11
10.6022
 21
0.1429600000000004
 72
    1
 10
10.6022
 20
0.1429600000000004
 11
10.6507
 21
0.3027899999999999
 72
    1
 10
10.6507
 20
0.3027899999999999
 11
10.6674
 21
0.4286000000000003
 72
    1
 10
10.6674
 20
0.4286000000000003
 11
10.6674
 21
0.4705399999999997
 72
    1
 10
10.6674
 20
0.4705399999999997
 11
10.6674
 21
0.5137200000000002
 72
    1
 10
10.6674
 20
0.5137200000000002
 11
10.65
 21
0.6431199999999997
 72
    1
 10
10.65
 20
0.6431199999999997
 11
10.6
 21
0.80382
 72
    1
 10
10.6
 20
0.80382
 11
10.5211
 21
0.9492799999999999
 72
    1
 10
10.5211
 20
0.9492799999999999
 11
10.4166
 21
1.07596
 72
    1
 10
10.4166
 20
1.07596
 11
10.2899
 21
1.1805
 72
    1
 10
10.2899
 20
1.1805
 11
10.1444
 21
1.25944
 72
    1
 10
10.1444
 20
1.25944
 11
9.983700000000001
 21
1.30935
 72
    1
 10
9.983700000000001
 20
1.30935
 11
9.8543
 21
1.32671
 72
    1
 10
9.8543
 20
1.32671
 11
9.811199999999999
 21
1.32671
 72
    1
 10
9.811199999999999
 20
1.32671
 11
9.811199999999999
 21
1.32671
 97
    0
 75
    0
 76
    1
 98
    0
  0
HATCH
  5
5A
100
AcDbEntity
  8
0
  6
ByLayer
 62
    3
370
   -1
100
AcDbHatch
 10
0
 20
0
 30
0
210
0
220
0
230
1
  2
SOLID
 70
    1
 71
    0
 91
    1
 92
    0
 93
   46
 72
    1
 10
9.378500000000001
 20
3.17589
 11
9.3353
 21
3.17589
 72
    1
 10
9.3353
 20
3.17589
 11
9.2059
 21
3.15853
 72
    1
 10
9.2059
 20
3.15853
 11
9.045299999999999
 21
3.10861
 72
    1
 10
9.045299999999999
 20
3.10861
 11
8.899789999999999
 21
3.02968
 72
    1
 10
8.899789999999999
 20
3.02968
 11
8.773110000000001
 21
2.92513
 72
    1
 10
8.773110000000001
 20
2.92513
 11
8.668570000000001
 21
2.79844
 72
    1
 10
8.668570000000001
 20
2.79844
 11
8.58963
 21
2.653
 72
    1
 10
8.58963
 20
2.653
 11
8.539709999999999
 21
2.49229
 72
    1
 10
8.539709999999999
 20
2.49229
 11
8.522349999999999
 21
2.3629
 72
    1
 10
8.522349999999999
 20
2.3629
 11
8.522349999999999
 21
2.31972
 72
    1
 10
8.522349999999999
 20
2.31972
 11
8.522349999999999
 21
2.27089
 72
    1
 10
8.522349999999999
 20
2.27089
 11
8.54508
 21
2.12429
 72
    1
 10
8.54508
 20
2.12429
 11
8.596679999999999
 21
1.96994
 72
    1
 10
8.596679999999999
 20
1.96994
 11
8.61111
 21
1.94069
 72
    1
 10
8.61111
 20
1.94069
 11
8.61063
 21
1.94114
 72
    1
 10
8.61063
 20
1.94114
 11
5.65647
 21
-1.07036
 72
    1
 10
5.65647
 20
-1.07036
 11
6.41965
 21
-1.07036
 72
    1
 10
6.41965
 20
-1.07036
 11
8.99457
 21
1.55458
 72
    1
 10
8.99457
 20
1.55458
 11
8.99414
 21
1.55501
 72
    1
 10
8.99414
 20
1.55501
 11
9.0237
 21
1.54021
 72
    1
 10
9.0237
 20
1.54021
 11
9.180099999999999
 21
1.48703
 72
    1
 10
9.180099999999999
 20
1.48703
 11
9.328900000000001
 21
1.4636
 72
    1
 10
9.328900000000001
 20
1.4636
 11
9.378500000000001
 21
1.4636
 72
    1
 10
9.378500000000001
 20
1.4636
 11
9.420500000000001
 21
1.4636
 72
    1
 10
9.420500000000001
 20
1.4636
 11
9.5463
 21
1.48019
 72
    1
 10
9.5463
 20
1.48019
 11
9.706099999999999
 21
1.52875
 72
    1
 10
9.706099999999999
 20
1.52875
 11
9.8535
 21
1.60747
 72
    1
 10
9.8535
 20
1.60747
 11
9.9542
 21
1.68474
 72
    1
 10
9.9542
 20
1.68474
 11
9.9839
 21
1.71436
 72
    1
 10
9.9839
 20
1.71436
 11
10.0135
 21
1.74403
 72
    1
 10
10.0135
 20
1.74403
 11
10.0908
 21
1.84478
 72
    1
 10
10.0908
 20
1.84478
 11
10.1695
 21
1.99214
 72
    1
 10
10.1695
 20
1.99214
 11
10.218
 21
2.15196
 72
    1
 10
10.218
 20
2.15196
 11
10.2347
 21
2.27778
 72
    1
 10
10.2347
 20
2.27778
 11
10.2347
 21
2.31972
 72
    1
 10
10.2347
 20
2.31972
 11
10.2347
 21
2.3629
 72
    1
 10
10.2347
 20
2.3629
 11
10.2172
 21
2.49229
 72
    1
 10
10.2172
 20
2.49229
 11
10.1673
 21
2.653
 72
    1
 10
10.1673
 20
2.653
 11
10.0884
 21
2.79844
 72
    1
 10
10.0884
 20
2.79844
 11
9.9839
 21
2.92513
 72
    1
 10
9.9839
 20
2.92513
 11
9.857200000000001
 21
3.02968
 72
    1
 10
9.857200000000001
 20
3.02968
 11
9.7117
 21
3.10861
 72
    1
 10
9.7117
 20
3.10861
 11
9.5511
 21
3.15853
 72
    1
 10
9.5511
 20
3.15853
 11
9.4217
 21
3.17589
 72
    1
 10
9.4217
 20
3.17589
 11
9.378500000000001
 21
3.17589
 72
    1
 10
9.378500000000001
 20
3.17589
 11
9.378500000000001
 21
3.17589
 97
    0
 75
    0
 76
    1
 98
    0
  0
HATCH
  5
5B
100
AcDbEntity
  8
0
  6
ByLayer
 62
    3
370
   -1
100
AcDbHatch
 10
0
 20
0
 30
0
210
0
220
0
230
1
  2
SOLID
 70
    1
 71
    0
 91
    1
 92
    0
 93
   46
 72
    1
 10
5.32081
 20
1.12619
 11
5.27761
 21
1.12619
 72
    1
 10
5.27761
 20
1.12619
 11
5.14822
 21
1.10883
 72
    1
 10
5.14822
 20
1.10883
 11
4.98753
 21
1.05892
 72
    1
 10
4.98753
 20
1.05892
 11
4.84212
 21
0.9799899999999999
 72
    1
 10
4.84212
 20
0.9799899999999999
 11
4.71539
 21
0.8754299999999997
 72
    1
 10
4.71539
 20
0.8754299999999997
 11
4.61083
 21
0.7487500000000002
 72
    1
 10
4.61083
 20
0.7487500000000002
 11
4.53196
 21
0.6033099999999996
 72
    1
 10
4.53196
 20
0.6033099999999996
 11
4.48204
 21
0.4425999999999997
 72
    1
 10
4.48204
 20
0.4425999999999997
 11
4.46468
 21
0.3132099999999998
 72
    1
 10
4.46468
 20
0.3132099999999998
 11
4.46468
 21
0.2700100000000001
 72
    1
 10
4.46468
 20
0.2700100000000001
 11
4.46468
 21
0.22119
 72
    1
 10
4.46468
 20
0.22119
 11
4.48736
 21
0.07460000000000022
 72
    1
 10
4.48736
 20
0.07460000000000022
 11
4.53896
 21
-0.07968999999999982
 72
    1
 10
4.53896
 20
-0.07968999999999982
 11
4.55339
 21
-0.10894
 72
    1
 10
4.55339
 20
-0.10894
 11
4.55296
 21
-0.1084999999999998
 72
    1
 10
4.55296
 20
-0.1084999999999998
 11
3.60938
 21
-1.07036
 72
    1
 10
3.60938
 20
-1.07036
 11
4.37272
 21
-1.07036
 72
    1
 10
4.37272
 20
-1.07036
 11
4.93696
 21
-0.4951699999999999
 72
    1
 10
4.93696
 20
-0.4951699999999999
 11
4.93653
 21
-0.4947400000000002
 72
    1
 10
4.93653
 20
-0.4947400000000002
 11
4.96604
 21
-0.5095399999999999
 72
    1
 10
4.96604
 20
-0.5095399999999999
 11
5.12244
 21
-0.5627200000000001
 72
    1
 10
5.12244
 20
-0.5627200000000001
 11
5.27121
 21
-0.5861499999999999
 72
    1
 10
5.27121
 20
-0.5861499999999999
 11
5.32081
 21
-0.5861499999999999
 72
    1
 10
5.32081
 20
-0.5861499999999999
 11
5.36274
 21
-0.5861499999999999
 72
    1
 10
5.36274
 20
-0.5861499999999999
 11
5.48861
 21
-0.5695000000000001
 72
    1
 10
5.48861
 20
-0.5695000000000001
 11
5.64844
 21
-0.52094
 72
    1
 10
5.64844
 20
-0.52094
 11
5.79579
 21
-0.4422799999999998
 72
    1
 10
5.79579
 20
-0.4422799999999998
 11
5.89654
 21
-0.3650099999999998
 72
    1
 10
5.89654
 20
-0.3650099999999998
 11
5.92622
 21
-0.3353899999999999
 72
    1
 10
5.92622
 20
-0.3353899999999999
 11
5.95583
 21
-0.30572
 72
    1
 10
5.95583
 20
-0.30572
 11
6.0331
 21
-0.2049699999999999
 72
    1
 10
6.0331
 20
-0.2049699999999999
 11
6.11182
 21
-0.05757000000000012
 72
    1
 10
6.11182
 20
-0.05757000000000012
 11
6.16038
 21
0.1022600000000002
 72
    1
 10
6.16038
 20
0.1022600000000002
 11
6.17697
 21
0.2280800000000003
 72
    1
 10
6.17697
 20
0.2280800000000003
 11
6.17697
 21
0.2700100000000001
 72
    1
 10
6.17697
 20
0.2700100000000001
 11
6.17697
 21
0.3132099999999998
 72
    1
 10
6.17697
 20
0.3132099999999998
 11
6.15956
 21
0.4425999999999997
 72
    1
 10
6.15956
 20
0.4425999999999997
 11
6.10965
 21
0.6033099999999996
 72
    1
 10
6.10965
 20
0.6033099999999996
 11
6.03071
 21
0.7487500000000002
 72
    1
 10
6.03071
 20
0.7487500000000002
 11
5.92622
 21
0.8754299999999997
 72
    1
 10
5.92622
 20
0.8754299999999997
 11
5.79949
 21
0.9799899999999999
 72
    1
 10
5.79949
 20
0.9799899999999999
 11
5.65403
 21
1.05892
 72
    1
 10
5.65403
 20
1.05892
 11
5.49333
 21
1.10883
 72
    1
 10
5.49333
 20
1.10883
 11
5.36393
 21
1.12619
 72
    1
 10
5.36393
 20
1.12619
 11
5.32081
 21
1.12619
 72
    1
 10
5.32081
 20
1.12619
 11
5.32081
 21
1.12619
 97
    0
 75
    0
 76
    1
 98
    0
  0
HATCH
  5
5C
100
AcDbEntity
  8
0
  6
ByLayer
 62
    3
370
   -1
100
AcDbHatch
 10
0
 20
0
 30
0
210
0
220
0
230
1
  2
SOLID
 70
    1
 71
    0
 91
    1
 92
    0
 93
   46
 72
    1
 10
5.35487
 20
3.41824
 11
5.31288
 21
3.41824
 72
    1
 10
5.31288
 20
3.41824
 11
5.18701
 21
3.40164
 72
    1
 10
5.18701
 20
3.40164
 11
5.02718
 21
3.35308
 72
    1
 10
5.02718
 20
3.35308
 11
4.87983
 21
3.27442
 72
    1
 10
4.87983
 20
3.27442
 11
4.77908
 21
3.19715
 72
    1
 10
4.77908
 20
3.19715
 11
4.74946
 21
3.16749
 72
    1
 10
4.74946
 20
3.16749
 11
4.71978
 21
3.13786
 72
    1
 10
4.71978
 20
3.13786
 11
4.64253
 21
3.03711
 72
    1
 10
4.64253
 20
3.03711
 11
4.56386
 21
2.88976
 72
    1
 10
4.56386
 20
2.88976
 11
4.51531
 21
2.72993
 72
    1
 10
4.51531
 20
2.72993
 11
4.49869
 21
2.60406
 72
    1
 10
4.49869
 20
2.60406
 11
4.49869
 21
2.56207
 72
    1
 10
4.49869
 20
2.56207
 11
4.49869
 21
2.51324
 72
    1
 10
4.49869
 20
2.51324
 11
4.52143
 21
2.3666
 72
    1
 10
4.52143
 20
2.3666
 11
4.57303
 21
2.21224
 72
    1
 10
4.57303
 20
2.21224
 11
4.58746
 21
2.183
 72
    1
 10
4.58746
 20
2.183
 11
4.58697
 21
2.18349
 72
    1
 10
4.58697
 20
2.18349
 11
1.39513
 21
-1.07036
 72
    1
 10
1.39513
 20
-1.07036
 11
2.15831
 21
-1.07036
 72
    1
 10
2.15831
 20
-1.07036
 11
4.97092
 21
1.79693
 72
    1
 10
4.97092
 20
1.79693
 11
4.97049
 21
1.79736
 72
    1
 10
4.97049
 20
1.79736
 11
5
 21
1.78256
 72
    1
 10
5
 20
1.78256
 11
5.15647
 21
1.72939
 72
    1
 10
5.15647
 20
1.72939
 11
5.30524
 21
1.70594
 72
    1
 10
5.30524
 20
1.70594
 11
5.35487
 21
1.70594
 72
    1
 10
5.35487
 20
1.70594
 11
5.398
 21
1.70594
 72
    1
 10
5.398
 20
1.70594
 11
5.5274
 21
1.72336
 72
    1
 10
5.5274
 20
1.72336
 11
5.6881
 21
1.77328
 72
    1
 10
5.6881
 20
1.77328
 11
5.8335
 21
1.85215
 72
    1
 10
5.8335
 20
1.85215
 11
5.96024
 21
1.95671
 72
    1
 10
5.96024
 20
1.95671
 11
6.06478
 21
2.08344
 72
    1
 10
6.06478
 20
2.08344
 11
6.14367
 21
2.22885
 72
    1
 10
6.14367
 20
2.22885
 11
6.19358
 21
2.38954
 72
    1
 10
6.19358
 20
2.38954
 11
6.21099
 21
2.51893
 72
    1
 10
6.21099
 20
2.51893
 11
6.21099
 21
2.56207
 72
    1
 10
6.21099
 20
2.56207
 11
6.21099
 21
2.60525
 72
    1
 10
6.21099
 20
2.60525
 11
6.19358
 21
2.73465
 72
    1
 10
6.19358
 20
2.73465
 11
6.14367
 21
2.89535
 72
    1
 10
6.14367
 20
2.89535
 11
6.06478
 21
3.04081
 72
    1
 10
6.06478
 20
3.04081
 11
5.96024
 21
3.16749
 72
    1
 10
5.96024
 20
3.16749
 11
5.8335
 21
3.27203
 72
    1
 10
5.8335
 20
3.27203
 11
5.6881
 21
3.35097
 72
    1
 10
5.6881
 20
3.35097
 11
5.5274
 21
3.40087
 72
    1
 10
5.5274
 20
3.40087
 11
5.398
 21
3.41824
 72
    1
 10
5.398
 20
3.41824
 11
5.35487
 21
3.41824
 72
    1
 10
5.35487
 20
3.41824
 11
5.35487
 21
3.41824
 97
    0
 75
    0
 76
    1
 98
    0
  0
HATCH
  5
5D
100
AcDbEntity
  8
0
  6
ByLayer
 62
    3
370
   -1
100
AcDbHatch
 10
0
 20
0
 30
0
210
0
220
0
230
1
  2
SOLID
 70
    1
 71
    0
 91
    1
 92
    0
 93
   44
 72
    1
 10
5.51525
 20
5.85938
 11
5.47206
 21
5.85938
 72
    1
 10
5.47206
 20
5.85938
 11
5.34267
 21
5.84201
 72
    1
 10
5.34267
 20
5.84201
 11
5.18197
 21
5.7921
 72
    1
 10
5.18197
 20
5.7921
 11
5.03651
 21
5.71317
 72
    1
 10
5.03651
 20
5.71317
 11
4.90983
 21
5.608610000000001
 72
    1
 10
4.90983
 20
5.608610000000001
 11
4.80528
 21
5.48193
 72
    1
 10
4.80528
 20
5.48193
 11
4.72635
 21
5.33649
 72
    1
 10
4.72635
 20
5.33649
 11
4.67643
 21
5.17578
 72
    1
 10
4.67643
 20
5.17578
 11
4.65907
 21
5.046390000000001
 72
    1
 10
4.65907
 20
5.046390000000001
 11
4.65907
 21
5.00319
 72
    1
 10
4.65907
 20
5.00319
 11
4.65907
 21
4.95383
 72
    1
 10
4.65907
 20
4.95383
 11
4.68207
 21
4.80561
 72
    1
 10
4.68207
 20
4.80561
 11
4.73329
 21
4.652939999999999
 72
    1
 10
4.73329
 20
4.652939999999999
 11
4.74744
 21
4.62435
 72
    1
 10
4.74744
 20
4.62435
 11
4.74729
 21
4.624510000000001
 72
    1
 10
4.74729
 20
4.624510000000001
 11
-0.839193
 21
-1.07036
 72
    1
 10
-0.839193
 20
-1.07036
 11
-0.07601000000000002
 21
-1.07036
 72
    1
 10
-0.07601000000000002
 20
-1.07036
 11
5.13113
 21
4.2379
 72
    1
 10
5.13113
 20
4.2379
 11
5.13081
 21
4.23828
 72
    1
 10
5.13081
 20
4.23828
 11
5.15967
 21
4.223739999999999
 72
    1
 10
5.15967
 20
4.223739999999999
 11
5.31451
 21
4.17085
 72
    1
 10
5.31451
 20
4.17085
 11
5.46506
 21
4.147080000000001
 72
    1
 10
5.46506
 20
4.147080000000001
 11
5.51525
 21
4.147080000000001
 72
    1
 10
5.51525
 20
4.147080000000001
 11
5.55838
 21
4.147080000000001
 72
    1
 10
5.55838
 20
4.147080000000001
 11
5.68778
 21
4.1645
 72
    1
 10
5.68778
 20
4.1645
 11
5.84847
 21
4.21442
 72
    1
 10
5.84847
 20
4.21442
 11
5.99387
 21
4.293290000000001
 72
    1
 10
5.99387
 20
4.293290000000001
 11
6.12061
 21
4.39785
 72
    1
 10
6.12061
 20
4.39785
 11
6.22515
 21
4.52458
 72
    1
 10
6.22515
 20
4.52458
 11
6.30404
 21
4.669969999999999
 72
    1
 10
6.30404
 20
4.669969999999999
 11
6.35394
 21
4.830679999999999
 72
    1
 10
6.35394
 20
4.830679999999999
 11
6.37136
 21
4.96007
 72
    1
 10
6.37136
 20
4.96007
 11
6.37136
 21
5.00319
 72
    1
 10
6.37136
 20
5.00319
 11
6.37136
 21
5.046390000000001
 72
    1
 10
6.37136
 20
5.046390000000001
 11
6.35394
 21
5.17578
 72
    1
 10
6.35394
 20
5.17578
 11
6.30404
 21
5.33649
 72
    1
 10
6.30404
 20
5.33649
 11
6.22515
 21
5.48193
 72
    1
 10
6.22515
 20
5.48193
 11
6.12061
 21
5.608610000000001
 72
    1
 10
6.12061
 20
5.608610000000001
 11
5.99387
 21
5.71317
 72
    1
 10
5.99387
 20
5.71317
 11
5.84847
 21
5.7921
 72
    1
 10
5.84847
 20
5.7921
 11
5.68778
 21
5.84201
 72
    1
 10
5.68778
 20
5.84201
 11
5.55838
 21
5.85938
 72
    1
 10
5.55838
 20
5.85938
 11
5.51525
 21
5.85938
 72
    1
 10
5.51525
 20
5.85938
 11
5.51525
 21
5.85938
 97
    0
 75
    0
 76
    1
 98
    0
  0
LWPOLYLINE
  5
5E
100
AcDbEntity
  8
0
  6
ByLayer
 62
    3
370
   -1
100
AcDbPolyline
 90
   44
 70
    1
 43
0
 10
5.51525
 20
5.85938
 10
5.47206
 20
5.85938
 10
5.34267
 20
5.84201
 10
5.18197
 20
5.7921
 10
5.03651
 20
5.71317
 10
4.90983
 20
5.608610000000001
 10
4.80528
 20
5.48193
 10
4.72635
 20
5.33649
 10
4.67643
 20
5.17578
 10
4.65907
 20
5.046390000000001
 10
4.65907
 20
5.00319
 10
4.65907
 20
4.95383
 10
4.68207
 20
4.80561
 10
4.73329
 20
4.652939999999999
 10
4.74744
 20
4.62435
 10
4.74729
 20
4.624510000000001
 10
-0.839193
 20
-1.07036
 10
-0.07601000000000002
 20
-1.07036
 10
5.13113
 20
4.2379
 10
5.13081
 20
4.23828
 10
5.15967
 20
4.223739999999999
 10
5.31451
 20
4.17085
 10
5.46506
 20
4.147080000000001
 10
5.51525
 20
4.147080000000001
 10
5.55838
 20
4.147080000000001
 10
5.68778
 20
4.1645
 10
5.84847
 20
4.21442
 10
5.99387
 20
4.293290000000001
 10
6.12061
 20
4.39785
 10
6.22515
 20
4.52458
 10
6.30404
 20
4.669969999999999
 10
6.35394
 20
4.830679999999999
 10
6.37136
 20
4.96007
 10
6.37136
 20
5.00319
 10
6.37136
 20
5.046390000000001
 10
6.35394
 20
5.17578
 10
6.30404
 20
5.33649
 10
6.22515
 20
5.48193
 10
6.12061
 20
5.608610000000001
 10
5.99387
 20
5.71317
 10
5.84847
 20
5.7921
 10
5.68778
 20
5.84201
 10
5.55838
 20
5.85938
 10
5.51525
 20
5.85938
  0
LWPOLYLINE
  5
5F
100
AcDbEntity
  8
0
  6
ByLayer
 62
    3
370
   -1
100
AcDbPolyline
 90
   44
 70
    1
 43
0
 10
5.51525
 20
5.85938
 10
5.47206
 20
5.85938
 10
5.34267
 20
5.84201
 10
5.18197
 20
5.7921
 10
5.03651
 20
5.71317
 10
4.90983
 20
5.608610000000001
 10
4.80528
 20
5.48193
 10
4.72635
 20
5.33649
 10
4.67643
 20
5.17578
 10
4.65907
 20
5.046390000000001
 10
4.65907
 20
5.00319
 10
4.65907
 20
4.95383
 10
4.68207
 20
4.80561
 10
4.73329
 20
4.652939999999999
 10
4.74744
 20
4.62435
 10
4.74729
 20
4.624510000000001
 10
-0.839193
 20
-1.07036
 10
-0.07601000000000002
 20
-1.07036
 10
5.13113
 20
4.2379
 10
5.13081
 20
4.23828
 10
5.15967
 20
4.223739999999999
 10
5.31451
 20
4.17085
 10
5.46506
 20
4.147080000000001
 10
5.51525
 20
4.147080000000001
 10
5.55838
 20
4.147080000000001
 10
5.68778
 20
4.1645
 10
5.84847
 20
4.21442
 10
5.99387
 20
4.293290000000001
 10
6.12061
 20
4.39785
 10
6.22515
 20
4.52458
 10
6.30404
 20
4.669969999999999
 10
6.35394
 20
4.830679999999999
 10
6.37136
 20
4.96007
 10
6.37136
 20
5.00319
 10
6.37136
 20
5.046390000000001
 10
6.35394
 20
5.17578
 10
6.30404
 20
5.33649
 10
6.22515
 20
5.48193
 10
6.12061
 20
5.608610000000001
 10
5.99387
 20
5.71317
 10
5.84847
 20
5.7921
 10
5.68778
 20
5.84201
 10
5.55838
 20
5.85938
 10
5.51525
 20
5.85938
  0
LWPOLYLINE
  5
60
100
AcDbEntity
  8
0
  6
ByLayer
 62
    3
370
   -1
100
AcDbPolyline
 90
   46
 70
    1
 43
0
 10
5.35487
 20
3.41824
 10
5.31288
 20
3.41824
 10
5.18701
 20
3.40164
 10
5.02718
 20
3.35308
 10
4.87983
 20
3.27442
 10
4.77908
 20
3.19715
 10
4.74946
 20
3.16749
 10
4.71978
 20
3.13786
 10
4.64253
 20
3.03711
 10
4.56386
 20
2.88976
 10
4.51531
 20
2.72993
 10
4.49869
 20
2.60406
 10
4.49869
 20
2.56207
 10
4.49869
 20
2.51324
 10
4.52143
 20
2.3666
 10
4.57303
 20
2.21224
 10
4.58746
 20
2.183
 10
4.58697
 20
2.18349
 10
1.39513
 20
-1.07036
 10
2.15831
 20
-1.07036
 10
4.97092
 20
1.79693
 10
4.97049
 20
1.79736
 10
5
 20
1.78256
 10
5.15647
 20
1.72939
 10
5.30524
 20
1.70594
 10
5.35487
 20
1.70594
 10
5.398
 20
1.70594
 10
5.5274
 20
1.72336
 10
5.6881
 20
1.77328
 10
5.8335
 20
1.85215
 10
5.96024
 20
1.95671
 10
6.06478
 20
2.08344
 10
6.14367
 20
2.22885
 10
6.19358
 20
2.38954
 10
6.21099
 20
2.51893
 10
6.21099
 20
2.56207
 10
6.21099
 20
2.60525
 10
6.19358
 20
2.73465
 10
6.14367
 20
2.89535
 10
6.06478
 20
3.04081
 10
5.96024
 20
3.16749
 10
5.8335
 20
3.27203
 10
5.6881
 20
3.35097
 10
5.5274
 20
3.40087
 10
5.398
 20
3.41824
 10
5.35487
 20
3.41824
  0
LWPOLYLINE
  5
61
100
AcDbEntity
  8
0
  6
ByLayer
 62
    3
370
   -1
100
AcDbPolyline
 90
   46
 70
    1
 43
0
 10
5.35487
 20
3.41824
 10
5.31288
 20
3.41824
 10
5.18701
 20
3.40164
 10
5.02718
 20
3.35308
 10
4.87983
 20
3.27442
 10
4.77908
 20
3.19715
 10
4.74946
 20
3.16749
 10
4.71978
 20
3.13786
 10
4.64253
 20
3.03711
 10
4.56386
 20
2.88976
 10
4.51531
 20
2.72993
 10
4.49869
 20
2.60406
 10
4.49869
 20
2.56207
 10
4.49869
 20
2.51324
 10
4.52143
 20
2.3666
 10
4.57303
 20
2.21224
 10
4.58746
 20
2.183
 10
4.58697
 20
2.18349
 10
1.39513
 20
-1.07036
 10
2.15831
 20
-1.07036
 10
4.97092
 20
1.79693
 10
4.97049
 20
1.79736
 10
5
 20
1.78256
 10
5.15647
 20
1.72939
 10
5.30524
 20
1.70594
 10
5.35487
 20
1.70594
 10
5.398
 20
1.70594
 10
5.5274
 20
1.72336
 10
5.6881
 20
1.77328
 10
5.8335
 20
1.85215
 10
5.96024
 20
1.95671
 10
6.06478
 20
2.08344
 10
6.14367
 20
2.22885
 10
6.19358
 20
2.38954
 10
6.21099
 20
2.51893
 10
6.21099
 20
2.56207
 10
6.21099
 20
2.60525
 10
6.19358
 20
2.73465
 10
6.14367
 20
2.89535
 10
6.06478
 20
3.04081
 10
5.96024
 20
3.16749
 10
5.8335
 20
3.27203
 10
5.6881
 20
3.35097
 10
5.5274
 20
3.40087
 10
5.398
 20
3.41824
 10
5.35487
 20
3.41824
  0
LWPOLYLINE
  5
62
100
AcDbEntity
  8
0
  6
ByLayer
 62
    3
370
   -1
100
AcDbPolyline
 90
   46
 70
    1
 43
0
 10
5.32081
 20
1.12619
 10
5.27761
 20
1.12619
 10
5.14822
 20
1.10883
 10
4.98753
 20
1.05892
 10
4.84212
 20
0.9799899999999999
 10
4.71539
 20
0.8754299999999997
 10
4.61083
 20
0.7487500000000002
 10
4.53196
 20
0.6033099999999996
 10
4.48204
 20
0.4425999999999997
 10
4.46468
 20
0.3132099999999998
 10
4.46468
 20
0.2700100000000001
 10
4.46468
 20
0.22119
 10
4.48736
 20
0.07460000000000022
 10
4.53896
 20
-0.07968999999999982
 10
4.55339
 20
-0.10894
 10
4.55296
 20
-0.1084999999999998
 10
3.60938
 20
-1.07036
 10
4.37272
 20
-1.07036
 10
4.93696
 20
-0.4951699999999999
 10
4.93653
 20
-0.4947400000000002
 10
4.96604
 20
-0.5095399999999999
 10
5.12244
 20
-0.5627200000000001
 10
5.27121
 20
-0.5861499999999999
 10
5.32081
 20
-0.5861499999999999
 10
5.36274
 20
-0.5861499999999999
 10
5.48861
 20
-0.5695000000000001
 10
5.64844
 20
-0.52094
 10
5.79579
 20
-0.4422799999999998
 10
5.89654
 20
-0.3650099999999998
 10
5.92622
 20
-0.3353899999999999
 10
5.95583
 20
-0.30572
 10
6.0331
 20
-0.2049699999999999
 10
6.11182
 20
-0.05757000000000012
 10
6.16038
 20
0.1022600000000002
 10
6.17697
 20
0.2280800000000003
 10
6.17697
 20
0.2700100000000001
 10
6.17697
 20
0.3132099999999998
 10
6.15956
 20
0.4425999999999997
 10
6.10965
 20
0.6033099999999996
 10
6.03071
 20
0.7487500000000002
 10
5.92622
 20
0.8754299999999997
 10
5.79949
 20
0.9799899999999999
 10
5.65403
 20
1.05892
 10
5.49333
 20
1.10883
 10
5.36393
 20
1.12619
 10
5.32081
 20
1.12619
  0
LWPOLYLINE
  5
63
100
AcDbEntity
  8
0
  6
ByLayer
 62
    3
370
   -1
100
AcDbPolyline
 90
   46
 70
    1
 43
0
 10
5.32081
 20
1.12619
 10
5.27761
 20
1.12619
 10
5.14822
 20
1.10883
 10
4.98753
 20
1.05892
 10
4.84212
 20
0.9799899999999999
 10
4.71539
 20
0.8754299999999997
 10
4.61083
 20
0.7487500000000002
 10
4.53196
 20
0.6033099999999996
 10
4.48204
 20
0.4425999999999997
 10
4.46468
 20
0.3132099999999998
 10
4.46468
 20
0.2700100000000001
 10
4.46468
 20
0.22119
 10
4.48736
 20
0.07460000000000022
 10
4.53896
 20
-0.07968999999999982
 10
4.55339
 20
-0.10894
 10
4.55296
 20
-0.1084999999999998
 10
3.60938
 20
-1.07036
 10
4.37272
 20
-1.07036
 10
4.93696
 20
-0.4951699999999999
 10
4.93653
 20
-0.4947400000000002
 10
4.96604
 20
-0.5095399999999999
 10
5.12244
 20
-0.5627200000000001
 10
5.27121
 20
-0.5861499999999999
 10
5.32081
 20
-0.5861499999999999
 10
5.36274
 20
-0.5861499999999999
 10
5.48861
 20
-0.5695000000000001
 10
5.64844
 20
-0.52094
 10
5.79579
 20
-0.4422799999999998
 10
5.89654
 20
-0.3650099999999998
 10
5.92622
 20
-0.3353899999999999
 10
5.95583
 20
-0.30572
 10
6.0331
 20
-0.2049699999999999
 10
6.11182
 20
-0.05757000000000012
 10
6.16038
 20
0.1022600000000002
 10
6.17697
 20
0.2280800000000003
 10
6.17697
 20
0.2700100000000001
 10
6.17697
 20
0.3132099999999998
 10
6.15956
 20
0.4425999999999997
 10
6.10965
 20
0.6033099999999996
 10
6.03071
 20
0.7487500000000002
 10
5.92622
 20
0.8754299999999997
 10
5.79949
 20
0.9799899999999999
 10
5.65403
 20
1.05892
 10
5.49333
 20
1.10883
 10
5.36393
 20
1.12619
 10
5.32081
 20
1.12619
  0
LWPOLYLINE
  5
64
100
AcDbEntity
  8
0
  6
ByLayer
 62
    3
370
   -1
100
AcDbPolyline
 90
   46
 70
    1
 43
0
 10
9.378500000000001
 20
3.17589
 10
9.3353
 20
3.17589
 10
9.2059
 20
3.15853
 10
9.045299999999999
 20
3.10861
 10
8.899789999999999
 20
3.02968
 10
8.773110000000001
 20
2.92513
 10
8.668570000000001
 20
2.79844
 10
8.58963
 20
2.653
 10
8.539709999999999
 20
2.49229
 10
8.522349999999999
 20
2.3629
 10
8.522349999999999
 20
2.31972
 10
8.522349999999999
 20
2.27089
 10
8.54508
 20
2.12429
 10
8.596679999999999
 20
1.96994
 10
8.61111
 20
1.94069
 10
8.61063
 20
1.94114
 10
5.65647
 20
-1.07036
 10
6.41965
 20
-1.07036
 10
8.99457
 20
1.55458
 10
8.99414
 20
1.55501
 10
9.0237
 20
1.54021
 10
9.180099999999999
 20
1.48703
 10
9.328900000000001
 20
1.4636
 10
9.378500000000001
 20
1.4636
 10
9.420500000000001
 20
1.4636
 10
9.5463
 20
1.48019
 10
9.706099999999999
 20
1.52875
 10
9.8535
 20
1.60747
 10
9.9542
 20
1.68474
 10
9.9839
 20
1.71436
 10
10.0135
 20
1.74403
 10
10.0908
 20
1.84478
 10
10.1695
 20
1.99214
 10
10.218
 20
2.15196
 10
10.2347
 20
2.27778
 10
10.2347
 20
2.31972
 10
10.2347
 20
2.3629
 10
10.2172
 20
2.49229
 10
10.1673
 20
2.653
 10
10.0884
 20
2.79844
 10
9.9839
 20
2.92513
 10
9.857200000000001
 20
3.02968
 10
9.7117
 20
3.10861
 10
9.5511
 20
3.15853
 10
9.4217
 20
3.17589
 10
9.378500000000001
 20
3.17589
  0
LWPOLYLINE
  5
65
100
AcDbEntity
  8
0
  6
ByLayer
 62
    3
370
   -1
100
AcDbPolyline
 90
   46
 70
    1
 43
0
 10
9.378500000000001
 20
3.17589
 10
9.3353
 20
3.17589
 10
9.2059
 20
3.15853
 10
9.045299999999999
 20
3.10861
 10
8.899789999999999
 20
3.02968
 10
8.773110000000001
 20
2.92513
 10
8.668570000000001
 20
2.79844
 10
8.58963
 20
2.653
 10
8.539709999999999
 20
2.49229
 10
8.522349999999999
 20
2.3629
 10
8.522349999999999
 20
2.31972
 10
8.522349999999999
 20
2.27089
 10
8.54508
 20
2.12429
 10
8.596679999999999
 20
1.96994
 10
8.61111
 20
1.94069
 10
8.61063
 20
1.94114
 10
5.65647
 20
-1.07036
 10
6.41965
 20
-1.07036
 10
8.99457
 20
1.55458
 10
8.99414
 20
1.55501
 10
9.0237
 20
1.54021
 10
9.180099999999999
 20
1.48703
 10
9.328900000000001
 20
1.4636
 10
9.378500000000001
 20
1.4636
 10
9.420500000000001
 20
1.4636
 10
9.5463
 20
1.48019
 10
9.706099999999999
 20
1.52875
 10
9.8535
 20
1.60747
 10
9.9542
 20
1.68474
 10
9.9839
 20
1.71436
 10
10.0135
 20
1.74403
 10
10.0908
 20
1.84478
 10
10.1695
 20
1.99214
 10
10.218
 20
2.15196
 10
10.2347
 20
2.27778
 10
10.2347
 20
2.31972
 10
10.2347
 20
2.3629
 10
10.2172
 20
2.49229
 10
10.1673
 20
2.653
 10
10.0884
 20
2.79844
 10
9.9839
 20
2.92513
 10
9.857200000000001
 20
3.02968
 10
9.7117
 20
3.10861
 10
9.5511
 20
3.15853
 10
9.4217
 20
3.17589
 10
9.378500000000001
 20
3.17589
  0
LWPOLYLINE
  5
66
100
AcDbEntity
  8
0
  6
ByLayer
 62
    3
370
   -1
100
AcDbPolyline
 90
   49
 70
    1
 43
0
 10
9.811199999999999
 20
1.32671
 10
9.7775
 20
1.32676
 10
9.6107
 20
1.30306
 10
9.4514
 20
1.24849
 10
9.4214
 20
1.23301
 10
9.395200000000001
 20
1.21994
 10
9.320399999999999
 20
1.17279
 10
9.229200000000001
 20
1.09885
 10
9.149100000000001
 20
1.01303
 10
9.081200000000001
 20
0.9172099999999999
 10
9.0267
 20
0.8132099999999998
 10
8.98671
 20
0.7028999999999996
 10
8.96246
 20
0.5880599999999996
 10
8.954689999999999
 20
0.4998899999999997
 10
8.955080000000001
 20
0.4705399999999997
 10
8.955030000000001
 20
0.4378799999999998
 10
8.977259999999999
 20
0.2760999999999996
 10
9.028700000000001
 20
0.1211500000000001
 10
9.043200000000001
 20
0.09184999999999999
 10
7.90321
 20
-1.07036
 10
8.66629
 20
-1.07036
 10
9.427099999999999
 20
-0.2947600000000001
 10
9.4261
 20
-0.29372
 10
9.4558
 20
-0.3087499999999999
 10
9.6129
 20
-0.3628499999999999
 10
9.777699999999999
 20
-0.3860100000000002
 10
9.811199999999999
 20
-0.38564
 10
9.8531
 20
-0.38564
 10
9.978899999999999
 20
-0.36897
 10
10.1388
 20
-0.3204199999999999
 10
10.2861
 20
-0.2417500000000001
 10
10.3869
 20
-0.1644999999999999
 10
10.4166
 20
-0.1348699999999998
 10
10.4462
 20
-0.1051899999999999
 10
10.5235
 20
-0.004440000000000222
 10
10.6022
 20
0.1429600000000004
 10
10.6507
 20
0.3027899999999999
 10
10.6674
 20
0.4286000000000003
 10
10.6674
 20
0.4705399999999997
 10
10.6674
 20
0.5137200000000002
 10
10.65
 20
0.6431199999999997
 10
10.6
 20
0.80382
 10
10.5211
 20
0.9492799999999999
 10
10.4166
 20
1.07596
 10
10.2899
 20
1.1805
 10
10.1444
 20
1.25944
 10
9.983700000000001
 20
1.30935
 10
9.8543
 20
1.32671
 10
9.811199999999999
 20
1.32671
  0
LWPOLYLINE
  5
67
100
AcDbEntity
  8
0
  6
ByLayer
 62
    3
370
   -1
100
AcDbPolyline
 90
   49
 70
    1
 43
0
 10
9.811199999999999
 20
1.32671
 10
9.7775
 20
1.32676
 10
9.6107
 20
1.30306
 10
9.4514
 20
1.24849
 10
9.4214
 20
1.23301
 10
9.395200000000001
 20
1.21994
 10
9.320399999999999
 20
1.17279
 10
9.229200000000001
 20
1.09885
 10
9.149100000000001
 20
1.01303
 10
9.081200000000001
 20
0.9172099999999999
 10
9.0267
 20
0.8132099999999998
 10
8.98671
 20
0.7028999999999996
 10
8.96246
 20
0.5880599999999996
 10
8.954689999999999
 20
0.4998899999999997
 10
8.955080000000001
 20
0.4705399999999997
 10
8.955030000000001
 20
0.4378799999999998
 10
8.977259999999999
 20
0.2760999999999996
 10
9.028700000000001
 20
0.1211500000000001
 10
9.043200000000001
 20
0.09184999999999999
 10
7.90321
 20
-1.07036
 10
8.66629
 20
-1.07036
 10
9.427099999999999
 20
-0.2947600000000001
 10
9.4261
 20
-0.29372
 10
9.4558
 20
-0.3087499999999999
 10
9.6129
 20
-0.3628499999999999
 10
9.777699999999999
 20
-0.3860100000000002
 10
9.811199999999999
 20
-0.38564
 10
9.8531
 20
-0.38564
 10
9.978899999999999
 20
-0.36897
 10
10.1388
 20
-0.3204199999999999
 10
10.2861
 20
-0.2417500000000001
 10
10.3869
 20
-0.1644999999999999
 10
10.4166
 20
-0.1348699999999998
 10
10.4462
 20
-0.1051899999999999
 10
10.5235
 20
-0.004440000000000222
 10
10.6022
 20
0.1429600000000004
 10
10.6507
 20
0.3027899999999999
 10
10.6674
 20
0.4286000000000003
 10
10.6674
 20
0.4705399999999997
 10
10.6674
 20
0.5137200000000002
 10
10.65
 20
0.6431199999999997
 10
10.6
 20
0.80382
 10
10.5211
 20
0.9492799999999999
 10
10.4166
 20
1.07596
 10
10.2899
 20
1.1805
 10
10.1444
 20
1.25944
 10
9.983700000000001
 20
1.30935
 10
9.8543
 20
1.32671
 10
9.811199999999999
 20
1.32671
  0
LWPOLYLINE
  5
68
100
AcDbEntity
  8
0
  6
ByLayer
 62
    3
370
   -1
100
AcDbPolyline
 90
   29
 70
    1
 43
0
 10
-0.999294704
 20
-1.4661
 10
-0.999294704
 20
-3.999294704
 10
0.5128600000000001
 20
-3.999294704
 10
0.5128600000000001
 20
-3.837728
 10
-0.834526
 20
-3.837728
 10
-0.834526
 20
-2.84581
 10
-0.834526
 20
-2.84234
 10
-0.833658
 20
-2.83203
 10
-0.830186
 20
-2.81597
 10
-0.823296
 20
-2.79888
 10
-0.811903
 20
-2.78196
 10
-0.795085
 20
-2.76655
 10
-0.771864
 20
-2.75402
 10
-0.7411570000000001
 20
-2.7455
 10
-0.7118599999999999
 20
-2.7424
 10
-0.70204
 20
-2.7424
 10
0.5096499999999999
 20
-2.7424
 10
0.5096499999999999
 20
-2.58083
 10
-0.70204
 20
-2.58083
 10
-0.713867
 20
-2.58083
 10
-0.749186
 20
-2.58208
 10
-0.783257
 20
-2.58604
 10
-0.810656
 20
-2.5931
 10
-0.831054
 20
-2.60064
 10
-0.837728
 20
-2.60346
 10
-0.837728
 20
-1.62765
 10
0.5096499999999999
 20
-1.62765
 10
0.5096499999999999
 20
-1.4661
 10
-0.999294704
 20
-1.4661
  0
LWPOLYLINE
  5
69
100
AcDbEntity
  8
0
  6
ByLayer
 62
    3
370
   -1
100
AcDbPolyline
 90
   29
 70
    1
 43
0
 10
-0.999294704
 20
-1.4661
 10
-0.999294704
 20
-3.999294704
 10
0.5128600000000001
 20
-3.999294704
 10
0.5128600000000001
 20
-3.837728
 10
-0.834526
 20
-3.837728
 10
-0.834526
 20
-2.84581
 10
-0.834526
 20
-2.84234
 10
-0.833658
 20
-2.83203
 10
-0.830186
 20
-2.81597
 10
-0.823296
 20
-2.79888
 10
-0.811903
 20
-2.78196
 10
-0.795085
 20
-2.76655
 10
-0.771864
 20
-2.75402
 10
-0.7411570000000001
 20
-2.7455
 10
-0.7118599999999999
 20
-2.7424
 10
-0.70204
 20
-2.7424
 10
0.5096499999999999
 20
-2.7424
 10
0.5096499999999999
 20
-2.58083
 10
-0.70204
 20
-2.58083
 10
-0.713867
 20
-2.58083
 10
-0.749186
 20
-2.58208
 10
-0.783257
 20
-2.58604
 10
-0.810656
 20
-2.5931
 10
-0.831054
 20
-2.60064
 10
-0.837728
 20
-2.60346
 10
-0.837728
 20
-1.62765
 10
0.5096499999999999
 20
-1.62765
 10
0.5096499999999999
 20
-1.4661
 10
-0.999294704
 20
-1.4661
  0
LWPOLYLINE
  5
6A
100
AcDbEntity
  8
0
  6
ByLayer
 62
    3
370
   -1
100
AcDbPolyline
 90
   47
 70
    1
 43
0
 10
1.60975
 20
-2.13172
 10
1.57639
 20
-2.13172
 10
1.47646
 20
-2.14632
 10
1.35221
 20
-2.18832
 10
1.23969
 20
-2.25456
 10
1.1416
 20
-2.34213
 10
1.06065
 20
-2.44803
 10
0.9995099999999999
 20
-2.56922
 10
0.9608300000000001
 20
-2.70285
 10
0.94737
 20
-2.81006
 10
0.94737
 20
-2.84581
 10
0.94737
 20
-3.999294704
 10
1.10889
 20
-3.999294704
 10
1.10889
 20
-2.84581
 10
1.10889
 20
-2.81809
 10
1.11914
 20
-2.73497
 10
1.14854
 20
-2.63178
 10
1.1951
 20
-2.53847
 10
1.25672
 20
-2.45719
 10
1.33132
 20
-2.39019
 10
1.41694
 20
-2.33957
 10
1.5115
 20
-2.30761
 10
1.58757
 20
-2.2965
 10
1.61296
 20
-2.2965
 10
1.63829
 20
-2.2965
 10
1.71436
 20
-2.30761
 10
1.80892
 20
-2.33957
 10
1.89453
 20
-2.39019
 10
1.96918
 20
-2.45719
 10
2.03076
 20
-2.53847
 10
2.07731
 20
-2.63178
 10
2.10672
 20
-2.73497
 10
2.11703
 20
-2.81809
 10
2.11703
 20
-2.84581
 10
2.11703
 20
-3.999294704
 10
2.27214
 20
-3.999294704
 10
2.27214
 20
-2.84581
 10
2.27214
 20
-2.81006
 10
2.25863
 20
-2.70285
 10
2.21994
 20
-2.56922
 10
2.15881
 20
-2.44803
 10
2.07785
 20
-2.34213
 10
1.97976
 20
-2.25456
 10
1.86724
 20
-2.18832
 10
1.743
 20
-2.14632
 10
1.64307
 20
-2.13172
 10
1.60975
 20
-2.13172
  0
LWPOLYLINE
  5
6B
100
AcDbEntity
  8
0
  6
ByLayer
 62
    3
370
   -1
100
AcDbPolyline
 90
   47
 70
    1
 43
0
 10
1.60975
 20
-2.13172
 10
1.57639
 20
-2.13172
 10
1.47646
 20
-2.14632
 10
1.35221
 20
-2.18832
 10
1.23969
 20
-2.25456
 10
1.1416
 20
-2.34213
 10
1.06065
 20
-2.44803
 10
0.9995099999999999
 20
-2.56922
 10
0.9608300000000001
 20
-2.70285
 10
0.94737
 20
-2.81006
 10
0.94737
 20
-2.84581
 10
0.94737
 20
-3.999294704
 10
1.10889
 20
-3.999294704
 10
1.10889
 20
-2.84581
 10
1.10889
 20
-2.81809
 10
1.11914
 20
-2.73497
 10
1.14854
 20
-2.63178
 10
1.1951
 20
-2.53847
 10
1.25672
 20
-2.45719
 10
1.33132
 20
-2.39019
 10
1.41694
 20
-2.33957
 10
1.5115
 20
-2.30761
 10
1.58757
 20
-2.2965
 10
1.61296
 20
-2.2965
 10
1.63829
 20
-2.2965
 10
1.71436
 20
-2.30761
 10
1.80892
 20
-2.33957
 10
1.89453
 20
-2.39019
 10
1.96918
 20
-2.45719
 10
2.03076
 20
-2.53847
 10
2.07731
 20
-2.63178
 10
2.10672
 20
-2.73497
 10
2.11703
 20
-2.81809
 10
2.11703
 20
-2.84581
 10
2.11703
 20
-3.999294704
 10
2.27214
 20
-3.999294704
 10
2.27214
 20
-2.84581
 10
2.27214
 20
-2.81006
 10
2.25863
 20
-2.70285
 10
2.21994
 20
-2.56922
 10
2.15881
 20
-2.44803
 10
2.07785
 20
-2.34213
 10
1.97976
 20
-2.25456
 10
1.86724
 20
-2.18832
 10
1.743
 20
-2.14632
 10
1.64307
 20
-2.13172
 10
1.60975
 20
-2.13172
  0
LWPOLYLINE
  5
6C
100
AcDbEntity
  8
0
  6
ByLayer
 62
    3
370
   -1
100
AcDbPolyline
 90
   25
 70
    1
 43
0
 10
5.12164
 20
-2.13172
 10
5.08826
 20
-2.13172
 10
4.98817
 20
-2.14632
 10
4.86356
 20
-2.18826
 10
4.75054
 20
-2.25439
 10
4.65192
 20
-2.34169
 10
4.57036
 20
-2.44721
 10
4.50868
 20
-2.56788
 10
4.46967
 20
-2.70068
 10
4.45606
 20
-2.80707
 10
4.45606
 20
-2.84256
 10
4.45606
 20
-3.999294704
 10
4.61757
 20
-3.999294704
 10
4.61757
 20
-2.84256
 10
4.61757
 20
-2.81483
 10
4.62782
 20
-2.73172
 10
4.65722
 20
-2.62858
 10
4.70378
 20
-2.53526
 10
4.76535
 20
-2.45399
 10
4.84
 20
-2.38693
 10
4.92562
 20
-2.33632
 10
5.02018
 20
-2.30436
 10
5.09625
 20
-2.29324
 10
5.12164
 20
-2.29324
 10
5.12164
 20
-2.13172
  0
LWPOLYLINE
  5
6D
100
AcDbEntity
  8
0
  6
ByLayer
 62
    3
370
   -1
100
AcDbPolyline
 90
   25
 70
    1
 43
0
 10
5.12164
 20
-2.13172
 10
5.08826
 20
-2.13172
 10
4.98817
 20
-2.14632
 10
4.86356
 20
-2.18826
 10
4.75054
 20
-2.25439
 10
4.65192
 20
-2.34169
 10
4.57036
 20
-2.44721
 10
4.50868
 20
-2.56788
 10
4.46967
 20
-2.70068
 10
4.45606
 20
-2.80707
 10
4.45606
 20
-2.84256
 10
4.45606
 20
-3.999294704
 10
4.61757
 20
-3.999294704
 10
4.61757
 20
-2.84256
 10
4.61757
 20
-2.81483
 10
4.62782
 20
-2.73172
 10
4.65722
 20
-2.62858
 10
4.70378
 20
-2.53526
 10
4.76535
 20
-2.45399
 10
4.84
 20
-2.38693
 10
4.92562
 20
-2.33632
 10
5.02018
 20
-2.30436
 10
5.09625
 20
-2.29324
 10
5.12164
 20
-2.29324
 10
5.12164
 20
-2.13172
  0
LWPOLYLINE
  5
6E
100
AcDbEntity
  8
0
  6
ByLayer
 62
    3
370
   -1
100
AcDbPolyline
 90
    5
 70
    1
 43
0
 10
5.67449
 20
-1.4661
 10
5.83604
 20
-1.4661
 10
5.83604
 20
-3.999294704
 10
5.67449
 20
-3.999294704
 10
5.67449
 20
-1.4661
  0
LWPOLYLINE
  5
6F
100
AcDbEntity
  8
0
  6
ByLayer
 62
    3
370
   -1
100
AcDbPolyline
 90
    5
 70
    1
 43
0
 10
5.67449
 20
-1.4661
 10
5.83604
 20
-1.4661
 10
5.83604
 20
-3.999294704
 10
5.67449
 20
-3.999294704
 10
5.67449
 20
-1.4661
  0
LWPOLYLINE
  5
70
100
AcDbEntity
  8
0
  6
ByLayer
 62
    3
370
   -1
100
AcDbPolyline
 90
   25
 70
    1
 43
0
 10
6.64492
 20
-1.48546
 10
6.63232
 20
-1.48546
 10
6.59472
 20
-1.49561
 10
6.5536
 20
-1.52339
 10
6.52582
 20
-1.56451
 10
6.51568
 20
-1.60211
 10
6.51568
 20
-1.61469
 10
6.51568
 20
-1.62722
 10
6.52582
 20
-1.66488
 10
6.5536
 20
-1.70594
 10
6.59472
 20
-1.73372
 10
6.63232
 20
-1.74392
 10
6.64492
 20
-1.74392
 10
6.65744
 20
-1.74392
 10
6.6951
 20
-1.73372
 10
6.73617
 20
-1.70594
 10
6.76394
 20
-1.66488
 10
6.77419
 20
-1.62722
 10
6.77419
 20
-1.61469
 10
6.77419
 20
-1.60211
 10
6.76394
 20
-1.56451
 10
6.73617
 20
-1.52339
 10
6.6951
 20
-1.49561
 10
6.65744
 20
-1.48546
 10
6.64492
 20
-1.48546
  0
LWPOLYLINE
  5
71
100
AcDbEntity
  8
0
  6
ByLayer
 62
    3
370
   -1
100
AcDbPolyline
 90
   25
 70
    1
 43
0
 10
6.64492
 20
-1.48546
 10
6.63232
 20
-1.48546
 10
6.59472
 20
-1.49561
 10
6.5536
 20
-1.52339
 10
6.52582
 20
-1.56451
 10
6.51568
 20
-1.60211
 10
6.51568
 20
-1.61469
 10
6.51568
 20
-1.62722
 10
6.52582
 20
-1.66488
 10
6.5536
 20
-1.70594
 10
6.59472
 20
-1.73372
 10
6.63232
 20
-1.74392
 10
6.64492
 20
-1.74392
 10
6.65744
 20
-1.74392
 10
6.6951
 20
-1.73372
 10
6.73617
 20
-1.70594
 10
6.76394
 20
-1.66488
 10
6.77419
 20
-1.62722
 10
6.77419
 20
-1.61469
 10
6.77419
 20
-1.60211
 10
6.76394
 20
-1.56451
 10
6.73617
 20
-1.52339
 10
6.6951
 20
-1.49561
 10
6.65744
 20
-1.48546
 10
6.64492
 20
-1.48546
  0
LWPOLYLINE
  5
72
100
AcDbEntity
  8
0
  6
ByLayer
 62
    3
370
   -1
100
AcDbPolyline
 90
    5
 70
    1
 43
0
 10
6.56413
 20
-2.13172
 10
6.72569
 20
-2.13172
 10
6.72569
 20
-3.999294704
 10
6.56413
 20
-3.999294704
 10
6.56413
 20
-2.13172
  0
LWPOLYLINE
  5
73
100
AcDbEntity
  8
0
  6
ByLayer
 62
    3
370
   -1
100
AcDbPolyline
 90
    5
 70
    1
 43
0
 10
6.56413
 20
-2.13172
 10
6.72569
 20
-2.13172
 10
6.72569
 20
-3.999294704
 10
6.56413
 20
-3.999294704
 10
6.56413
 20
-2.13172
  0
LWPOLYLINE
  5
74
100
AcDbEntity
  8
0
  6
ByLayer
 62
    3
370
   -1
100
AcDbPolyline
 90
   47
 70
    1
 43
0
 10
7.95215
 20
-2.13172
 10
7.91878
 20
-2.13172
 10
7.818849999999999
 20
-2.14632
 10
7.694559999999999
 20
-2.18832
 10
7.582079999999999
 20
-2.25456
 10
7.484
 20
-2.34213
 10
7.403
 20
-2.44803
 10
7.341850000000001
 20
-2.56922
 10
7.30317
 20
-2.70285
 10
7.289709999999999
 20
-2.81006
 10
7.289709999999999
 20
-2.84581
 10
7.289709999999999
 20
-3.999294704
 10
7.451280000000001
 20
-3.999294704
 10
7.451280000000001
 20
-2.84581
 10
7.451280000000001
 20
-2.81809
 10
7.46153
 20
-2.73497
 10
7.49094
 20
-2.63178
 10
7.53749
 20
-2.53847
 10
7.599069999999999
 20
-2.45719
 10
7.673719999999999
 20
-2.39019
 10
7.75933
 20
-2.33957
 10
7.85389
 20
-2.30761
 10
7.929959999999999
 20
-2.2965
 10
7.955349999999999
 20
-2.2965
 10
7.98068
 20
-2.2965
 10
8.056749999999999
 20
-2.30761
 10
8.15132
 20
-2.33957
 10
8.236929999999999
 20
-2.39019
 10
8.311579999999999
 20
-2.45719
 10
8.373150000000001
 20
-2.53847
 10
8.41971
 20
-2.63178
 10
8.449109999999999
 20
-2.73497
 10
8.45942
 20
-2.81809
 10
8.45942
 20
-2.84581
 10
8.45942
 20
-3.999294704
 10
8.61453
 20
-3.999294704
 10
8.61453
 20
-2.84581
 10
8.61453
 20
-2.81006
 10
8.60101
 20
-2.70285
 10
8.562329999999999
 20
-2.56922
 10
8.501189999999999
 20
-2.44803
 10
8.42019
 20
-2.34213
 10
8.322150000000001
 20
-2.25456
 10
8.20964
 20
-2.18832
 10
8.08539
 20
-2.14632
 10
7.98546
 20
-2.13172
 10
7.95215
 20
-2.13172
  0
LWPOLYLINE
  5
75
100
AcDbEntity
  8
0
  6
ByLayer
 62
    3
370
   -1
100
AcDbPolyline
 90
   47
 70
    1
 43
0
 10
7.95215
 20
-2.13172
 10
7.91878
 20
-2.13172
 10
7.818849999999999
 20
-2.14632
 10
7.694559999999999
 20
-2.18832
 10
7.582079999999999
 20
-2.25456
 10
7.484
 20
-2.34213
 10
7.403
 20
-2.44803
 10
7.341850000000001
 20
-2.56922
 10
7.30317
 20
-2.70285
 10
7.289709999999999
 20
-2.81006
 10
7.289709999999999
 20
-2.84581
 10
7.289709999999999
 20
-3.999294704
 10
7.451280000000001
 20
-3.999294704
 10
7.451280000000001
 20
-2.84581
 10
7.451280000000001
 20
-2.81809
 10
7.46153
 20
-2.73497
 10
7.49094
 20
-2.63178
 10
7.53749
 20
-2.53847
 10
7.599069999999999
 20
-2.45719
 10
7.673719999999999
 20
-2.39019
 10
7.75933
 20
-2.33957
 10
7.85389
 20
-2.30761
 10
7.929959999999999
 20
-2.2965
 10
7.955349999999999
 20
-2.2965
 10
7.98068
 20
-2.2965
 10
8.056749999999999
 20
-2.30761
 10
8.15132
 20
-2.33957
 10
8.236929999999999
 20
-2.39019
 10
8.311579999999999
 20
-2.45719
 10
8.373150000000001
 20
-2.53847
 10
8.41971
 20
-2.63178
 10
8.449109999999999
 20
-2.73497
 10
8.45942
 20
-2.81809
 10
8.45942
 20
-2.84581
 10
8.45942
 20
-3.999294704
 10
8.61453
 20
-3.999294704
 10
8.61453
 20
-2.84581
 10
8.61453
 20
-2.81006
 10
8.60101
 20
-2.70285
 10
8.562329999999999
 20
-2.56922
 10
8.501189999999999
 20
-2.44803
 10
8.42019
 20
-2.34213
 10
8.322150000000001
 20
-2.25456
 10
8.20964
 20
-2.18832
 10
8.08539
 20
-2.14632
 10
7.98546
 20
-2.13172
 10
7.95215
 20
-2.13172
  0
LWPOLYLINE
  5
76
100
AcDbEntity
  8
0
  6
ByLayer
 62
    3
370
   -1
100
AcDbPolyline
 90
   25
 70
    1
 43
0
 10
9.088699999999999
 20
-1.4661
 10
9.088699999999999
 20
-3.999294704
 10
9.2502
 20
-3.999294704
 10
9.2502
 20
-3.165636
 10
9.418200000000001
 20
-3.013781
 10
9.424099999999999
 20
-3.008356
 10
9.4499
 20
-3.001031
 10
9.490500000000001
 20
-3.011339
 10
9.537699999999999
 20
-3.04465
 10
9.5776
 20
-3.085992
 10
9.589499999999999
 20
-3.101019
 10
10.2744
 20
-3.999294704
 10
10.4941
 20
-3.999294704
 10
9.709
 20
-2.96213
 10
9.699299999999999
 20
-2.94971
 10
9.667999999999999
 20
-2.91417
 10
9.6327
 20
-2.88173
 10
9.604100000000001
 20
-2.86437
 10
9.5877
 20
-2.86057
 10
9.583
 20
-2.86193
 10
10.3843
 20
-2.13172
 10
10.1388
 20
-2.13172
 10
9.2502
 20
-2.95888
 10
9.2502
 20
-1.4661
 10
9.088699999999999
 20
-1.4661
  0
LWPOLYLINE
  5
77
100
AcDbEntity
  8
0
  6
ByLayer
 62
    3
370
   -1
100
AcDbPolyline
 90
   25
 70
    1
 43
0
 10
9.088699999999999
 20
-1.4661
 10
9.088699999999999
 20
-3.999294704
 10
9.2502
 20
-3.999294704
 10
9.2502
 20
-3.165636
 10
9.418200000000001
 20
-3.013781
 10
9.424099999999999
 20
-3.008356
 10
9.4499
 20
-3.001031
 10
9.490500000000001
 20
-3.011339
 10
9.537699999999999
 20
-3.04465
 10
9.5776
 20
-3.085992
 10
9.589499999999999
 20
-3.101019
 10
10.2744
 20
-3.999294704
 10
10.4941
 20
-3.999294704
 10
9.709
 20
-2.96213
 10
9.699299999999999
 20
-2.94971
 10
9.667999999999999
 20
-2.91417
 10
9.6327
 20
-2.88173
 10
9.604100000000001
 20
-2.86437
 10
9.5877
 20
-2.86057
 10
9.583
 20
-2.86193
 10
10.3843
 20
-2.13172
 10
10.1388
 20
-2.13172
 10
9.2502
 20
-2.95888
 10
9.2502
 20
-1.4661
 10
9.088699999999999
 20
-1.4661
  0
LWPOLYLINE
  5
78
100
AcDbEntity
  8
0
  6
ByLayer
 62
    3
370
   -1
100
AcDbPolyline
 90
   71
 70
    1
 43
0
 10
3.40229
 20
-3.068739
 10
3.50711
 20
-3.059571
 10
3.63439
 20
-3.03304
 10
3.74735
 20
-2.99051
 10
3.84397
 20
-2.93338
 10
3.92242
 20
-2.86312
 10
3.98079
 20
-2.78109
 10
4.01719
 20
-2.68864
 10
4.02979
 20
-2.61263
 10
4.02979
 20
-2.58729
 10
4.02979
 20
-2.56407
 10
4.01921
 20
-2.49442
 10
3.98833
 20
-2.40842
 10
3.93842
 20
-2.33094
 10
3.87061
 20
-2.26378
 10
3.78614
 20
-2.20856
 10
3.68625
 20
-2.16699
 10
3.5721
 20
-2.14079
 10
3.47672
 20
-2.13172
 10
3.44493
 20
-2.13172
 10
3.44493
 20
-2.13172
 10
3.40522
 20
-2.13172
 10
3.28608
 20
-2.15142
 10
3.13872
 20
-2.20763
 10
3.00581
 20
-2.29596
 10
2.89035
 20
-2.412
 10
2.79536
 20
-2.55137
 10
2.72379
 20
-2.70963
 10
2.67865
 20
-2.88249
 10
2.66297
 20
-3.019694
 10
2.66297
 20
-3.065483
 10
2.66297
 20
-3.115126
 10
2.67947
 20
-3.264214
 10
2.72651
 20
-3.444499
 10
2.80046
 20
-3.603732
 10
2.89762
 20
-3.739583
 10
3.01432
 20
-3.849501
 10
3.14686
 20
-3.9310439
 10
3.29161
 20
-3.9818251
 10
3.40657
 20
-3.999294704
 10
3.44493
 20
-3.999294704
 10
3.49729
 20
-3.999294704
 10
3.65446
 20
-3.9752604
 10
3.82015
 20
-3.9087999
 10
3.95242
 20
-3.808431
 10
4.03711
 20
-3.715929
 10
4.06207
 20
-3.682671
 10
3.93283
 20
-3.585721
 10
3.90918
 20
-3.617621
 10
3.82568
 20
-3.704101
 10
3.71067
 20
-3.781956
 10
3.58475
 20
-3.824653
 10
3.47987
 20
-3.837728
 10
3.44493
 20
-3.837728
 10
3.41374
 20
-3.837728
 10
3.32021
 20
-3.821724
 10
3.20449
 20
-3.77691
 10
3.10015
 20
-3.708225
 10
3.0095
 20
-3.620443
 10
2.9349
 20
-3.518392
 10
2.87875
 20
-3.406956
 10
2.84332
 20
-3.291015
 10
2.831
 20
-3.204264
 10
2.831
 20
-3.175347
 10
2.831
 20
-3.163683
 10
2.83789
 20
-3.128689
 10
2.85726
 20
-3.095378
 10
2.88688
 20
-3.075358
 10
2.91521
 20
-3.068739
 10
2.92469
 20
-3.068739
 10
3.36735
 20
-3.068739
  0
LWPOLYLINE
  5
79
100
AcDbEntity
  8
0
  6
ByLayer
 62
    3
370
   -1
100
AcDbPolyline
 90
   38
 70
    1
 43
0
 10
3.37061
 20
-2.91043
 10
2.93115
 20
-2.91043
 10
2.93115
 20
-2.91043
 10
2.92242
 20
-2.91064
 10
2.90001
 20
-2.91243
 10
2.86979
 20
-2.91721
 10
2.84526
 20
-2.9235
 10
2.83746
 20
-2.92654
 10
2.84244
 20
-2.89361
 10
2.86697
 20
-2.79633
 10
2.91325
 20
-2.67627
 10
2.97456
 20
-2.56853
 10
3.0491
 20
-2.47537
 10
3.13514
 20
-2.39903
 10
3.23096
 20
-2.34174
 10
3.33479
 20
-2.30572
 10
3.41737
 20
-2.29324
 10
3.44493
 20
-2.29324
 10
3.44493
 20
-2.29324
 10
3.47032
 20
-2.29324
 10
3.5466
 20
-2.30013
 10
3.63374
 20
-2.31961
 10
3.70665
 20
-2.34961
 10
3.76563
 20
-2.38812
 10
3.81093
 20
-2.43315
 10
3.84293
 20
-2.48269
 10
3.86193
 20
-2.53472
 10
3.86822
 20
-2.57411
 10
3.86822
 20
-2.58729
 10
3.86822
 20
-2.60417
 10
3.85872
 20
-2.65495
 10
3.83132
 20
-2.7168
 10
3.78743
 20
-2.77186
 10
3.72846
 20
-2.81912
 10
3.65582
 20
-2.85758
 10
3.57101
 20
-2.88628
 10
3.47547
 20
-2.90419
 10
3.39681
 20
-2.91043
  0
ENDBLK
  5
4F
330
4D
100
AcDbEntity
  8
0
100
AcDbBlockEnd
  0
ENDSEC
  0
SECTION
  2
ENTITIES
  0
INSERT
  5
7A
100
AcDbEntity
  8
0
  6
ByLayer
 62
  256
370
   -1
100
AcDbBlockReference
  2
enerlink
 10
1
 20
4
 30
0
 41
1
 42
1
 43
0
 50
0
 70
    1
 71
    1
 44
0
 45
0
  0
ENDSEC
  0
SECTION
  2
OBJECTS
  0
DICTIONARY
  5
C
330
0
100
AcDbDictionary
281
    1
  3
ACAD_GROUP
350
D
  0
DICTIONARY
  5
D
330
C
100
AcDbDictionary
281
    1
  0
ENDSEC
  0
EOF
