<?xml version="1.0" encoding="UTF-8" standalone="no"?>
<!-- Created with sK1/UniConvertor (http://sk1project.org/) -->

<svg
   xmlns:dc="http://purl.org/dc/elements/1.1/"
   xmlns:cc="http://creativecommons.org/ns#"
   xmlns:rdf="http://www.w3.org/1999/02/22-rdf-syntax-ns#"
   xmlns:svg="http://www.w3.org/2000/svg"
   xmlns="http://www.w3.org/2000/svg"
   xmlns:sodipodi="http://sodipodi.sourceforge.net/DTD/sodipodi-0.dtd"
   xmlns:inkscape="http://www.inkscape.org/namespaces/inkscape"
   width="850pt"
   height="750pt"
   viewBox="0 0 850 749.99999"
   version="1.1"
   id="svg184"
   sodipodi:docname="enerlink.svg"
   inkscape:version="0.92.3 (2405546, 2018-03-11)"
   style="fill-rule:evenodd">
  <metadata
     id="metadata190">
    <rdf:RDF>
      <cc:Work
         rdf:about="">
        <dc:format>image/svg+xml</dc:format>
        <dc:type
           rdf:resource="http://purl.org/dc/dcmitype/StillImage" />
        <dc:title></dc:title>
      </cc:Work>
    </rdf:RDF>
  </metadata>
  <defs
     id="defs188" />
  <sodipodi:namedview
     pagecolor="#ffffff"
     bordercolor="#666666"
     borderopacity="1"
     objecttolerance="10"
     gridtolerance="10"
     guidetolerance="10"
     inkscape:pageopacity="0"
     inkscape:pageshadow="2"
     inkscape:window-width="1920"
     inkscape:window-height="992"
     id="namedview186"
     showgrid="false"
     inkscape:zoom="0.58308138"
     inkscape:cx="398.74093"
     inkscape:cy="552.94619"
     inkscape:window-x="0"
     inkscape:window-y="24"
     inkscape:window-maximized="1"
     inkscape:current-layer="svg184" />
  <path
     style="fill:#00ff00;fill-opacity:1;stroke:#00ff00;stroke-width:0.1;stroke-linecap:round;stroke-linejoin:round"
     d="m 469.09735,40.125898 c -34.044,0 -61.64355,27.59856 -61.64355,61.643562 0,9.79595 2.29558,19.05211 6.36181,27.27684 l -0.0117,-0.0117 -402.227055,410.03171 h 54.950682 l 374.915033,-382.19676 -0.0249,-0.0249 c 8.32515,4.19249 17.72266,6.5669 27.67968,6.5669 34.04401,0 61.6421,-27.5981 61.6421,-61.64209 -7.5e-4,-34.045002 -27.59809,-61.643562 -61.6421,-61.643562 z"
     id="path2"
     inkscape:connector-curvature="0" />
  <path
     inkscape:connector-curvature="0"
     id="path10"
     d="M 530.74,101.76899"
     style="fill:none;stroke:#00ff00;stroke-width:0.1;stroke-linecap:round;stroke-linejoin:round" />
  <path
     style="fill:#00ff00;fill-opacity:1;stroke:#00ff00;stroke-width:0.1;stroke-linecap:round;stroke-linejoin:round"
     d="m 457.54999,215.88664 c -16.349,0 -32.02835,6.49467 -43.58936,18.05567 -11.55999,11.56 -18.0542,27.23889 -18.0542,43.58788 0,9.55865 2.23633,18.88109 6.39112,27.29297 l -0.0352,-0.0352 -229.81493,234.27831 h 54.95068 l 202.50732,-206.44481 -0.0308,-0.0308 c 8.51096,4.27749 17.97119,6.58154 27.67529,6.58154 34.044,0 61.64209,-27.5981 61.64209,-61.64209 0,-34.045 -27.59809,-61.64355 -61.64209,-61.64355 z"
     id="path12"
     inkscape:connector-curvature="0" />
  <path
     inkscape:connector-curvature="0"
     id="path24"
     d="M 519.192,277.52999"
     style="fill:none;stroke:#00ff00;stroke-width:0.1;stroke-linecap:round;stroke-linejoin:round" />
  <path
     style="fill:#00ff00;fill-opacity:1;stroke:#00ff00;stroke-width:0.1;stroke-linecap:round;stroke-linejoin:round"
     d="m 455.0993,380.91592 c -34.044,0 -61.64208,27.59856 -61.64208,61.64356 -5.9e-4,9.55547 2.23295,18.87457 6.38525,27.28418 l -0.0307,-0.0308 -67.93798,69.25341 h 54.96093 l 40.62452,-41.41406 -0.0308,-0.0308 c 8.5098,4.2758 17.96905,6.58008 27.67089,6.58008 16.349,7.5e-4 32.0279,-6.4942 43.58789,-18.0542 11.56101,-11.561 18.05421,-27.23989 18.05421,-43.58789 0,-34.045 -27.59709,-61.64355 -61.6421,-61.64355 z"
     id="path26"
     inkscape:connector-curvature="0" />
  <path
     inkscape:connector-curvature="0"
     id="path38"
     d="M 516.742,442.55898"
     style="fill:none;stroke:#00ff00;stroke-width:0.1;stroke-linecap:round;stroke-linejoin:round" />
  <path
     style="fill:#00ff00;fill-opacity:1;stroke:#00ff00;stroke-width:0.1;stroke-linecap:round;stroke-linejoin:round"
     d="m 747.25359,233.33732 c -34.045,0 -61.64355,27.59709 -61.64355,61.64209 0,9.5571 2.23449,18.87923 6.38819,27.29004 l -0.0322,-0.0322 -212.69971,216.82909 h 54.94922 l 185.39209,-188.9956 -0.0308,-0.0308 c 8.51113,4.27798 17.9721,6.58301 27.67675,6.58301 16.34799,0 32.02787,-6.49566 43.58792,-18.05565 11.55997,-11.56001 18.05415,-27.2399 18.05415,-43.58789 0,-34.04501 -27.59805,-61.6421 -61.64207,-61.6421 z"
     id="path40"
     inkscape:connector-curvature="0" />
  <path
     inkscape:connector-curvature="0"
     id="path52"
     d="M 808.896,294.97999"
     style="fill:none;stroke:#00ff00;stroke-width:0.1;stroke-linecap:round;stroke-linejoin:round" />
  <path
     style="fill:#00ff00;fill-opacity:1;stroke:#00ff00;stroke-width:0.1;stroke-linecap:round;stroke-linejoin:round"
     d="m 778.40643,366.47843 c -9.71415,-0.0148 -19.42005,2.30312 -28.062,6.74414 -20.28117,10.14231 -33.85342,32.19801 -33.58009,54.89794 -0.0143,9.41844 2.16984,18.82722 6.3501,27.26807 l -82.08399,83.67773 h 54.94043 l 54.78222,-55.84277 -0.0735,-0.0747 c 8.5506,4.33848 18.07808,6.73169 27.7266,6.61523 16.34903,0 32.02785,-6.49419 43.5879,-18.0542 11.55998,-11.56099 18.05565,-27.24035 18.05565,-43.58935 0,-34.044 -27.59955,-61.64209 -61.64355,-61.64209 z"
     id="path54"
     inkscape:connector-curvature="0" />
  <path
     inkscape:connector-curvature="0"
     id="path64"
     d="M 840.05,428.12098"
     style="fill:none;stroke:#00ff00;stroke-width:0.1;stroke-linecap:round;stroke-linejoin:round" />
  <path
     style="fill:#00ff00;fill-opacity:1;stroke:#00ff00;stroke-width:0.1;stroke-linecap:round;stroke-linejoin:round"
     d="M 0.05,567.55752 V 749.94958 H 108.92744 V 738.31731 H 11.915234 v -71.41995 c 0,-2.32703 1.162497,-7.44578 9.537597,-7.44578 H 108.69453 V 647.82071 H 21.452831 c -5.3508,0 -6.978807,0.46443 -9.770507,1.62744 v -70.25831 h 97.012206 v -11.63232 z"
     id="path74"
     inkscape:connector-curvature="0" />
  <path
     style="fill:#00ff00;fill-opacity:1;stroke:#00ff00;stroke-width:0.1;stroke-linecap:round;stroke-linejoin:round"
     d="m 187.90156,615.48281 c -26.288,0 -47.69092,23.26455 -47.69092,51.41455 v 83.05222 h 11.63086 v -83.05222 c 0,-21.86899 16.28597,-39.55078 36.29297,-39.55078 20.007,0 36.2915,17.68179 36.2915,39.55078 v 83.05222 h 11.1665 v -83.05222 c 0,-28.15 -21.40191,-51.41455 -47.69091,-51.41455 z"
     id="path76"
     inkscape:connector-curvature="0" />
  <path
     style="fill:#00ff00;fill-opacity:1;stroke:#00ff00;stroke-width:0.1;stroke-linecap:round;stroke-linejoin:round"
     d="m 320.03485,615.48281 c -31.407,0 -56.2998,31.4064 -56.2998,67.2334 0,39.78202 26.28881,67.23337 56.2998,67.23337 22.56601,0 34.66358,-9.77077 44.43458,-22.7988 l -9.30615,-6.97852 c -10.00401,13.49302 -20.93742,18.14505 -35.12843,18.14505 -24.66,0 -44.20165,-25.82295 -44.20165,-47.69093 0,-5.118 2.7906,-7.6773 6.7456,-7.6773 h 31.87207 c 27.917,0 47.69239,-14.424 47.69239,-34.66402 0,-18.379 -16.5184,-32.80225 -42.10841,-32.80225 z m 0,11.63232 c 20.93801,0 30.47608,11.16693 30.47608,21.16993 0,13.49302 -14.88915,23.26462 -35.82715,23.26462 h -31.63916 c 0,0 -3.72307,0 -6.74707,1.1631 3.955,-25.82399 22.1013,-45.59765 43.7373,-45.59765 z"
     id="path106"
     inkscape:connector-curvature="0" />
  <path
     inkscape:connector-curvature="0"
     id="path114"
     d="M 320.035,749.94998"
     style="fill:none;stroke:#00ff00;stroke-width:0.1;stroke-linecap:round;stroke-linejoin:round" />
  <path
     inkscape:connector-curvature="0"
     id="path122"
     d="M 320.035,627.11498"
     style="fill:none;stroke:#00ff00;stroke-width:0.1;stroke-linecap:round;stroke-linejoin:round" />
  <path
     style="fill:#00ff00;fill-opacity:1;stroke:#00ff00;stroke-width:0.1;stroke-linecap:round;stroke-linejoin:round"
     d="m 440.75849,615.48281 c -26.289,0 -47.92383,23.26464 -47.92383,51.18167 v 83.2851 h 11.63085 v -83.2851 c 0,-21.86803 16.28598,-39.54935 36.29298,-39.54935 z"
     id="path126"
     inkscape:connector-curvature="0" />
  <path
     inkscape:connector-curvature="0"
     id="path134"
     d="m 480.562,749.94998 h 11.632 v -182.392 h -11.632 z"
     style="fill:#00ff00;fill-opacity:1;stroke:#00ff00;stroke-width:0.1;stroke-linecap:round;stroke-linejoin:round" />
  <path
     style="fill:#00ff00;fill-opacity:1;stroke:#00ff00;stroke-width:0.1;stroke-linecap:round;stroke-linejoin:round"
     d="m 550.43426,568.95352 c -5.118,0 -9.30469,4.18815 -9.30469,9.30615 0,5.118 4.18669,9.30469 9.30469,9.30469 5.118,0 9.30616,-4.18669 9.30616,-9.30469 0,-5.118 -4.18816,-9.30615 -9.30616,-9.30615 z"
     id="path138"
     inkscape:connector-curvature="0" />
  <path
     inkscape:connector-curvature="0"
     id="path144"
     d="m 544.618,749.94998 h 11.632 v -134.467 h -11.632 z"
     style="fill:#00ff00;fill-opacity:1;stroke:#00ff00;stroke-width:0.1;stroke-linecap:round;stroke-linejoin:round" />
  <path
     inkscape:connector-curvature="0"
     id="path146"
     d="M 541.129,578.25998"
     style="fill:none;stroke:#00ff00;stroke-width:0.1;stroke-linecap:round;stroke-linejoin:round" />
  <path
     style="fill:#00ff00;fill-opacity:1;stroke:#00ff00;stroke-width:0.1;stroke-linecap:round;stroke-linejoin:round"
     d="m 644.5534,615.48281 c -26.289,0 -47.69238,23.26455 -47.69238,51.41455 v 83.05222 h 11.63232 v -83.05222 c 0,-21.86899 16.2845,-39.55078 36.2915,-39.55078 20.007,0 36.29151,17.68179 36.29151,39.55078 v 83.05222 h 11.16797 v -83.05222 c 0,-28.15 -21.40292,-51.41455 -47.69092,-51.41455 z"
     id="path158"
     inkscape:connector-curvature="0" />
  <path
     style="fill:#00ff00;fill-opacity:1;stroke:#00ff00;stroke-width:0.1;stroke-linecap:round;stroke-linejoin:round"
     d="m 726.38104,567.55752 v 182.39206 h 11.63232 v -60.02197 l 12.09669,-10.93358 c 2.559,-2.32597 7.21155,-0.23272 12.32955,6.28125 l 49.31985,64.6743 h 15.82028 l -56.53125,-74.67772 c -4.18695,-5.35095 -7.4442,-7.67738 -9.0732,-7.2114 l 57.69435,-52.57765 H 801.9904 l -63.97704,59.55617 V 567.55752 Z"
     id="path162"
     inkscape:connector-curvature="0" />
</svg>
