  0
SECTION
  2
HEADER
  9
$ACADVER
  1
AC1009
  9
$INSBASE
 10
0.0
 20
0.0
 30
0.0
  9
$EXTMIN
 10
0.0
 20
0.0
 30
0.0
  9
$EXTMAX
 10
0.0
 20
0.0
 30
0.0
  0
ENDSEC
  0
SECTION
  2
TABLES
  0
TABLE
  2
VPORT
 70
1
  0
VPORT
  2
*ACTIVE
 70
0
 10
0.0
 20
0.0
 11
1.0
 21
1.0
 12
-5.0
 22
1.0
 13
0.0
 23
0.0
 14
0.1
 24
0.1
 15
0.1
 25
0.1
 16
0.0
 26
0.0
 36
1.0
 17
0.0
 27
0.0
 37
0.0
 40
10.0
 41
1.0
 42
50.0
 43
0.0
 44
0.0
 50
0.0
 51
0.0
 71
0
 72
100
 73
1
 74
1
 75
0
 76
0
 77
0
 78
0
  0
ENDTAB
  0
TABLE
  2
LTYPE
 70
8
  0
LTYPE
  2
CONTINUOUS
 70
0
  3
Solid line
 72
65
 73
0
 40
0.0
  0
LTYPE
  2
DOT
 70
0
  3
. . . . . . .
 72
65
 73
2
 40
0.25
 49
0.0
 49
-0.25
  0
LTYPE
  2
DASHED
 70
0
  3
__ __ __ __ __
 72
65
 73
2
 40
0.8
 49
0.5
 49
-0.3
  0
LTYPE
  2
DASHDOT
 70
0
  3
__ . __ . __ .
 72
65
 73
4
 40
1.0
 49
0.5
 49
-0.25
 49
0.0
 49
-0.25
  0
LTYPE
  2
DIVIDE
 70
0
  3
____ . . ____ . . 
 72
65
 73
6
 40
1.25
 49
0.5
 49
-0.25
 49
0.0
 49
-0.25
 49
0.0
 49
-0.25
  0
LTYPE
  2
BORDER
 70
0
  3
__ __ . __ __ . 
 72
65
 73
6
 40
1.75
 49
0.5
 49
-0.25
 49
0.5
 49
-0.25
 49
0.0
 49
-0.25
  0
LTYPE
  2
HIDDEN
 70
0
  3
__ __ __ __ __
 72
65
 73
2
 40
0.4
 49
0.25
 49
-0.25
  0
LTYPE
  2
CENTER
 70
0
  3
____ _ ____ _ __
 72
65
 73
4
 40
2.0
 49
1.25
 49
-0.25
 49
0.25
 49
-0.25
  0
ENDTAB
  0
TABLE
  2
LAYER
 70
1
  0
LAYER
  2
PYDXF
 70
64
 62
7
  6
continuous
  0
ENDTAB
  0
TABLE
  2
STYLE
 70
1
  0
STYLE
  2
STANDARD
 70
0
 40
0
 41
1.0
 50
0.0
 71
0
 42
1
 3
ARIAL.TTF
 4

  0
ENDTAB
  0
TABLE
  2
VIEW
 70
1
  0
VIEW
  2
BF_TOPVIEW
 70
0
 40
120.0
 10
0.0
 20
0.0
 41
200.0
 11
0.0
 21
0.0
 31
1.0
 12
0.0
 22
0.0
 32
0.0
 42
50.0
 43
0.0
 44
0.0
 50
0.0
 71
0
  0
ENDTAB
  0
ENDSEC
  0
SECTION
  2
BLOCKS
  0
ENDSEC
  0
SECTION
  2
ENTITIES
  0
LINE
  8
0
 10
34.199798583984375
 20
51.32830047607422
 30
0.0
 11
34.100502014160156
 21
51.312599182128906
 31
0.0
  0
LINE
  8
0
 10
32.60559844970703
 20
-51.95949935913086
 30
0.0
 11
32.549102783203125
 21
-52.042701721191406
 31
0.0
  0
LINE
  8
0
 10
-35.194400787353516
 20
-51.95949935913086
 30
0.0
 11
-35.25090026855469
 21
-52.042701721191406
 31
0.0
  0
LINE
  8
0
 10
35.5
 20
52.900001525878906
 30
0.0
 11
35.496803283691406
 21
52.79949951171875
 31
0.0
  0
LINE
  8
0
 10
33.502098083496094
 20
-51.35029983520508
 30
0.0
 11
33.405601501464844
 21
-51.378299713134766
 31
0.0
  0
LINE
  8
0
 10
33.79949951171875
 20
-51.303199768066406
 30
0.0
 11
33.699501037597656
 21
-51.312599182128906
 31
0.0
  0
LINE
  8
0
 10
-36.83205795288086
 20
55.29970169067383
 30
0.0
 11
-36.6658821105957
 21
55.48820114135742
 31
0.0
  0
LINE
  8
0
 10
33.502098083496094
 20
51.35029983520508
 30
0.0
 11
33.405601501464844
 21
51.378299713134766
 31
0.0
  0
LINE
  8
0
 10
-34.757301330566406
 20
-51.54909896850586
 30
0.0
 11
-34.84049987792969
 21
-51.60559844970703
 31
0.0
  0
LINE
  8
0
 10
-33.75
 20
-56.75
 30
0.0
 11
-34.00120162963867
 21
-56.74209976196289
 31
0.0
  0
LINE
  8
0
 10
-32.549102783203125
 20
-53.757301330566406
 30
0.0
 11
-32.60560607910156
 21
-53.84049987792969
 31
0.0
  0
LINE
  8
0
 10
34.100502014160156
 20
51.312599182128906
 30
0.0
 11
34.00050354003906
 21
51.303199768066406
 31
0.0
  0
LINE
  8
0
 10
33.699501037597656
 20
-51.312599182128906
 30
0.0
 11
33.600196838378906
 21
-51.32830047607422
 31
0.0
  0
LINE
  8
0
 10
33.900001525878906
 20
-51.29999923706055
 30
0.0
 11
33.79949951171875
 21
-51.303199768066406
 31
0.0
  0
LINE
  8
0
 10
-34.29790115356445
 20
-51.35029983520508
 30
0.0
 11
-34.3943977355957
 21
-51.378299713134766
 31
0.0
  0
LINE
  8
0
 10
33.600196838378906
 20
-51.32830047607422
 30
0.0
 11
33.502098083496094
 21
-51.35029983520508
 31
0.0
  0
LINE
  8
0
 10
32.959503173828125
 20
51.60559844970703
 30
0.0
 11
32.880096435546875
 21
51.667198181152344
 31
0.0
  0
LINE
  8
0
 10
34.00050354003906
 20
-51.303199768066406
 30
0.0
 11
33.900001525878906
 21
-51.29999923706055
 31
0.0
  0
LINE
  8
0
 10
34.670799255371094
 20
51.49789810180664
 30
0.0
 11
34.581199645996094
 21
51.452301025390625
 31
0.0
  0
LINE
  8
0
 10
32.880096435546875
 20
51.667198181152344
 30
0.0
 11
32.80470275878906
 21
51.733699798583984
 31
0.0
  0
LINE
  8
0
 10
-35.42169952392578
 20
53.39440155029297
 30
0.0
 11
-35.44969940185547
 21
53.29790115356445
 31
0.0
  0
LINE
  8
0
 10
32.73370361328125
 20
-51.8046989440918
 30
0.0
 11
32.667198181152344
 21
-51.88010025024414
 31
0.0
  0
LINE
  8
0
 10
34.757301330566406
 20
51.54909896850586
 30
0.0
 11
34.670799255371094
 21
51.49789810180664
 31
0.0
  0
LINE
  8
0
 10
-34.3943977355957
 20
-51.378299713134766
 30
0.0
 11
-34.4890022277832
 21
-51.41239929199219
 31
0.0
  0
LINE
  8
0
 10
33.75
 20
-56.75
 30
0.0
 11
34.001197814941406
 21
-56.74209976196289
 31
0.0
  0
LINE
  8
0
 10
32.73370361328125
 20
51.8046989440918
 30
0.0
 11
32.667198181152344
 21
51.88010025024414
 31
0.0
  0
LINE
  8
0
 10
-35.25090026855469
 20
-52.042701721191406
 30
0.0
 11
-35.302101135253906
 21
-52.12919998168945
 31
0.0
  0
LINE
  8
0
 10
34.919898986816406
 20
51.667198181152344
 30
0.0
 11
34.84049987792969
 21
51.60559844970703
 31
0.0
  0
LINE
  8
0
 10
-34.581199645996094
 20
-51.452301025390625
 30
0.0
 11
-34.670799255371094
 21
-51.49789810180664
 31
0.0
  0
LINE
  8
0
 10
35.487396240234375
 20
-53.10049819946289
 30
0.0
 11
35.471702575683594
 21
-53.199798583984375
 31
0.0
  0
LINE
  8
0
 10
32.80470275878906
 20
-51.733699798583984
 30
0.0
 11
32.73370361328125
 21
-51.8046989440918
 31
0.0
  0
LINE
  8
0
 10
35.34770202636719
 20
53.581199645996094
 30
0.0
 11
35.302101135253906
 21
53.670799255371094
 31
0.0
  0
LINE
  8
0
 10
-34.4890022277832
 20
-51.41239929199219
 30
0.0
 11
-34.581199645996094
 21
-51.452301025390625
 31
0.0
  0
LINE
  8
0
 10
34.919898986816406
 20
-51.667198181152344
 30
0.0
 11
34.84049987792969
 21
-51.60559844970703
 31
0.0
  0
LINE
  8
0
 10
32.80470275878906
 20
51.733699798583984
 30
0.0
 11
32.73370361328125
 21
51.8046989440918
 31
0.0
  0
LINE
  8
0
 10
35.42169952392578
 20
-53.39440155029297
 30
0.0
 11
35.387603759765625
 21
-53.48899841308594
 31
0.0
  0
LINE
  8
0
 10
36.98609924316406
 20
-55.101200103759766
 30
0.0
 11
36.832000732421875
 21
-55.29970169067383
 31
0.0
  0
LINE
  8
0
 10
34.99530029296875
 20
-51.733699798583984
 30
0.0
 11
34.919898986816406
 21
-51.667198181152344
 31
0.0
  0
LINE
  8
0
 10
34.84049987792969
 20
51.60559844970703
 30
0.0
 11
34.757301330566406
 21
51.54909896850586
 31
0.0
  0
LINE
  8
0
 10
-33.40559768676758
 20
-51.378299713134766
 30
0.0
 11
-33.50210189819336
 21
-51.35029983520508
 31
0.0
  0
LINE
  8
0
 10
32.497901916503906
 20
52.12919998168945
 30
0.0
 11
32.452301025390625
 21
52.21879959106445
 31
0.0
  0
LINE
  8
0
 10
35.387603759765625
 20
53.48899841308594
 30
0.0
 11
35.34770202636719
 21
53.581199645996094
 31
0.0
  0
LINE
  8
0
 10
35.42169952392578
 20
53.39440155029297
 30
0.0
 11
35.387603759765625
 21
53.48899841308594
 31
0.0
  0
LINE
  8
0
 10
-33.31100082397461
 20
-51.41239929199219
 30
0.0
 11
-33.40559768676758
 21
-51.378299713134766
 31
0.0
  0
LINE
  8
0
 10
35.06629943847656
 20
-51.8046989440918
 30
0.0
 11
34.99530029296875
 21
-51.733699798583984
 31
0.0
  0
LINE
  8
0
 10
-32.31260299682617
 20
52.699501037597656
 30
0.0
 11
-32.328304290771484
 21
52.60020065307617
 31
0.0
  0
LINE
  8
0
 10
-32.37830352783203
 20
53.39440155029297
 30
0.0
 11
-32.41240310668945
 21
53.48899841308594
 31
0.0
  0
LINE
  8
0
 10
32.452301025390625
 20
52.21879959106445
 30
0.0
 11
32.41239929199219
 21
52.31100082397461
 31
0.0
  0
LINE
  8
0
 10
34.48899841308594
 20
-51.41239929199219
 30
0.0
 11
34.39440155029297
 21
-51.378299713134766
 31
0.0
  0
LINE
  8
0
 10
37.71839904785156
 20
53.25130081176758
 30
0.0
 11
37.742103576660156
 21
53.00120162963867
 31
0.0
  0
LINE
  8
0
 10
35.496803283691406
 20
-53.0004997253418
 30
0.0
 11
35.487396240234375
 21
-53.10049819946289
 31
0.0
  0
LINE
  8
0
 10
35.44969940185547
 20
53.29790115356445
 30
0.0
 11
35.42169952392578
 21
53.39440155029297
 31
0.0
  0
LINE
  8
0
 10
35.471702575683594
 20
53.199798583984375
 30
0.0
 11
35.44969940185547
 21
53.29790115356445
 31
0.0
  0
LINE
  8
0
 10
32.549102783203125
 20
52.042701721191406
 30
0.0
 11
32.497901916503906
 21
52.12919998168945
 31
0.0
  0
LINE
  8
0
 10
34.199798583984375
 20
-51.32830047607422
 30
0.0
 11
34.100502014160156
 21
-51.312599182128906
 31
0.0
  0
LINE
  8
0
 10
35.487396240234375
 20
53.10049819946289
 30
0.0
 11
35.471702575683594
 21
53.199798583984375
 31
0.0
  0
LINE
  8
0
 10
-32.41240310668945
 20
53.48899841308594
 30
0.0
 11
-32.45230484008789
 21
53.581199645996094
 31
0.0
  0
LINE
  8
0
 10
-33.12919998168945
 20
-51.49789810180664
 30
0.0
 11
-33.21879959106445
 21
-51.452301025390625
 31
0.0
  0
LINE
  8
0
 10
34.581199645996094
 20
-51.452301025390625
 30
0.0
 11
34.48899841308594
 21
-51.41239929199219
 31
0.0
  0
LINE
  8
0
 10
32.37830352783203
 20
52.405601501464844
 30
0.0
 11
32.350303649902344
 21
52.50210189819336
 31
0.0
  0
LINE
  8
0
 10
-33.21879959106445
 20
-51.452301025390625
 30
0.0
 11
-33.31100082397461
 21
-51.41239929199219
 31
0.0
  0
LINE
  8
0
 10
32.41239929199219
 20
52.31100082397461
 30
0.0
 11
32.37830352783203
 21
52.405601501464844
 31
0.0
  0
LINE
  8
0
 10
32.667198181152344
 20
51.88010025024414
 30
0.0
 11
32.60559844970703
 21
51.95949935913086
 31
0.0
  0
LINE
  8
0
 10
32.60559844970703
 20
51.95949935913086
 30
0.0
 11
32.549102783203125
 21
52.042701721191406
 31
0.0
  0
LINE
  8
0
 10
34.100502014160156
 20
-51.312599182128906
 30
0.0
 11
34.00050354003906
 21
-51.303199768066406
 31
0.0
  0
LINE
  8
0
 10
35.5
 20
52.900001525878906
 30
0.0
 11
35.496803283691406
 21
53.0004997253418
 31
0.0
  0
LINE
  8
0
 10
-32.959503173828125
 20
-51.60559844970703
 30
0.0
 11
-33.04269790649414
 21
-51.54909896850586
 31
0.0
  0
LINE
  8
0
 10
-32.350303649902344
 20
52.50210189819336
 30
0.0
 11
-32.37830352783203
 21
52.405601501464844
 31
0.0
  0
LINE
  8
0
 10
-32.549102783203125
 20
53.757301330566406
 30
0.0
 11
-32.60560607910156
 21
53.84049987792969
 31
0.0
  0
LINE
  8
0
 10
-32.45230484008789
 20
-53.581199645996094
 30
0.0
 11
-32.497901916503906
 21
-53.670799255371094
 31
0.0
  0
LINE
  8
0
 10
-32.497901916503906
 20
53.670799255371094
 30
0.0
 11
-32.549102783203125
 21
53.757301330566406
 31
0.0
  0
LINE
  8
0
 10
-32.880104064941406
 20
-51.667198181152344
 30
0.0
 11
-32.959503173828125
 21
-51.60559844970703
 31
0.0
  0
LINE
  8
0
 10
34.581199645996094
 20
51.452301025390625
 30
0.0
 11
34.48899841308594
 21
51.41239929199219
 31
0.0
  0
LINE
  8
0
 10
35.496803283691406
 20
53.0004997253418
 30
0.0
 11
35.487396240234375
 21
53.10049819946289
 31
0.0
  0
LINE
  8
0
 10
-32.45230484008789
 20
53.581199645996094
 30
0.0
 11
-32.497901916503906
 21
53.670799255371094
 31
0.0
  0
LINE
  8
0
 10
-35.47169876098633
 20
-53.199798583984375
 30
0.0
 11
-35.48740005493164
 21
-53.10049819946289
 31
0.0
  0
LINE
  8
0
 10
-33.04269790649414
 20
-51.54909896850586
 30
0.0
 11
-33.12919998168945
 21
-51.49789810180664
 31
0.0
  0
LINE
  8
0
 10
-32.328304290771484
 20
52.60020065307617
 30
0.0
 11
-32.350303649902344
 21
52.50210189819336
 31
0.0
  0
LINE
  8
0
 10
34.48899841308594
 20
51.41239929199219
 30
0.0
 11
34.39440155029297
 21
51.378299713134766
 31
0.0
  0
LINE
  8
0
 10
-35.44969940185547
 20
-53.29790115356445
 30
0.0
 11
-35.47169876098633
 21
-53.199798583984375
 31
0.0
  0
LINE
  8
0
 10
-35.34769821166992
 20
-53.581199645996094
 30
0.0
 11
-35.38759994506836
 21
-53.48899841308594
 31
0.0
  0
LINE
  8
0
 10
34.29789733886719
 20
-51.35029983520508
 30
0.0
 11
34.199798583984375
 21
-51.32830047607422
 31
0.0
  0
LINE
  8
0
 10
-35.38759994506836
 20
-53.48899841308594
 30
0.0
 11
-35.42169952392578
 21
-53.39440155029297
 31
0.0
  0
LINE
  8
0
 10
-35.42169952392578
 20
-53.39440155029297
 30
0.0
 11
-35.44969940185547
 21
-53.29790115356445
 31
0.0
  0
LINE
  8
0
 10
34.39440155029297
 20
-51.378299713134766
 30
0.0
 11
34.29789733886719
 21
-51.35029983520508
 31
0.0
  0
LINE
  8
0
 10
-36.48820114135742
 20
-55.66590118408203
 30
0.0
 11
-36.6658821105957
 21
-55.48820114135742
 31
0.0
  0
LINE
  8
0
 10
34.29789733886719
 20
51.35029983520508
 30
0.0
 11
34.199798583984375
 21
51.32830047607422
 31
0.0
  0
LINE
  8
0
 10
-35.302101135253906
 20
-53.670799255371094
 30
0.0
 11
-35.34769821166992
 21
-53.581199645996094
 31
0.0
  0
LINE
  8
0
 10
-33.75
 20
56.75
 30
0.0
 11
-34.00120162963867
 21
56.74209976196289
 31
0.0
  0
LINE
  8
0
 10
-34.99530029296875
 20
-51.733699798583984
 30
0.0
 11
-35.06629943847656
 21
-51.8046989440918
 31
0.0
  0
LINE
  8
0
 10
34.39440155029297
 20
51.378299713134766
 30
0.0
 11
34.29789733886719
 21
51.35029983520508
 31
0.0
  0
LINE
  8
0
 10
37.75
 20
52.75
 30
0.0
 11
37.742103576660156
 21
53.00120162963867
 31
0.0
  0
LINE
  8
0
 10
33.600196838378906
 20
54.47169876098633
 30
0.0
 11
33.502098083496094
 21
54.44969940185547
 31
0.0
  0
LINE
  8
0
 10
-32.880104064941406
 20
54.1328010559082
 30
0.0
 11
-32.959503173828125
 21
54.194400787353516
 31
0.0
  0
LINE
  8
0
 10
33.502098083496094
 20
54.44969940185547
 30
0.0
 11
33.405601501464844
 21
54.42169952392578
 31
0.0
  0
LINE
  8
0
 10
-34.84049987792969
 20
-54.194400787353516
 30
0.0
 11
-34.919898986816406
 21
-54.1328010559082
 31
0.0
  0
LINE
  8
0
 10
-37.75
 20
-52.75
 30
0.0
 11
-37.74211120605469
 21
-53.00120162963867
 31
0.0
  0
LINE
  8
0
 10
-34.919898986816406
 20
-54.1328010559082
 30
0.0
 11
-34.99530029296875
 21
-54.06629943847656
 31
0.0
  0
LINE
  8
0
 10
33.310997009277344
 20
54.38759994506836
 30
0.0
 11
33.21880340576172
 21
54.34769821166992
 31
0.0
  0
LINE
  8
0
 10
-34.99530029296875
 20
-54.06629943847656
 30
0.0
 11
-35.06629943847656
 21
-53.99530029296875
 31
0.0
  0
LINE
  8
0
 10
-34.757301330566406
 20
-54.25090026855469
 30
0.0
 11
-34.84049987792969
 21
-54.194400787353516
 31
0.0
  0
LINE
  8
0
 10
37.55419921875
 20
-53.98609924316406
 30
0.0
 11
37.46910095214844
 21
-54.22249984741211
 31
0.0
  0
LINE
  8
0
 10
33.405601501464844
 20
54.42169952392578
 30
0.0
 11
33.310997009277344
 21
54.38759994506836
 31
0.0
  0
LINE
  8
0
 10
-32.733604431152344
 20
53.99530029296875
 30
0.0
 11
-32.80470275878906
 21
54.06629943847656
 31
0.0
  0
LINE
  8
0
 10
-35.194400787353516
 20
-53.84049987792969
 30
0.0
 11
-35.25090026855469
 21
-53.757301330566406
 31
0.0
  0
LINE
  8
0
 10
-32.497901916503906
 20
52.12919998168945
 30
0.0
 11
-32.549102783203125
 21
52.042701721191406
 31
0.0
  0
LINE
  8
0
 10
-35.25090026855469
 20
-53.757301330566406
 30
0.0
 11
-35.302101135253906
 21
-53.670799255371094
 31
0.0
  0
LINE
  8
0
 10
-34.3943977355957
 20
-54.42169952392578
 30
0.0
 11
-34.4890022277832
 21
-54.38759994506836
 31
0.0
  0
LINE
  8
0
 10
33.042701721191406
 20
54.25090026855469
 30
0.0
 11
32.959503173828125
 21
54.194400787353516
 31
0.0
  0
LINE
  8
0
 10
-34.29790115356445
 20
-54.44969940185547
 30
0.0
 11
-34.3943977355957
 21
-54.42169952392578
 31
0.0
  0
LINE
  8
0
 10
37.127296447753906
 20
54.8932991027832
 30
0.0
 11
37.25520324707031
 21
54.676998138427734
 31
0.0
  0
LINE
  8
0
 10
-34.199798583984375
 20
-54.47169876098633
 30
0.0
 11
-34.29790115356445
 21
-54.44969940185547
 31
0.0
  0
LINE
  8
0
 10
-36.29970169067383
 20
-55.83209991455078
 30
0.0
 11
-36.101200103759766
 21
-55.98609924316406
 31
0.0
  0
LINE
  8
0
 10
33.21880340576172
 20
54.34769821166992
 30
0.0
 11
33.12920379638672
 21
54.302101135253906
 31
0.0
  0
LINE
  8
0
 10
33.75
 20
56.75
 30
0.0
 11
-33.75
 21
56.75
 31
0.0
  0
LINE
  8
0
 10
-34.0004997253418
 20
-54.49679946899414
 30
0.0
 11
-34.10049819946289
 21
-54.48740005493164
 31
0.0
  0
LINE
  8
0
 10
33.12920379638672
 20
54.302101135253906
 30
0.0
 11
33.042701721191406
 21
54.25090026855469
 31
0.0
  0
LINE
  8
0
 10
-32.41240310668945
 20
52.31100082397461
 30
0.0
 11
-32.45230484008789
 21
52.21879959106445
 31
0.0
  0
LINE
  8
0
 10
-32.80470275878906
 20
54.06629943847656
 30
0.0
 11
-32.880104064941406
 21
54.1328010559082
 31
0.0
  0
LINE
  8
0
 10
-35.1328010559082
 20
-53.919898986816406
 30
0.0
 11
-35.194400787353516
 21
-53.84049987792969
 31
0.0
  0
LINE
  8
0
 10
-34.74480056762695
 20
56.624298095703125
 30
0.0
 11
-34.98609924316406
 21
56.55419921875
 31
0.0
  0
LINE
  8
0
 10
37.75
 20
-52.75
 30
0.0
 11
37.75
 21
52.75
 31
0.0
  0
LINE
  8
0
 10
33.75
 20
-56.75
 30
0.0
 11
-33.75
 21
-56.75
 31
0.0
  0
LINE
  8
0
 10
-32.60560607910156
 20
51.95949935913086
 30
0.0
 11
-32.667205810546875
 21
51.88010025024414
 31
0.0
  0
LINE
  8
0
 10
-34.10049819946289
 20
-54.48740005493164
 30
0.0
 11
-34.199798583984375
 21
-54.47169876098633
 31
0.0
  0
LINE
  8
0
 10
-35.06629943847656
 20
-53.99530029296875
 30
0.0
 11
-35.1328010559082
 21
-53.919898986816406
 31
0.0
  0
LINE
  8
0
 10
32.73370361328125
 20
53.99530029296875
 30
0.0
 11
32.667198181152344
 21
53.919898986816406
 31
0.0
  0
LINE
  8
0
 10
-32.667205810546875
 20
51.88010025024414
 30
0.0
 11
-32.733604431152344
 21
51.8046989440918
 31
0.0
  0
LINE
  8
0
 10
36.98609924316406
 20
55.10110092163086
 30
0.0
 11
36.832000732421875
 21
55.29970169067383
 31
0.0
  0
LINE
  8
0
 10
32.80470275878906
 20
54.06629943847656
 30
0.0
 11
32.73370361328125
 21
53.99530029296875
 31
0.0
  0
LINE
  8
0
 10
-32.733604431152344
 20
51.8046989440918
 30
0.0
 11
-32.80470275878906
 21
51.733699798583984
 31
0.0
  0
LINE
  8
0
 10
-36.48820114135742
 20
55.66590118408203
 30
0.0
 11
-36.6658821105957
 21
55.48820114135742
 31
0.0
  0
LINE
  8
0
 10
-32.60560607910156
 20
53.84049987792969
 30
0.0
 11
-32.667205810546875
 21
53.919898986816406
 31
0.0
  0
LINE
  8
0
 10
32.452301025390625
 20
-52.21879959106445
 30
0.0
 11
32.41239929199219
 21
-52.31100082397461
 31
0.0
  0
LINE
  8
0
 10
-32.549102783203125
 20
52.042701721191406
 30
0.0
 11
-32.60560607910156
 21
51.95949935913086
 31
0.0
  0
LINE
  8
0
 10
-36.48820114135742
 20
55.66590118408203
 30
0.0
 11
-36.29970169067383
 21
55.832000732421875
 31
0.0
  0
LINE
  8
0
 10
36.101097106933594
 20
55.98609924316406
 30
0.0
 11
35.89330291748047
 21
56.12730026245117
 31
0.0
  0
LINE
  8
0
 10
32.959503173828125
 20
54.194400787353516
 30
0.0
 11
32.880096435546875
 21
54.1328010559082
 31
0.0
  0
LINE
  8
0
 10
-37.469120025634766
 20
54.22249984741211
 30
0.0
 11
-37.36931228637695
 21
54.45309829711914
 31
0.0
  0
LINE
  8
0
 10
-32.667205810546875
 20
53.919898986816406
 30
0.0
 11
-32.733604431152344
 21
53.99530029296875
 31
0.0
  0
LINE
  8
0
 10
-37.74211120605469
 20
53.00120162963867
 30
0.0
 11
-37.75
 21
52.75
 31
0.0
  0
LINE
  8
0
 10
-36.98606872558594
 20
55.10110092163086
 30
0.0
 11
-37.1273193359375
 21
54.8932991027832
 31
0.0
  0
LINE
  8
0
 10
32.41239929199219
 20
-53.48899841308594
 30
0.0
 11
32.452301025390625
 21
-53.581199645996094
 31
0.0
  0
LINE
  8
0
 10
37.127296447753906
 20
-54.8932991027832
 30
0.0
 11
37.25520324707031
 21
-54.676998138427734
 31
0.0
  0
LINE
  8
0
 10
-34.98609924316406
 20
56.55419921875
 30
0.0
 11
-35.22249984741211
 21
56.46910095214844
 31
0.0
  0
LINE
  8
0
 10
-32.37830352783203
 20
52.405601501464844
 30
0.0
 11
-32.41240310668945
 21
52.31100082397461
 31
0.0
  0
LINE
  8
0
 10
-32.667205810546875
 20
-53.919898986816406
 30
0.0
 11
-32.733604431152344
 21
-53.99530029296875
 31
0.0
  0
LINE
  8
0
 10
-37.75
 20
52.75
 30
0.0
 11
-37.75
 21
-52.75
 31
0.0
  0
LINE
  8
0
 10
-32.880104064941406
 20
-54.1328010559082
 30
0.0
 11
-32.959503173828125
 21
-54.194400787353516
 31
0.0
  0
LINE
  8
0
 10
-34.4890022277832
 20
-54.38759994506836
 30
0.0
 11
-34.581199645996094
 21
-54.34769821166992
 31
0.0
  0
LINE
  8
0
 10
37.742103576660156
 20
-53.00120162963867
 30
0.0
 11
37.71839904785156
 21
-53.25130081176758
 31
0.0
  0
LINE
  8
0
 10
32.497901916503906
 20
-52.12919998168945
 30
0.0
 11
32.452301025390625
 21
-52.21879959106445
 31
0.0
  0
LINE
  8
0
 10
36.29969787597656
 20
55.832000732421875
 30
0.0
 11
36.488197326660156
 21
55.66590118408203
 31
0.0
  0
LINE
  8
0
 10
32.880096435546875
 20
54.1328010559082
 30
0.0
 11
32.80470275878906
 21
54.06629943847656
 31
0.0
  0
LINE
  8
0
 10
-32.80470275878906
 20
-54.06629943847656
 30
0.0
 11
-32.880104064941406
 21
-54.1328010559082
 31
0.0
  0
LINE
  8
0
 10
37.127296447753906
 20
54.8932991027832
 30
0.0
 11
36.98609924316406
 21
55.10110092163086
 31
0.0
  0
LINE
  8
0
 10
-34.581199645996094
 20
-54.34769821166992
 30
0.0
 11
-34.670799255371094
 21
-54.302101135253906
 31
0.0
  0
LINE
  8
0
 10
32.350303649902344
 20
-53.29790115356445
 30
0.0
 11
32.32830047607422
 21
-53.199798583984375
 31
0.0
  0
LINE
  8
0
 10
-34.29790115356445
 20
54.44969940185547
 30
0.0
 11
-34.3943977355957
 21
54.42169952392578
 31
0.0
  0
LINE
  8
0
 10
-34.670799255371094
 20
-54.302101135253906
 30
0.0
 11
-34.757301330566406
 21
-54.25090026855469
 31
0.0
  0
LINE
  8
0
 10
-34.199798583984375
 20
54.47169876098633
 30
0.0
 11
-34.29790115356445
 21
54.44969940185547
 31
0.0
  0
LINE
  8
0
 10
-37.469120025634766
 20
54.22249984741211
 30
0.0
 11
-37.554229736328125
 21
53.98609924316406
 31
0.0
  0
LINE
  8
0
 10
32.37830352783203
 20
-53.39440155029297
 30
0.0
 11
32.350303649902344
 21
-53.29790115356445
 31
0.0
  0
LINE
  8
0
 10
-34.10049819946289
 20
54.48740005493164
 30
0.0
 11
-34.199798583984375
 21
54.47169876098633
 31
0.0
  0
LINE
  8
0
 10
-34.3943977355957
 20
54.42169952392578
 30
0.0
 11
-34.4890022277832
 21
54.38759994506836
 31
0.0
  0
LINE
  8
0
 10
37.679100036621094
 20
-53.4995002746582
 30
0.0
 11
37.71839904785156
 21
-53.25130081176758
 31
0.0
  0
LINE
  8
0
 10
-33.50210189819336
 20
-51.35029983520508
 30
0.0
 11
-33.60020065307617
 21
-51.32830047607422
 31
0.0
  0
LINE
  8
0
 10
32.303199768066406
 20
-53.0004997253418
 30
0.0
 11
32.30000305175781
 21
-52.900001525878906
 31
0.0
  0
LINE
  8
0
 10
37.679100036621094
 20
-53.4995002746582
 30
0.0
 11
37.624298095703125
 21
-53.74480056762695
 31
0.0
  0
LINE
  8
0
 10
-33.79949951171875
 20
54.49679946899414
 30
0.0
 11
-33.89999771118164
 21
54.5
 31
0.0
  0
LINE
  8
0
 10
-33.60020065307617
 20
-51.32830047607422
 30
0.0
 11
-33.699501037597656
 21
-51.312599182128906
 31
0.0
  0
LINE
  8
0
 10
36.101097106933594
 20
55.98609924316406
 30
0.0
 11
36.29969787597656
 21
55.832000732421875
 31
0.0
  0
LINE
  8
0
 10
32.32830047607422
 20
-53.199798583984375
 30
0.0
 11
32.312599182128906
 21
-53.10049819946289
 31
0.0
  0
LINE
  8
0
 10
-33.699501037597656
 20
54.48740005493164
 30
0.0
 11
-33.79949951171875
 21
54.49679946899414
 31
0.0
  0
LINE
  8
0
 10
32.41239929199219
 20
-53.48899841308594
 30
0.0
 11
32.37830352783203
 21
-53.39440155029297
 31
0.0
  0
LINE
  8
0
 10
-37.1273193359375
 20
54.8932991027832
 30
0.0
 11
-37.25522994995117
 21
54.676998138427734
 31
0.0
  0
LINE
  8
0
 10
-32.497901916503906
 20
-53.670799255371094
 30
0.0
 11
-32.549102783203125
 21
-53.757301330566406
 31
0.0
  0
LINE
  8
0
 10
-35.47169876098633
 20
52.60020065307617
 30
0.0
 11
-35.48740005493164
 21
52.699501037597656
 31
0.0
  0
LINE
  8
0
 10
-37.74211120605469
 20
53.00120162963867
 30
0.0
 11
-37.71846008300781
 21
53.25130081176758
 31
0.0
  0
LINE
  8
0
 10
-33.79949951171875
 20
-51.303199768066406
 30
0.0
 11
-33.89999771118164
 21
-51.29999923706055
 31
0.0
  0
LINE
  8
0
 10
37.55419921875
 20
-53.98609924316406
 30
0.0
 11
37.624298095703125
 21
-53.74480056762695
 31
0.0
  0
LINE
  8
0
 10
-35.48740005493164
 20
52.699501037597656
 30
0.0
 11
-35.49679946899414
 21
52.79949951171875
 31
0.0
  0
LINE
  8
0
 10
-32.959503173828125
 20
-54.194400787353516
 30
0.0
 11
-33.04269790649414
 21
-54.25090026855469
 31
0.0
  0
LINE
  8
0
 10
-36.29970169067383
 20
-55.83209991455078
 30
0.0
 11
-36.48820114135742
 21
-55.66590118408203
 31
0.0
  0
LINE
  8
0
 10
32.312599182128906
 20
-53.10049819946289
 30
0.0
 11
32.303199768066406
 21
-53.0004997253418
 31
0.0
  0
LINE
  8
0
 10
-33.89999771118164
 20
54.5
 30
0.0
 11
-34.0004997253418
 21
54.49679946899414
 31
0.0
  0
LINE
  8
0
 10
-35.49679946899414
 20
52.79949951171875
 30
0.0
 11
-35.5
 21
52.900001525878906
 31
0.0
  0
LINE
  8
0
 10
-33.12919998168945
 20
-54.302101135253906
 30
0.0
 11
-33.21879959106445
 21
-54.34769821166992
 31
0.0
  0
LINE
  8
0
 10
-34.0004997253418
 20
54.49679946899414
 30
0.0
 11
-34.10049819946289
 21
54.48740005493164
 31
0.0
  0
LINE
  8
0
 10
-33.699501037597656
 20
-51.312599182128906
 30
0.0
 11
-33.79949951171875
 21
-51.303199768066406
 31
0.0
  0
LINE
  8
0
 10
-33.04269790649414
 20
-54.25090026855469
 30
0.0
 11
-33.12919998168945
 21
-54.302101135253906
 31
0.0
  0
LINE
  8
0
 10
33.042701721191406
 20
51.54909896850586
 30
0.0
 11
32.959503173828125
 21
51.60559844970703
 31
0.0
  0
LINE
  8
0
 10
-33.12919998168945
 20
54.302101135253906
 30
0.0
 11
-33.21879959106445
 21
54.34769821166992
 31
0.0
  0
LINE
  8
0
 10
-33.50210189819336
 20
-54.44969940185547
 30
0.0
 11
-33.60020065307617
 21
-54.47169876098633
 31
0.0
  0
LINE
  8
0
 10
-33.40559768676758
 20
-54.42169952392578
 30
0.0
 11
-33.50210189819336
 21
-54.44969940185547
 31
0.0
  0
LINE
  8
0
 10
-33.31100082397461
 20
54.38759994506836
 30
0.0
 11
-33.40559768676758
 21
54.42169952392578
 31
0.0
  0
LINE
  8
0
 10
34.001197814941406
 20
56.74209976196289
 30
0.0
 11
34.25129699707031
 21
56.71839904785156
 31
0.0
  0
LINE
  8
0
 10
-34.199798583984375
 20
-51.32830047607422
 30
0.0
 11
-34.29790115356445
 21
-51.35029983520508
 31
0.0
  0
LINE
  8
0
 10
-33.699501037597656
 20
-54.48740005493164
 30
0.0
 11
-33.79949951171875
 21
-54.49679946899414
 31
0.0
  0
LINE
  8
0
 10
-33.21879959106445
 20
-54.34769821166992
 30
0.0
 11
-33.31100082397461
 21
-54.38759994506836
 31
0.0
  0
LINE
  8
0
 10
-34.10049819946289
 20
-51.312599182128906
 30
0.0
 11
-34.199798583984375
 21
-51.32830047607422
 31
0.0
  0
LINE
  8
0
 10
-33.89999771118164
 20
-54.5
 30
0.0
 11
-34.0004997253418
 21
-54.49679946899414
 31
0.0
  0
LINE
  8
0
 10
-33.21879959106445
 20
54.34769821166992
 30
0.0
 11
-33.31100082397461
 21
54.38759994506836
 31
0.0
  0
LINE
  8
0
 10
-33.79949951171875
 20
-54.49679946899414
 30
0.0
 11
-33.89999771118164
 21
-54.5
 31
0.0
  0
LINE
  8
0
 10
-33.50210189819336
 20
54.44969940185547
 30
0.0
 11
-33.60020065307617
 21
54.47169876098633
 31
0.0
  0
LINE
  8
0
 10
33.12920379638672
 20
51.49789810180664
 30
0.0
 11
33.042701721191406
 21
51.54909896850586
 31
0.0
  0
LINE
  8
0
 10
-33.31100082397461
 20
-54.38759994506836
 30
0.0
 11
-33.40559768676758
 21
-54.42169952392578
 31
0.0
  0
LINE
  8
0
 10
-35.302101135253906
 20
-52.12919998168945
 30
0.0
 11
-35.34769821166992
 21
-52.21879959106445
 31
0.0
  0
LINE
  8
0
 10
33.310997009277344
 20
-51.41239929199219
 30
0.0
 11
33.21880340576172
 21
-51.452301025390625
 31
0.0
  0
LINE
  8
0
 10
37.55419921875
 20
53.98609924316406
 30
0.0
 11
37.46910095214844
 21
54.22249984741211
 31
0.0
  0
LINE
  8
0
 10
-37.554229736328125
 20
53.98609924316406
 30
0.0
 11
-37.62434005737305
 21
53.74480056762695
 31
0.0
  0
LINE
  8
0
 10
-33.60020065307617
 20
54.47169876098633
 30
0.0
 11
-33.699501037597656
 21
54.48740005493164
 31
0.0
  0
LINE
  8
0
 10
-32.959503173828125
 20
54.194400787353516
 30
0.0
 11
-33.04269790649414
 21
54.25090026855469
 31
0.0
  0
LINE
  8
0
 10
33.21880340576172
 20
-51.452301025390625
 30
0.0
 11
33.12920379638672
 21
-51.49789810180664
 31
0.0
  0
LINE
  8
0
 10
-33.04269790649414
 20
54.25090026855469
 30
0.0
 11
-33.12919998168945
 21
54.302101135253906
 31
0.0
  0
LINE
  8
0
 10
33.310997009277344
 20
51.41239929199219
 30
0.0
 11
33.21880340576172
 21
51.452301025390625
 31
0.0
  0
LINE
  8
0
 10
-33.89999771118164
 20
-51.29999923706055
 30
0.0
 11
-34.0004997253418
 21
-51.303199768066406
 31
0.0
  0
LINE
  8
0
 10
-33.40559768676758
 20
54.42169952392578
 30
0.0
 11
-33.50210189819336
 21
54.44969940185547
 31
0.0
  0
LINE
  8
0
 10
36.98609924316406
 20
-55.101200103759766
 30
0.0
 11
37.127296447753906
 21
-54.8932991027832
 31
0.0
  0
LINE
  8
0
 10
-35.8932991027832
 20
-56.12730026245117
 30
0.0
 11
-36.101200103759766
 21
-55.98609924316406
 31
0.0
  0
LINE
  8
0
 10
33.21880340576172
 20
51.452301025390625
 30
0.0
 11
33.12920379638672
 21
51.49789810180664
 31
0.0
  0
LINE
  8
0
 10
-32.45230484008789
 20
52.21879959106445
 30
0.0
 11
-32.497901916503906
 21
52.12919998168945
 31
0.0
  0
LINE
  8
0
 10
36.101097106933594
 20
-55.98609924316406
 30
0.0
 11
35.89330291748047
 21
-56.12730026245117
 31
0.0
  0
LINE
  8
0
 10
35.06629943847656
 20
-53.99530029296875
 30
0.0
 11
34.99530029296875
 21
-54.06629943847656
 31
0.0
  0
LINE
  8
0
 10
-34.0004997253418
 20
-51.303199768066406
 30
0.0
 11
-34.10049819946289
 21
-51.312599182128906
 31
0.0
  0
LINE
  8
0
 10
-35.676998138427734
 20
-56.25519943237305
 30
0.0
 11
-35.8932991027832
 21
-56.12730026245117
 31
0.0
  0
LINE
  8
0
 10
34.99530029296875
 20
-54.06629943847656
 30
0.0
 11
34.919898986816406
 21
-54.1328010559082
 31
0.0
  0
LINE
  8
0
 10
37.25520324707031
 20
-54.676998138427734
 30
0.0
 11
37.369300842285156
 21
-54.45309829711914
 31
0.0
  0
LINE
  8
0
 10
-34.757301330566406
 20
51.54909896850586
 30
0.0
 11
-34.84049987792969
 21
51.60559844970703
 31
0.0
  0
LINE
  8
0
 10
-33.60020065307617
 20
-54.47169876098633
 30
0.0
 11
-33.699501037597656
 21
-54.48740005493164
 31
0.0
  0
LINE
  8
0
 10
35.19439697265625
 20
-53.84049987792969
 30
0.0
 11
35.13279724121094
 21
-53.919898986816406
 31
0.0
  0
LINE
  8
0
 10
34.84049987792969
 20
-54.194400787353516
 30
0.0
 11
34.757301330566406
 21
-54.25090026855469
 31
0.0
  0
LINE
  8
0
 10
-34.670799255371094
 20
51.49789810180664
 30
0.0
 11
-34.757301330566406
 21
51.54909896850586
 31
0.0
  0
LINE
  8
0
 10
37.46910095214844
 20
-54.22249984741211
 30
0.0
 11
37.369300842285156
 21
-54.45309829711914
 31
0.0
  0
LINE
  8
0
 10
-36.83205795288086
 20
-55.29970169067383
 30
0.0
 11
-36.6658821105957
 21
-55.48820114135742
 31
0.0
  0
LINE
  8
0
 10
35.25090026855469
 20
-53.757301330566406
 30
0.0
 11
35.19439697265625
 21
-53.84049987792969
 31
0.0
  0
LINE
  8
0
 10
35.5
 20
-52.900001525878906
 30
0.0
 11
35.496803283691406
 21
-53.0004997253418
 31
0.0
  0
LINE
  8
0
 10
-34.919898986816406
 20
51.667198181152344
 30
0.0
 11
-34.99530029296875
 21
51.733699798583984
 31
0.0
  0
LINE
  8
0
 10
34.919898986816406
 20
-54.1328010559082
 30
0.0
 11
34.84049987792969
 21
-54.194400787353516
 31
0.0
  0
LINE
  8
0
 10
-36.83205795288086
 20
-55.29970169067383
 30
0.0
 11
-36.98606872558594
 21
-55.101200103759766
 31
0.0
  0
LINE
  8
0
 10
34.48899841308594
 20
-54.38759994506836
 30
0.0
 11
34.39440155029297
 21
-54.42169952392578
 31
0.0
  0
LINE
  8
0
 10
-34.4890022277832
 20
51.41239929199219
 30
0.0
 11
-34.581199645996094
 21
51.452301025390625
 31
0.0
  0
LINE
  8
0
 10
-36.101200103759766
 20
55.98609924316406
 30
0.0
 11
-35.8932991027832
 21
56.12730026245117
 31
0.0
  0
LINE
  8
0
 10
34.39440155029297
 20
-54.42169952392578
 30
0.0
 11
34.29789733886719
 21
-54.44969940185547
 31
0.0
  0
LINE
  8
0
 10
34.29789733886719
 20
-54.44969940185547
 30
0.0
 11
34.199798583984375
 21
-54.47169876098633
 31
0.0
  0
LINE
  8
0
 10
-35.5
 20
52.900001525878906
 30
0.0
 11
-35.49679946899414
 21
53.0004997253418
 31
0.0
  0
LINE
  8
0
 10
-34.3943977355957
 20
51.378299713134766
 30
0.0
 11
-34.4890022277832
 21
51.41239929199219
 31
0.0
  0
LINE
  8
0
 10
-37.1273193359375
 20
-54.8932991027832
 30
0.0
 11
-36.98606872558594
 21
-55.101200103759766
 31
0.0
  0
LINE
  8
0
 10
34.100502014160156
 20
-54.48740005493164
 30
0.0
 11
34.00050354003906
 21
-54.49679946899414
 31
0.0
  0
LINE
  8
0
 10
-34.29790115356445
 20
51.35029983520508
 30
0.0
 11
-34.3943977355957
 21
51.378299713134766
 31
0.0
  0
LINE
  8
0
 10
-34.25130081176758
 20
56.71839904785156
 30
0.0
 11
-34.00120162963867
 21
56.74209976196289
 31
0.0
  0
LINE
  8
0
 10
34.199798583984375
 20
-54.47169876098633
 30
0.0
 11
34.100502014160156
 21
-54.48740005493164
 31
0.0
  0
LINE
  8
0
 10
35.387603759765625
 20
-53.48899841308594
 30
0.0
 11
35.34770202636719
 21
-53.581199645996094
 31
0.0
  0
LINE
  8
0
 10
32.667198181152344
 20
53.919898986816406
 30
0.0
 11
32.60559844970703
 21
53.84049987792969
 31
0.0
  0
LINE
  8
0
 10
-35.676998138427734
 20
56.25519943237305
 30
0.0
 11
-35.45309829711914
 21
56.369300842285156
 31
0.0
  0
LINE
  8
0
 10
35.13279724121094
 20
-53.919898986816406
 30
0.0
 11
35.06629943847656
 21
-53.99530029296875
 31
0.0
  0
LINE
  8
0
 10
-34.84049987792969
 20
51.60559844970703
 30
0.0
 11
-34.919898986816406
 21
51.667198181152344
 31
0.0
  0
LINE
  8
0
 10
33.600196838378906
 20
-54.47169876098633
 30
0.0
 11
33.502098083496094
 21
-54.44969940185547
 31
0.0
  0
LINE
  8
0
 10
35.34770202636719
 20
-53.581199645996094
 30
0.0
 11
35.302101135253906
 21
-53.670799255371094
 31
0.0
  0
LINE
  8
0
 10
35.677001953125
 20
56.25519943237305
 30
0.0
 11
35.453102111816406
 21
56.369300842285156
 31
0.0
  0
LINE
  8
0
 10
-37.71846008300781
 20
-53.25130081176758
 30
0.0
 11
-37.67914962768555
 21
-53.4995002746582
 31
0.0
  0
LINE
  8
0
 10
33.502098083496094
 20
-54.44969940185547
 30
0.0
 11
33.405601501464844
 21
-54.42169952392578
 31
0.0
  0
LINE
  8
0
 10
33.79949951171875
 20
-54.49679946899414
 30
0.0
 11
33.699501037597656
 21
-54.48740005493164
 31
0.0
  0
LINE
  8
0
 10
-34.4995002746582
 20
56.679100036621094
 30
0.0
 11
-34.74480056762695
 21
56.624298095703125
 31
0.0
  0
LINE
  8
0
 10
33.310997009277344
 20
-54.38759994506836
 30
0.0
 11
33.21880340576172
 21
-54.34769821166992
 31
0.0
  0
LINE
  8
0
 10
-35.25090026855469
 20
52.042701721191406
 30
0.0
 11
-35.302101135253906
 21
52.12919998168945
 31
0.0
  0
LINE
  8
0
 10
34.00050354003906
 20
-54.49679946899414
 30
0.0
 11
33.900001525878906
 21
-54.5
 31
0.0
  0
LINE
  8
0
 10
-33.699501037597656
 20
51.312599182128906
 30
0.0
 11
-33.79949951171875
 21
51.303199768066406
 31
0.0
  0
LINE
  8
0
 10
-35.302101135253906
 20
52.12919998168945
 30
0.0
 11
-35.34769821166992
 21
52.21879959106445
 31
0.0
  0
LINE
  8
0
 10
33.900001525878906
 20
-54.5
 30
0.0
 11
33.79949951171875
 21
-54.49679946899414
 31
0.0
  0
LINE
  8
0
 10
33.405601501464844
 20
-54.42169952392578
 30
0.0
 11
33.310997009277344
 21
-54.38759994506836
 31
0.0
  0
LINE
  8
0
 10
-37.469120025634766
 20
-54.22249984741211
 30
0.0
 11
-37.36931228637695
 21
-54.45309829711914
 31
0.0
  0
LINE
  8
0
 10
-37.62434005737305
 20
53.74480056762695
 30
0.0
 11
-37.67914962768555
 21
53.4995002746582
 31
0.0
  0
LINE
  8
0
 10
-35.44969940185547
 20
52.50210189819336
 30
0.0
 11
-35.47169876098633
 21
52.60020065307617
 31
0.0
  0
LINE
  8
0
 10
-33.50210189819336
 20
51.35029983520508
 30
0.0
 11
-33.60020065307617
 21
51.32830047607422
 31
0.0
  0
LINE
  8
0
 10
-34.98609924316406
 20
-56.55419921875
 30
0.0
 11
-34.74480056762695
 21
-56.624298095703125
 31
0.0
  0
LINE
  8
0
 10
-37.25522994995117
 20
-54.676998138427734
 30
0.0
 11
-37.36931228637695
 21
-54.45309829711914
 31
0.0
  0
LINE
  8
0
 10
-35.42169952392578
 20
52.405601501464844
 30
0.0
 11
-35.44969940185547
 21
52.50210189819336
 31
0.0
  0
LINE
  8
0
 10
35.302101135253906
 20
-53.670799255371094
 30
0.0
 11
35.25090026855469
 21
-53.757301330566406
 31
0.0
  0
LINE
  8
0
 10
-33.60020065307617
 20
51.32830047607422
 30
0.0
 11
-33.699501037597656
 21
51.312599182128906
 31
0.0
  0
LINE
  8
0
 10
-34.98609924316406
 20
-56.55419921875
 30
0.0
 11
-35.22249984741211
 21
-56.46910095214844
 31
0.0
  0
LINE
  8
0
 10
-35.34769821166992
 20
52.21879959106445
 30
0.0
 11
-35.38759994506836
 21
52.31100082397461
 31
0.0
  0
LINE
  8
0
 10
-37.74211120605469
 20
-53.00120162963867
 30
0.0
 11
-37.71846008300781
 21
-53.25130081176758
 31
0.0
  0
LINE
  8
0
 10
35.89330291748047
 20
-56.12730026245117
 30
0.0
 11
35.677001953125
 21
-56.25519943237305
 31
0.0
  0
LINE
  8
0
 10
-34.581199645996094
 20
54.34769821166992
 30
0.0
 11
-34.670799255371094
 21
54.302101135253906
 31
0.0
  0
LINE
  8
0
 10
-34.581199645996094
 20
51.452301025390625
 30
0.0
 11
-34.670799255371094
 21
51.49789810180664
 31
0.0
  0
LINE
  8
0
 10
-37.554229736328125
 20
-53.98609924316406
 30
0.0
 11
-37.469120025634766
 21
-54.22249984741211
 31
0.0
  0
LINE
  8
0
 10
-34.4890022277832
 20
54.38759994506836
 30
0.0
 11
-34.581199645996094
 21
54.34769821166992
 31
0.0
  0
LINE
  8
0
 10
-35.38759994506836
 20
52.31100082397461
 30
0.0
 11
-35.42169952392578
 21
52.405601501464844
 31
0.0
  0
LINE
  8
0
 10
-34.25130081176758
 20
-56.71849822998047
 30
0.0
 11
-34.00120162963867
 21
-56.74209976196289
 31
0.0
  0
LINE
  8
0
 10
33.699501037597656
 20
-54.48740005493164
 30
0.0
 11
33.600196838378906
 21
-54.47169876098633
 31
0.0
  0
LINE
  8
0
 10
32.497901916503906
 20
-53.670799255371094
 30
0.0
 11
32.452301025390625
 21
-53.581199645996094
 31
0.0
  0
LINE
  8
0
 10
-33.21879959106445
 20
51.452301025390625
 30
0.0
 11
-33.31100082397461
 21
51.41239929199219
 31
0.0
  0
LINE
  8
0
 10
34.49949645996094
 20
-56.67919921875
 30
0.0
 11
34.74479675292969
 21
-56.624298095703125
 31
0.0
  0
LINE
  8
0
 10
32.549102783203125
 20
-53.757301330566406
 30
0.0
 11
32.497901916503906
 21
-53.670799255371094
 31
0.0
  0
LINE
  8
0
 10
-34.4995002746582
 20
-56.67919921875
 30
0.0
 11
-34.25130081176758
 21
-56.71849822998047
 31
0.0
  0
LINE
  8
0
 10
-33.31100082397461
 20
51.41239929199219
 30
0.0
 11
-33.40559768676758
 21
51.378299713134766
 31
0.0
  0
LINE
  8
0
 10
34.49949645996094
 20
-56.67919921875
 30
0.0
 11
34.25129699707031
 21
-56.71849822998047
 31
0.0
  0
LINE
  8
0
 10
32.667198181152344
 20
-53.919898986816406
 30
0.0
 11
32.60559844970703
 21
-53.84049987792969
 31
0.0
  0
LINE
  8
0
 10
-32.30000305175781
 20
-52.900001525878906
 30
0.0
 11
-32.30320358276367
 21
-52.79949951171875
 31
0.0
  0
LINE
  8
0
 10
-34.670799255371094
 20
54.302101135253906
 30
0.0
 11
-34.757301330566406
 21
54.25090026855469
 31
0.0
  0
LINE
  8
0
 10
-34.25130081176758
 20
56.71839904785156
 30
0.0
 11
-34.4995002746582
 21
56.679100036621094
 31
0.0
  0
LINE
  8
0
 10
37.369300842285156
 20
54.45309829711914
 30
0.0
 11
37.46910095214844
 21
54.22249984741211
 31
0.0
  0
LINE
  8
0
 10
-33.40559768676758
 20
51.378299713134766
 30
0.0
 11
-33.50210189819336
 21
51.35029983520508
 31
0.0
  0
LINE
  8
0
 10
34.001197814941406
 20
-56.74209976196289
 30
0.0
 11
34.25129699707031
 21
-56.71849822998047
 31
0.0
  0
LINE
  8
0
 10
-34.4995002746582
 20
-56.67919921875
 30
0.0
 11
-34.74480056762695
 21
-56.624298095703125
 31
0.0
  0
LINE
  8
0
 10
-35.22249984741211
 20
-56.46910095214844
 30
0.0
 11
-35.45309829711914
 21
-56.369300842285156
 31
0.0
  0
LINE
  8
0
 10
-32.733604431152344
 20
-53.99530029296875
 30
0.0
 11
-32.80470275878906
 21
-54.06629943847656
 31
0.0
  0
LINE
  8
0
 10
-37.67914962768555
 20
-53.4995002746582
 30
0.0
 11
-37.62434005737305
 21
-53.74480056762695
 31
0.0
  0
LINE
  8
0
 10
36.488197326660156
 20
-55.66590118408203
 30
0.0
 11
36.29969787597656
 21
-55.83209991455078
 31
0.0
  0
LINE
  8
0
 10
32.60559844970703
 20
-53.84049987792969
 30
0.0
 11
32.549102783203125
 21
-53.757301330566406
 31
0.0
  0
LINE
  8
0
 10
-33.12919998168945
 20
51.49789810180664
 30
0.0
 11
-33.21879959106445
 21
51.452301025390625
 31
0.0
  0
LINE
  8
0
 10
-32.30000305175781
 20
-52.900001525878906
 30
0.0
 11
-32.30320358276367
 21
-53.0004997253418
 31
0.0
  0
LINE
  8
0
 10
-34.757301330566406
 20
54.25090026855469
 30
0.0
 11
-34.84049987792969
 21
54.194400787353516
 31
0.0
  0
LINE
  8
0
 10
-34.99530029296875
 20
54.06629943847656
 30
0.0
 11
-35.06629943847656
 21
53.99530029296875
 31
0.0
  0
LINE
  8
0
 10
-32.880104064941406
 20
51.667198181152344
 30
0.0
 11
-32.959503173828125
 21
51.60559844970703
 31
0.0
  0
LINE
  8
0
 10
36.488197326660156
 20
-55.66590118408203
 30
0.0
 11
36.66590118408203
 21
-55.48820114135742
 31
0.0
  0
LINE
  8
0
 10
-34.919898986816406
 20
54.1328010559082
 30
0.0
 11
-34.99530029296875
 21
54.06629943847656
 31
0.0
  0
LINE
  8
0
 10
33.042701721191406
 20
-54.25090026855469
 30
0.0
 11
32.959503173828125
 21
-54.194400787353516
 31
0.0
  0
LINE
  8
0
 10
-34.84049987792969
 20
54.194400787353516
 30
0.0
 11
-34.919898986816406
 21
54.1328010559082
 31
0.0
  0
LINE
  8
0
 10
34.98609924316406
 20
56.55419921875
 30
0.0
 11
34.74479675292969
 21
56.624298095703125
 31
0.0
  0
LINE
  8
0
 10
32.30000305175781
 20
-52.900001525878906
 30
0.0
 11
32.303199768066406
 21
-52.79949951171875
 31
0.0
  0
LINE
  8
0
 10
35.302101135253906
 20
52.12919998168945
 30
0.0
 11
35.25090026855469
 21
52.042701721191406
 31
0.0
  0
LINE
  8
0
 10
-35.06629943847656
 20
53.99530029296875
 30
0.0
 11
-35.1328010559082
 21
53.919898986816406
 31
0.0
  0
LINE
  8
0
 10
33.21880340576172
 20
-54.34769821166992
 30
0.0
 11
33.12920379638672
 21
-54.302101135253906
 31
0.0
  0
LINE
  8
0
 10
36.66590118408203
 20
-55.48820114135742
 30
0.0
 11
36.832000732421875
 21
-55.29970169067383
 31
0.0
  0
LINE
  8
0
 10
33.12920379638672
 20
-54.302101135253906
 30
0.0
 11
33.042701721191406
 21
-54.25090026855469
 31
0.0
  0
LINE
  8
0
 10
-32.80470275878906
 20
51.733699798583984
 30
0.0
 11
-32.880104064941406
 21
51.667198181152344
 31
0.0
  0
LINE
  8
0
 10
37.742103576660156
 20
-53.00120162963867
 30
0.0
 11
37.75
 21
-52.75
 31
0.0
  0
LINE
  8
0
 10
32.41239929199219
 20
-52.31100082397461
 30
0.0
 11
32.37830352783203
 21
-52.405601501464844
 31
0.0
  0
LINE
  8
0
 10
-32.328304290771484
 20
-52.60020065307617
 30
0.0
 11
-32.350303649902344
 21
-52.50210189819336
 31
0.0
  0
LINE
  8
0
 10
-32.30320358276367
 20
-53.0004997253418
 30
0.0
 11
-32.31260299682617
 21
-53.10049819946289
 31
0.0
  0
LINE
  8
0
 10
-37.25522994995117
 20
54.676998138427734
 30
0.0
 11
-37.36931228637695
 21
54.45309829711914
 31
0.0
  0
LINE
  8
0
 10
-35.38759994506836
 20
53.48899841308594
 30
0.0
 11
-35.42169952392578
 21
53.39440155029297
 31
0.0
  0
LINE
  8
0
 10
-35.34769821166992
 20
53.581199645996094
 30
0.0
 11
-35.38759994506836
 21
53.48899841308594
 31
0.0
  0
LINE
  8
0
 10
-35.194400787353516
 20
51.95949935913086
 30
0.0
 11
-35.25090026855469
 21
52.042701721191406
 31
0.0
  0
LINE
  8
0
 10
34.98609924316406
 20
56.55419921875
 30
0.0
 11
35.222503662109375
 21
56.46910095214844
 31
0.0
  0
LINE
  8
0
 10
33.75
 20
56.75
 30
0.0
 11
34.001197814941406
 21
56.74209976196289
 31
0.0
  0
LINE
  8
0
 10
-37.67914962768555
 20
53.4995002746582
 30
0.0
 11
-37.71846008300781
 21
53.25130081176758
 31
0.0
  0
LINE
  8
0
 10
-35.676998138427734
 20
56.25519943237305
 30
0.0
 11
-35.8932991027832
 21
56.12730026245117
 31
0.0
  0
LINE
  8
0
 10
-35.194400787353516
 20
53.84049987792969
 30
0.0
 11
-35.25090026855469
 21
53.757301330566406
 31
0.0
  0
LINE
  8
0
 10
-35.1328010559082
 20
53.919898986816406
 30
0.0
 11
-35.194400787353516
 21
53.84049987792969
 31
0.0
  0
LINE
  8
0
 10
37.624298095703125
 20
53.74480056762695
 30
0.0
 11
37.55419921875
 21
53.98609924316406
 31
0.0
  0
LINE
  8
0
 10
35.453102111816406
 20
-56.369300842285156
 30
0.0
 11
35.222503662109375
 21
-56.46910095214844
 31
0.0
  0
LINE
  8
0
 10
-37.62434005737305
 20
-53.74480056762695
 30
0.0
 11
-37.554229736328125
 21
-53.98609924316406
 31
0.0
  0
LINE
  8
0
 10
32.959503173828125
 20
-54.194400787353516
 30
0.0
 11
32.880096435546875
 21
-54.1328010559082
 31
0.0
  0
LINE
  8
0
 10
-35.1328010559082
 20
51.88010025024414
 30
0.0
 11
-35.194400787353516
 21
51.95949935913086
 31
0.0
  0
LINE
  8
0
 10
32.880096435546875
 20
-54.1328010559082
 30
0.0
 11
32.80470275878906
 21
-54.06629943847656
 31
0.0
  0
LINE
  8
0
 10
37.369300842285156
 20
54.45309829711914
 30
0.0
 11
37.25520324707031
 21
54.676998138427734
 31
0.0
  0
LINE
  8
0
 10
32.80470275878906
 20
-54.06629943847656
 30
0.0
 11
32.73370361328125
 21
-53.99530029296875
 31
0.0
  0
LINE
  8
0
 10
-32.31260299682617
 20
-52.699501037597656
 30
0.0
 11
-32.328304290771484
 21
-52.60020065307617
 31
0.0
  0
LINE
  8
0
 10
-32.959503173828125
 20
51.60559844970703
 30
0.0
 11
-33.04269790649414
 21
51.54909896850586
 31
0.0
  0
LINE
  8
0
 10
-36.83205795288086
 20
55.29970169067383
 30
0.0
 11
-36.98606872558594
 21
55.10110092163086
 31
0.0
  0
LINE
  8
0
 10
34.98609924316406
 20
-56.55419921875
 30
0.0
 11
35.222503662109375
 21
-56.46910095214844
 31
0.0
  0
LINE
  8
0
 10
-34.99530029296875
 20
51.733699798583984
 30
0.0
 11
-35.06629943847656
 21
51.8046989440918
 31
0.0
  0
LINE
  8
0
 10
32.37830352783203
 20
-52.405601501464844
 30
0.0
 11
32.350303649902344
 21
-52.50210189819336
 31
0.0
  0
LINE
  8
0
 10
-35.302101135253906
 20
53.670799255371094
 30
0.0
 11
-35.34769821166992
 21
53.581199645996094
 31
0.0
  0
LINE
  8
0
 10
32.73370361328125
 20
-53.99530029296875
 30
0.0
 11
32.667198181152344
 21
-53.919898986816406
 31
0.0
  0
LINE
  8
0
 10
-35.25090026855469
 20
53.757301330566406
 30
0.0
 11
-35.302101135253906
 21
53.670799255371094
 31
0.0
  0
LINE
  8
0
 10
-33.04269790649414
 20
51.54909896850586
 30
0.0
 11
-33.12919998168945
 21
51.49789810180664
 31
0.0
  0
LINE
  8
0
 10
34.98609924316406
 20
-56.55419921875
 30
0.0
 11
34.74479675292969
 21
-56.624298095703125
 31
0.0
  0
LINE
  8
0
 10
-35.06629943847656
 20
51.8046989440918
 30
0.0
 11
-35.1328010559082
 21
51.88010025024414
 31
0.0
  0
LINE
  8
0
 10
-32.30320358276367
 20
-52.79949951171875
 30
0.0
 11
-32.31260299682617
 21
-52.699501037597656
 31
0.0
  0
LINE
  8
0
 10
33.699501037597656
 20
54.48740005493164
 30
0.0
 11
33.600196838378906
 21
54.47169876098633
 31
0.0
  0
LINE
  8
0
 10
-32.549102783203125
 20
-52.042701721191406
 30
0.0
 11
-32.60560607910156
 21
-51.95949935913086
 31
0.0
  0
LINE
  8
0
 10
32.32830047607422
 20
-52.60020065307617
 30
0.0
 11
32.312599182128906
 21
-52.699501037597656
 31
0.0
  0
LINE
  8
0
 10
32.312599182128906
 20
53.10049819946289
 30
0.0
 11
32.303199768066406
 21
53.0004997253418
 31
0.0
  0
LINE
  8
0
 10
33.900001525878906
 20
54.5
 30
0.0
 11
33.79949951171875
 21
54.49679946899414
 31
0.0
  0
LINE
  8
0
 10
34.757301330566406
 20
-51.54909896850586
 30
0.0
 11
34.84049987792969
 21
-51.60559844970703
 31
0.0
  0
LINE
  8
0
 10
37.679100036621094
 20
53.4995002746582
 30
0.0
 11
37.624298095703125
 21
53.74480056762695
 31
0.0
  0
LINE
  8
0
 10
33.79949951171875
 20
54.49679946899414
 30
0.0
 11
33.699501037597656
 21
54.48740005493164
 31
0.0
  0
LINE
  8
0
 10
-32.350303649902344
 20
-53.29790115356445
 30
0.0
 11
-32.37830352783203
 21
-53.39440155029297
 31
0.0
  0
LINE
  8
0
 10
32.350303649902344
 20
-52.50210189819336
 30
0.0
 11
32.32830047607422
 21
-52.60020065307617
 31
0.0
  0
LINE
  8
0
 10
35.496803283691406
 20
-52.79949951171875
 30
0.0
 11
35.5
 21
-52.900001525878906
 31
0.0
  0
LINE
  8
0
 10
32.350303649902344
 20
53.29790115356445
 30
0.0
 11
32.32830047607422
 21
53.199798583984375
 31
0.0
  0
LINE
  8
0
 10
-32.667205810546875
 20
-51.88010025024414
 30
0.0
 11
-32.733604431152344
 21
-51.8046989440918
 31
0.0
  0
LINE
  8
0
 10
-32.37830352783203
 20
-53.39440155029297
 30
0.0
 11
-32.41240310668945
 21
-53.48899841308594
 31
0.0
  0
LINE
  8
0
 10
37.71839904785156
 20
53.25130081176758
 30
0.0
 11
37.679100036621094
 21
53.4995002746582
 31
0.0
  0
LINE
  8
0
 10
34.29789733886719
 20
54.44969940185547
 30
0.0
 11
34.199798583984375
 21
54.47169876098633
 31
0.0
  0
LINE
  8
0
 10
34.199798583984375
 20
54.47169876098633
 30
0.0
 11
34.100502014160156
 21
54.48740005493164
 31
0.0
  0
LINE
  8
0
 10
-32.41240310668945
 20
-53.48899841308594
 30
0.0
 11
-32.45230484008789
 21
-53.581199645996094
 31
0.0
  0
LINE
  8
0
 10
32.60559844970703
 20
53.84049987792969
 30
0.0
 11
32.549102783203125
 21
53.757301330566406
 31
0.0
  0
LINE
  8
0
 10
34.00050354003906
 20
54.49679946899414
 30
0.0
 11
33.900001525878906
 21
54.5
 31
0.0
  0
LINE
  8
0
 10
35.222503662109375
 20
56.46910095214844
 30
0.0
 11
35.453102111816406
 21
56.369300842285156
 31
0.0
  0
LINE
  8
0
 10
-32.45230484008789
 20
-52.21879959106445
 30
0.0
 11
-32.497901916503906
 21
-52.12919998168945
 31
0.0
  0
LINE
  8
0
 10
34.757301330566406
 20
-51.54909896850586
 30
0.0
 11
34.670799255371094
 21
-51.49789810180664
 31
0.0
  0
LINE
  8
0
 10
35.496803283691406
 20
-52.79949951171875
 30
0.0
 11
35.487396240234375
 21
-52.699501037597656
 31
0.0
  0
LINE
  8
0
 10
34.100502014160156
 20
54.48740005493164
 30
0.0
 11
34.00050354003906
 21
54.49679946899414
 31
0.0
  0
LINE
  8
0
 10
35.34770202636719
 20
52.21879959106445
 30
0.0
 11
35.387603759765625
 21
52.31100082397461
 31
0.0
  0
LINE
  8
0
 10
-32.60560607910156
 20
-51.95949935913086
 30
0.0
 11
-32.667205810546875
 21
-51.88010025024414
 31
0.0
  0
LINE
  8
0
 10
-35.48740005493164
 20
-53.10049819946289
 30
0.0
 11
-35.49679946899414
 21
-53.0004997253418
 31
0.0
  0
LINE
  8
0
 10
32.497901916503906
 20
53.670799255371094
 30
0.0
 11
32.452301025390625
 21
53.581199645996094
 31
0.0
  0
LINE
  8
0
 10
35.34770202636719
 20
52.21879959106445
 30
0.0
 11
35.302101135253906
 21
52.12919998168945
 31
0.0
  0
LINE
  8
0
 10
-35.49679946899414
 20
-53.0004997253418
 30
0.0
 11
-35.5
 21
-52.900001525878906
 31
0.0
  0
LINE
  8
0
 10
35.42169952392578
 20
52.405601501464844
 30
0.0
 11
35.387603759765625
 21
52.31100082397461
 31
0.0
  0
LINE
  8
0
 10
32.32830047607422
 20
53.199798583984375
 30
0.0
 11
32.312599182128906
 21
53.10049819946289
 31
0.0
  0
LINE
  8
0
 10
-35.38759994506836
 20
-52.31100082397461
 30
0.0
 11
-35.42169952392578
 21
-52.405601501464844
 31
0.0
  0
LINE
  8
0
 10
-32.37830352783203
 20
-52.405601501464844
 30
0.0
 11
-32.41240310668945
 21
-52.31100082397461
 31
0.0
  0
LINE
  8
0
 10
-35.34769821166992
 20
-52.21879959106445
 30
0.0
 11
-35.38759994506836
 21
-52.31100082397461
 31
0.0
  0
LINE
  8
0
 10
32.303199768066406
 20
52.79949951171875
 30
0.0
 11
32.30000305175781
 21
52.900001525878906
 31
0.0
  0
LINE
  8
0
 10
32.312599182128906
 20
52.699501037597656
 30
0.0
 11
32.303199768066406
 21
52.79949951171875
 31
0.0
  0
LINE
  8
0
 10
-32.41240310668945
 20
-52.31100082397461
 30
0.0
 11
-32.45230484008789
 21
-52.21879959106445
 31
0.0
  0
LINE
  8
0
 10
-35.45309829711914
 20
56.369300842285156
 30
0.0
 11
-35.22249984741211
 21
56.46910095214844
 31
0.0
  0
LINE
  8
0
 10
-32.80470275878906
 20
-51.733699798583984
 30
0.0
 11
-32.880104064941406
 21
-51.667198181152344
 31
0.0
  0
LINE
  8
0
 10
-32.350303649902344
 20
-52.50210189819336
 30
0.0
 11
-32.37830352783203
 21
-52.405601501464844
 31
0.0
  0
LINE
  8
0
 10
34.39440155029297
 20
54.42169952392578
 30
0.0
 11
34.29789733886719
 21
54.44969940185547
 31
0.0
  0
LINE
  8
0
 10
-35.5
 20
-52.900001525878906
 30
0.0
 11
-35.49679946899414
 21
-52.79949951171875
 31
0.0
  0
LINE
  8
0
 10
-35.47169876098633
 20
-52.60020065307617
 30
0.0
 11
-35.48740005493164
 21
-52.699501037597656
 31
0.0
  0
LINE
  8
0
 10
32.350303649902344
 20
52.50210189819336
 30
0.0
 11
32.32830047607422
 21
52.60020065307617
 31
0.0
  0
LINE
  8
0
 10
-32.733604431152344
 20
-51.8046989440918
 30
0.0
 11
-32.80470275878906
 21
-51.733699798583984
 31
0.0
  0
LINE
  8
0
 10
35.19439697265625
 20
-51.95949935913086
 30
0.0
 11
35.13279724121094
 21
-51.88010025024414
 31
0.0
  0
LINE
  8
0
 10
34.48899841308594
 20
54.38759994506836
 30
0.0
 11
34.39440155029297
 21
54.42169952392578
 31
0.0
  0
LINE
  8
0
 10
34.581199645996094
 20
54.34769821166992
 30
0.0
 11
34.48899841308594
 21
54.38759994506836
 31
0.0
  0
LINE
  8
0
 10
35.13279724121094
 20
-51.88010025024414
 30
0.0
 11
35.06629943847656
 21
-51.8046989440918
 31
0.0
  0
LINE
  8
0
 10
34.670799255371094
 20
-51.49789810180664
 30
0.0
 11
34.581199645996094
 21
-51.452301025390625
 31
0.0
  0
LINE
  8
0
 10
32.312599182128906
 20
-52.699501037597656
 30
0.0
 11
32.303199768066406
 21
-52.79949951171875
 31
0.0
  0
LINE
  8
0
 10
-32.31260299682617
 20
-53.10049819946289
 30
0.0
 11
-32.328304290771484
 21
-53.199798583984375
 31
0.0
  0
LINE
  8
0
 10
-35.44969940185547
 20
-52.50210189819336
 30
0.0
 11
-35.47169876098633
 21
-52.60020065307617
 31
0.0
  0
LINE
  8
0
 10
-35.676998138427734
 20
-56.25519943237305
 30
0.0
 11
-35.45309829711914
 21
-56.369300842285156
 31
0.0
  0
LINE
  8
0
 10
32.32830047607422
 20
52.60020065307617
 30
0.0
 11
32.312599182128906
 21
52.699501037597656
 31
0.0
  0
LINE
  8
0
 10
-32.350303649902344
 20
53.29790115356445
 30
0.0
 11
-32.37830352783203
 21
53.39440155029297
 31
0.0
  0
LINE
  8
0
 10
35.302101135253906
 20
53.670799255371094
 30
0.0
 11
35.25090026855469
 21
53.757301330566406
 31
0.0
  0
LINE
  8
0
 10
-35.49679946899414
 20
-52.79949951171875
 30
0.0
 11
-35.48740005493164
 21
-52.699501037597656
 31
0.0
  0
LINE
  8
0
 10
-35.42169952392578
 20
-52.405601501464844
 30
0.0
 11
-35.44969940185547
 21
-52.50210189819336
 31
0.0
  0
LINE
  8
0
 10
35.19439697265625
 20
53.84049987792969
 30
0.0
 11
35.13279724121094
 21
53.919898986816406
 31
0.0
  0
LINE
  8
0
 10
-37.1273193359375
 20
-54.8932991027832
 30
0.0
 11
-37.25522994995117
 21
-54.676998138427734
 31
0.0
  0
LINE
  8
0
 10
35.19439697265625
 20
51.95949935913086
 30
0.0
 11
35.13279724121094
 21
51.88010025024414
 31
0.0
  0
LINE
  8
0
 10
34.919898986816406
 20
54.1328010559082
 30
0.0
 11
34.99530029296875
 21
54.06629943847656
 31
0.0
  0
LINE
  8
0
 10
-36.101200103759766
 20
55.98609924316406
 30
0.0
 11
-36.29970169067383
 21
55.832000732421875
 31
0.0
  0
LINE
  8
0
 10
32.497901916503906
 20
53.670799255371094
 30
0.0
 11
32.549102783203125
 21
53.757301330566406
 31
0.0
  0
LINE
  8
0
 10
35.471702575683594
 20
-53.199798583984375
 30
0.0
 11
35.44969940185547
 21
-53.29790115356445
 31
0.0
  0
LINE
  8
0
 10
-32.30320358276367
 20
52.79949951171875
 30
0.0
 11
-32.31260299682617
 21
52.699501037597656
 31
0.0
  0
LINE
  8
0
 10
35.25090026855469
 20
53.757301330566406
 30
0.0
 11
35.19439697265625
 21
53.84049987792969
 31
0.0
  0
LINE
  8
0
 10
-32.328304290771484
 20
53.199798583984375
 30
0.0
 11
-32.350303649902344
 21
53.29790115356445
 31
0.0
  0
LINE
  8
0
 10
35.25090026855469
 20
-52.042701721191406
 30
0.0
 11
35.19439697265625
 21
-51.95949935913086
 31
0.0
  0
LINE
  8
0
 10
34.670799255371094
 20
54.302101135253906
 30
0.0
 11
34.581199645996094
 21
54.34769821166992
 31
0.0
  0
LINE
  8
0
 10
35.13279724121094
 20
51.88010025024414
 30
0.0
 11
35.06629943847656
 21
51.8046989440918
 31
0.0
  0
LINE
  8
0
 10
36.832000732421875
 20
55.29970169067383
 30
0.0
 11
36.66590118408203
 21
55.48820114135742
 31
0.0
  0
LINE
  8
0
 10
35.302101135253906
 20
-52.12919998168945
 30
0.0
 11
35.25090026855469
 21
-52.042701721191406
 31
0.0
  0
LINE
  8
0
 10
-35.47169876098633
 20
53.199798583984375
 30
0.0
 11
-35.48740005493164
 21
53.10049819946289
 31
0.0
  0
LINE
  8
0
 10
35.44969940185547
 20
52.50210189819336
 30
0.0
 11
35.42169952392578
 21
52.405601501464844
 31
0.0
  0
LINE
  8
0
 10
-35.48740005493164
 20
53.10049819946289
 30
0.0
 11
-35.49679946899414
 21
53.0004997253418
 31
0.0
  0
LINE
  8
0
 10
35.13279724121094
 20
53.919898986816406
 30
0.0
 11
35.06629943847656
 21
53.99530029296875
 31
0.0
  0
LINE
  8
0
 10
35.44969940185547
 20
-53.29790115356445
 30
0.0
 11
35.42169952392578
 21
-53.39440155029297
 31
0.0
  0
LINE
  8
0
 10
36.66590118408203
 20
55.48820114135742
 30
0.0
 11
36.488197326660156
 21
55.66590118408203
 31
0.0
  0
LINE
  8
0
 10
34.99530029296875
 20
51.733699798583984
 30
0.0
 11
34.919898986816406
 21
51.667198181152344
 31
0.0
  0
LINE
  8
0
 10
-35.44969940185547
 20
53.29790115356445
 30
0.0
 11
-35.47169876098633
 21
53.199798583984375
 31
0.0
  0
LINE
  8
0
 10
-32.31260299682617
 20
53.10049819946289
 30
0.0
 11
-32.328304290771484
 21
53.199798583984375
 31
0.0
  0
LINE
  8
0
 10
-32.60560607910156
 20
-53.84049987792969
 30
0.0
 11
-32.667205810546875
 21
-53.919898986816406
 31
0.0
  0
LINE
  8
0
 10
-33.79949951171875
 20
51.303199768066406
 30
0.0
 11
-33.89999771118164
 21
51.29999923706055
 31
0.0
  0
LINE
  8
0
 10
35.06629943847656
 20
51.8046989440918
 30
0.0
 11
34.99530029296875
 21
51.733699798583984
 31
0.0
  0
LINE
  8
0
 10
35.42169952392578
 20
-52.405601501464844
 30
0.0
 11
35.387603759765625
 21
-52.31100082397461
 31
0.0
  0
LINE
  8
0
 10
35.34770202636719
 20
-52.21879959106445
 30
0.0
 11
35.302101135253906
 21
-52.12919998168945
 31
0.0
  0
LINE
  8
0
 10
35.677001953125
 20
56.25519943237305
 30
0.0
 11
35.89330291748047
 21
56.12730026245117
 31
0.0
  0
LINE
  8
0
 10
-34.0004997253418
 20
51.303199768066406
 30
0.0
 11
-34.10049819946289
 21
51.312599182128906
 31
0.0
  0
LINE
  8
0
 10
-32.30000305175781
 20
52.900001525878906
 30
0.0
 11
-32.30320358276367
 21
52.79949951171875
 31
0.0
  0
LINE
  8
0
 10
35.387603759765625
 20
-52.31100082397461
 30
0.0
 11
35.34770202636719
 21
-52.21879959106445
 31
0.0
  0
LINE
  8
0
 10
32.497901916503906
 20
-52.12919998168945
 30
0.0
 11
32.549102783203125
 21
-52.042701721191406
 31
0.0
  0
LINE
  8
0
 10
-33.89999771118164
 20
51.29999923706055
 30
0.0
 11
-34.0004997253418
 21
51.303199768066406
 31
0.0
  0
LINE
  8
0
 10
35.471702575683594
 20
-52.60020065307617
 30
0.0
 11
35.44969940185547
 21
-52.50210189819336
 31
0.0
  0
LINE
  8
0
 10
34.757301330566406
 20
54.25090026855469
 30
0.0
 11
34.670799255371094
 21
54.302101135253906
 31
0.0
  0
LINE
  8
0
 10
-32.328304290771484
 20
-53.199798583984375
 30
0.0
 11
-32.350303649902344
 21
-53.29790115356445
 31
0.0
  0
LINE
  8
0
 10
35.471702575683594
 20
52.60020065307617
 30
0.0
 11
35.44969940185547
 21
52.50210189819336
 31
0.0
  0
LINE
  8
0
 10
-34.199798583984375
 20
51.32830047607422
 30
0.0
 11
-34.29790115356445
 21
51.35029983520508
 31
0.0
  0
LINE
  8
0
 10
35.487396240234375
 20
-52.699501037597656
 30
0.0
 11
35.471702575683594
 21
-52.60020065307617
 31
0.0
  0
LINE
  8
0
 10
34.84049987792969
 20
54.194400787353516
 30
0.0
 11
34.757301330566406
 21
54.25090026855469
 31
0.0
  0
LINE
  8
0
 10
35.496803283691406
 20
52.79949951171875
 30
0.0
 11
35.487396240234375
 21
52.699501037597656
 31
0.0
  0
LINE
  8
0
 10
34.919898986816406
 20
54.1328010559082
 30
0.0
 11
34.84049987792969
 21
54.194400787353516
 31
0.0
  0
LINE
  8
0
 10
35.487396240234375
 20
52.699501037597656
 30
0.0
 11
35.471702575683594
 21
52.60020065307617
 31
0.0
  0
LINE
  8
0
 10
-32.30320358276367
 20
53.0004997253418
 30
0.0
 11
-32.31260299682617
 21
53.10049819946289
 31
0.0
  0
LINE
  8
0
 10
35.06629943847656
 20
53.99530029296875
 30
0.0
 11
34.99530029296875
 21
54.06629943847656
 31
0.0
  0
LINE
  8
0
 10
34.581199645996094
 20
-54.34769821166992
 30
0.0
 11
34.48899841308594
 21
-54.38759994506836
 31
0.0
  0
LINE
  8
0
 10
32.452301025390625
 20
53.581199645996094
 30
0.0
 11
32.41239929199219
 21
53.48899841308594
 31
0.0
  0
LINE
  8
0
 10
36.101097106933594
 20
-55.98609924316406
 30
0.0
 11
36.29969787597656
 21
-55.83209991455078
 31
0.0
  0
LINE
  8
0
 10
35.677001953125
 20
-56.25519943237305
 30
0.0
 11
35.453102111816406
 21
-56.369300842285156
 31
0.0
  0
LINE
  8
0
 10
34.49949645996094
 20
56.679100036621094
 30
0.0
 11
34.74479675292969
 21
56.624298095703125
 31
0.0
  0
LINE
  8
0
 10
35.25090026855469
 20
52.042701721191406
 30
0.0
 11
35.19439697265625
 21
51.95949935913086
 31
0.0
  0
LINE
  8
0
 10
-32.497901916503906
 20
-52.12919998168945
 30
0.0
 11
-32.549102783203125
 21
-52.042701721191406
 31
0.0
  0
LINE
  8
0
 10
34.49949645996094
 20
56.679100036621094
 30
0.0
 11
34.25129699707031
 21
56.71839904785156
 31
0.0
  0
LINE
  8
0
 10
34.757301330566406
 20
-54.25090026855469
 30
0.0
 11
34.670799255371094
 21
-54.302101135253906
 31
0.0
  0
LINE
  8
0
 10
32.41239929199219
 20
53.48899841308594
 30
0.0
 11
32.37830352783203
 21
53.39440155029297
 31
0.0
  0
LINE
  8
0
 10
-32.30000305175781
 20
52.900001525878906
 30
0.0
 11
-32.30320358276367
 21
53.0004997253418
 31
0.0
  0
LINE
  8
0
 10
34.670799255371094
 20
-54.302101135253906
 30
0.0
 11
34.581199645996094
 21
-54.34769821166992
 31
0.0
  0
LINE
  8
0
 10
35.44969940185547
 20
-52.50210189819336
 30
0.0
 11
35.42169952392578
 21
-52.405601501464844
 31
0.0
  0
LINE
  8
0
 10
32.30000305175781
 20
52.900001525878906
 30
0.0
 11
32.303199768066406
 21
53.0004997253418
 31
0.0
  0
LINE
  8
0
 10
32.37830352783203
 20
53.39440155029297
 30
0.0
 11
32.350303649902344
 21
53.29790115356445
 31
0.0
  0
LINE
  8
0
 10
-34.10049819946289
 20
51.312599182128906
 30
0.0
 11
-34.199798583984375
 21
51.32830047607422
 31
0.0
  0
LINE
  8
0
 10
33.042701721191406
 20
-51.54909896850586
 30
0.0
 11
32.959503173828125
 21
-51.60559844970703
 31
0.0
  0
LINE
  8
0
 10
32.959503173828125
 20
-51.60559844970703
 30
0.0
 11
32.880096435546875
 21
-51.667198181152344
 31
0.0
  0
LINE
  8
0
 10
33.79949951171875
 20
51.303199768066406
 30
0.0
 11
33.699501037597656
 21
51.312599182128906
 31
0.0
  0
LINE
  8
0
 10
32.880096435546875
 20
-51.667198181152344
 30
0.0
 11
32.80470275878906
 21
-51.733699798583984
 31
0.0
  0
LINE
  8
0
 10
33.699501037597656
 20
51.312599182128906
 30
0.0
 11
33.600196838378906
 21
51.32830047607422
 31
0.0
  0
LINE
  8
0
 10
-34.919898986816406
 20
-51.667198181152344
 30
0.0
 11
-34.99530029296875
 21
-51.733699798583984
 31
0.0
  0
LINE
  8
0
 10
33.12920379638672
 20
-51.49789810180664
 30
0.0
 11
33.042701721191406
 21
-51.54909896850586
 31
0.0
  0
LINE
  8
0
 10
33.600196838378906
 20
51.32830047607422
 30
0.0
 11
33.502098083496094
 21
51.35029983520508
 31
0.0
  0
LINE
  8
0
 10
33.900001525878906
 20
51.29999923706055
 30
0.0
 11
33.79949951171875
 21
51.303199768066406
 31
0.0
  0
LINE
  8
0
 10
-34.84049987792969
 20
-51.60559844970703
 30
0.0
 11
-34.919898986816406
 21
-51.667198181152344
 31
0.0
  0
LINE
  8
0
 10
34.00050354003906
 20
51.303199768066406
 30
0.0
 11
33.900001525878906
 21
51.29999923706055
 31
0.0
  0
LINE
  8
0
 10
33.405601501464844
 20
-51.378299713134766
 30
0.0
 11
33.310997009277344
 21
-51.41239929199219
 31
0.0
  0
LINE
  8
0
 10
-35.06629943847656
 20
-51.8046989440918
 30
0.0
 11
-35.1328010559082
 21
-51.88010025024414
 31
0.0
  0
LINE
  8
0
 10
32.667198181152344
 20
-51.88010025024414
 30
0.0
 11
32.60559844970703
 21
-51.95949935913086
 31
0.0
  0
LINE
  8
0
 10
33.405601501464844
 20
51.378299713134766
 30
0.0
 11
33.310997009277344
 21
51.41239929199219
 31
0.0
  0
LINE
  8
0
 10
-35.1328010559082
 20
-51.88010025024414
 30
0.0
 11
-35.194400787353516
 21
-51.95949935913086
 31
0.0
  0
LINE
  8
0
 10
-34.670799255371094
 20
-51.49789810180664
 30
0.0
 11
-34.757301330566406
 21
-51.54909896850586
 31
0.0
  0
ENDSEC
  0
EOF
